<svg width="45" height="45" viewBox="0 0 45 45" fill="none" xmlns="http://www.w3.org/2000/svg">
<path d="M17.2227 42.8274C21.4724 43.5623 26.0098 43.2428 29.7883 41.0939C33.5668 38.9451 36.2348 34.7033 35.8035 30.4375C34.9248 32.4186 32.6082 33.3213 30.4992 33.7127C28.3903 34.1041 26.1057 34.192 24.2604 35.3104C21.2807 37.1477 20.2023 41.1498 17.2227 42.8274Z" fill="#783E00"/>
<path d="M18.1811 9.41316C18.6204 11.594 20.5776 13.0718 22.5427 14.2062C24.5078 15.3405 26.5927 16.3949 27.6552 18.3441C28.5419 19.9418 28.5179 21.9388 29.0372 23.7202C29.5196 25.2867 30.4152 26.6942 31.6297 27.7949C32.8442 28.8956 34.3328 29.6487 35.9391 29.9751C36.1148 31.4449 34.8047 32.6911 33.4467 33.2743C32.0887 33.8574 30.5629 34.0731 29.3248 34.8719C27.799 35.8864 26.9762 37.6438 25.8498 39.0977C24.7171 40.4947 23.3124 41.647 21.7208 42.4846C20.1293 43.3223 18.3842 43.8278 16.5914 43.9706C12.9863 44.2261 9.39095 43.3551 6.30243 41.4782C7.80423 39.609 7.90009 36.893 7.10126 34.6243C6.58197 33.2288 5.86357 31.9158 4.96838 30.726C4.45422 30.0077 4.14853 29.1613 4.0851 28.2803C4.02166 27.3992 4.20294 26.5178 4.60891 25.7333C5.80715 23.4087 7.50068 20.2533 8.17968 18.5438C8.56616 17.6889 8.75458 16.7577 8.73088 15.8198C8.70933 15.3501 8.55539 14.8962 8.28682 14.5103C8.01825 14.1244 7.64602 13.8223 7.2131 13.639C6.64593 13.4472 6.02284 13.5431 5.44768 13.3993C4.08168 13.0558 3.3867 11.586 2.81953 10.2999C2.25235 9.01373 1.41358 7.56786 0.015625 7.41608C6.24645 6.38924 12.1722 3.99386 17.3662 0.402344C18.7243 1.24911 18.9639 3.14231 18.7003 4.724C18.4367 6.30569 17.8615 7.84745 18.1811 9.41316Z" fill="#B16113"/>
<g style="mix-blend-mode:multiply" opacity="0.34">
<path d="M9.82593 19.1582L10.0736 19.302C11.0117 19.4019 11.9602 19.2843 12.8455 18.9585C14.9215 18.1376 16.921 17.1352 18.8208 15.9629C19.7407 15.1489 20.7091 14.3912 21.7205 13.6942C20.2727 12.901 19.1062 11.6786 18.3814 10.1953C17.7703 11.1429 16.9626 11.948 16.0129 12.5558C15.0632 13.1636 13.9939 13.5601 12.8775 13.7182C11.9348 13.846 10.8644 13.5424 9.96173 13.7182C9.33065 13.862 8.71555 14.0537 8.08447 14.2294C8.42472 14.6649 8.63268 15.1889 8.6836 15.7392C8.70729 16.6771 8.51888 17.6083 8.13241 18.4632V18.5431C8.722 18.6711 9.29164 18.878 9.82593 19.1582Z" fill="#B16113"/>
</g>
<path d="M29.0377 23.6881C28.5184 21.9067 28.5424 19.9416 27.6557 18.3119C26.5932 16.3628 24.4604 15.2844 22.5432 14.174C20.626 13.0636 18.6209 11.5938 18.1816 9.38101C17.862 7.78335 18.4372 6.22563 18.6848 4.64395C18.9325 3.06226 18.6848 1.16903 17.3508 0.322266C16.6318 0.817541 15.8969 1.29684 15.146 1.74418C15.4008 2.31489 15.6248 2.89888 15.817 3.49363C16.2984 5.03046 16.4052 6.66014 16.1286 8.24666C15.9049 9.43692 15.3856 11.0106 16.3283 12.0171C17.2709 13.0237 18.4212 14.0542 18.6049 15.6678C18.8126 17.601 17.6304 23.1609 20.5141 23.5363C22.2876 23.76 24.9237 23.8958 25.1713 26.2284C25.363 28.0737 24.4524 29.7512 23.8772 31.4527C23.5304 32.1695 23.3972 32.9709 23.4938 33.7613C23.7574 34.664 25.419 35.4549 26.05 36.1578C26.419 36.5465 26.7359 36.9815 26.9927 37.4519C27.5931 36.4424 28.3855 35.5604 29.3253 34.8557C30.5634 34.0569 32.0892 33.8252 33.4472 33.2581C34.8052 32.6909 36.1153 31.4288 35.9396 29.9589C34.3315 29.6312 32.8415 28.8756 31.6268 27.772C30.4121 26.6684 29.5177 25.2575 29.0377 23.6881Z" fill="#BF7E3E"/>
<g style="mix-blend-mode:screen" opacity="0.24">
<path d="M17.3508 0.353516C13.3992 3.0846 9.01637 5.13155 4.38574 6.40867C4.57792 6.55278 4.76194 6.70744 4.93694 6.87198L5.01682 6.95187C5.85762 7.59038 6.63839 8.30432 7.34941 9.08476C8.30904 10.2026 9.51871 11.0783 10.8802 11.641C12.0254 12.123 13.2894 12.2483 14.5069 12.0005C14.7626 11.8966 15.0182 11.7848 15.3058 11.665C15.6411 11.3762 15.9414 11.0491 16.2005 10.6904C16.6521 9.85142 17.3194 9.14822 18.1336 8.65339C18.2048 7.30639 18.4027 5.96909 18.7248 4.65923C18.9325 3.09352 18.7088 1.20028 17.3508 0.353516Z" fill="#B16113"/>
</g>
<path d="M0 7.36795C3.25647 7.84634 6.57923 7.57308 9.71379 6.56912C12.9065 5.46884 15.61 3.27995 17.3506 0.386143C14.2831 -0.572455 10.8242 0.442061 8.84306 1.38468C5.93532 2.7427 2.54028 5.39483 0 7.36795Z" fill="#783E00"/>
<path d="M37.7131 17.0966C35.8438 16.0102 35.692 13.2782 34.1183 11.7924C33.4684 11.2798 32.7128 10.9179 31.9061 10.7328C31.0993 10.5477 30.2615 10.544 29.4532 10.7219C27.8555 10.9855 26.2578 11.6246 24.6602 11.9441C23.857 12.166 23.0167 12.2195 22.1919 12.1013C21.3671 11.9831 20.5757 11.6957 19.8672 11.2572C21.5811 11.6998 23.3913 11.5851 25.0356 10.9296C26.6655 10.2874 28.336 9.75364 30.0363 9.33198C30.8898 9.11939 31.7799 9.09942 32.6421 9.27352C33.5043 9.44761 34.3169 9.81138 35.021 10.3385C35.7206 11.0436 36.3079 11.8518 36.7625 12.735C37.2217 13.6152 37.9016 14.3612 38.7356 14.8998C39.1585 15.1596 39.6552 15.2729 40.1489 15.2224C40.6427 15.1719 41.1061 14.9603 41.4676 14.6202C41.5191 16.333 41.2482 18.0402 40.6688 19.6529C40.7036 19.3001 40.6246 18.9455 40.4436 18.6408C40.2625 18.3362 39.9887 18.0974 39.6622 17.9593C39.0471 17.5839 38.3282 17.4561 37.7131 17.0966Z" fill="#64463E"/>
<path d="M44.5744 27.5958C42.6444 27.2657 40.765 26.6884 38.9825 25.8783C37.169 25.0552 35.7397 23.5687 34.9884 21.7244C34.1177 19.248 34.9884 16.2604 33.5265 14.0556C32.6383 12.8176 31.2979 11.9795 29.796 11.723C28.3099 11.4766 26.7979 11.4255 25.2986 11.5712L20.9849 11.8109C22.2151 13.2488 24.308 13.5523 26.1932 13.4804C27.6311 13.4245 29.1649 13.2248 30.4191 13.9278C30.9988 14.3125 31.4864 14.8207 31.8468 15.4159C32.2073 16.0111 32.4317 16.6787 32.504 17.3707C32.6346 18.7514 32.6613 20.14 32.5839 21.5246C32.5122 22.9299 32.8718 24.3236 33.6144 25.5188C34.549 26.8209 36.1227 27.476 37.5367 28.2269C38.9506 28.9778 40.4045 30.0642 40.6841 31.6459C40.725 31.1533 40.8667 30.6744 41.1003 30.2388C41.3339 29.8032 41.6544 29.4202 42.0421 29.1135C42.8145 28.4966 43.6662 27.9861 44.5744 27.5958Z" fill="#64463E"/>
<path d="M7.85254 15.1643L7.45312 16.9057C7.45312 16.9057 16.2962 19.7735 21.5765 10.8905L19.9309 9.65234C19.9309 9.65234 15.6651 18.6072 7.85254 15.1643Z" fill="#64463E"/>
<g style="mix-blend-mode:multiply" opacity="0.34">
<path d="M29.0372 23.688C29.0372 23.5921 28.9812 23.4963 28.9573 23.4004C26.3051 26.5957 23.7169 29.7911 20.8411 32.7787C19.6986 34.1495 18.1138 35.0789 16.3597 35.4068C14.3546 35.6704 12.1898 34.7119 10.4004 33.929C8.80275 33.226 7.20508 32.4512 5.60742 31.6923C6.20797 32.6031 6.69866 33.5818 7.06929 34.608C7.86812 36.8767 7.78823 39.5927 6.27045 41.462C9.35897 43.3389 12.9543 44.2098 16.5594 43.9543C18.3522 43.8115 20.0973 43.306 21.6889 42.4683C23.2804 41.6307 24.6851 40.4784 25.8179 39.0815C26.9442 37.6276 27.767 35.8861 29.2928 34.8556C30.531 34.0568 32.0567 33.8251 33.4147 33.258C34.7728 32.6908 36.0828 31.4287 35.9071 29.9588C34.3048 29.6259 32.8216 28.868 31.6129 27.7647C30.4042 26.6614 29.5145 25.2533 29.0372 23.688Z" fill="#C78C54"/>
</g>
</svg>
