<svg width="20" height="20" viewBox="0 0 20 20" fill="none" xmlns="http://www.w3.org/2000/svg">
<path d="M10 10.5332C9.7024 10.5344 9.41339 10.6333 9.17743 10.8147C8.94147 10.9961 8.77162 11.2499 8.69399 11.5373C8.61636 11.8246 8.63525 12.1295 8.74775 12.405C8.86025 12.6805 9.06014 12.9115 9.31669 13.0624V14.9999H10.7V13.0624C10.903 12.9423 11.0714 12.7718 11.189 12.5674C11.3065 12.3629 11.3692 12.1315 11.3709 11.8957C11.3709 11.7161 11.3353 11.5382 11.2663 11.3724C11.1974 11.2065 11.0962 11.056 10.9688 10.9293C10.8414 10.8027 10.6903 10.7025 10.524 10.6345C10.3577 10.5666 10.1796 10.5321 10 10.5332Z" stroke="#666B8A" stroke-width="0.972222" stroke-linecap="round" stroke-linejoin="round"/>
<path d="M15.121 7.4043H4.8752C3.88108 7.4043 3.0752 8.21018 3.0752 9.2043V16.3251C3.0752 17.3192 3.88108 18.1251 4.8752 18.1251H15.121C16.1151 18.1251 16.921 17.3192 16.921 16.3251V9.2043C16.921 8.21018 16.1151 7.4043 15.121 7.4043Z" stroke="#666B8A" stroke-width="0.972222" stroke-linecap="round" stroke-linejoin="round"/>
<path d="M5.5625 7.40417V6.31667C5.5625 5.13866 6.03046 4.00891 6.86343 3.17593C7.69641 2.34296 8.82616 1.875 10.0042 1.875C11.1822 1.875 12.3119 2.34296 13.1449 3.17593C13.9779 4.00891 14.4458 5.13866 14.4458 6.31667V7.40417" stroke="#666B8A" stroke-width="0.972222" stroke-linecap="round" stroke-linejoin="round"/>
</svg>
