<svg width="26" height="26" viewBox="0 0 26 26" fill="none" xmlns="http://www.w3.org/2000/svg">
<g clip-path="url(#clip0_874_4789)">
<path d="M8.96787 3.52011C8.68861 3.79945 8.53174 4.17827 8.53174 4.57325C8.53174 4.96823 8.68861 5.34705 8.96787 5.62638L16.3413 12.9998L8.96787 20.3733C8.69653 20.6542 8.54639 21.0305 8.54978 21.421C8.55317 21.8116 8.70983 22.1852 8.98601 22.4614C9.26219 22.7376 9.6358 22.8942 10.0264 22.8976C10.4169 22.901 10.7932 22.7509 11.0741 22.4795L19.5007 14.053C19.78 13.7736 19.9368 13.3948 19.9368 12.9998C19.9368 12.6048 19.78 12.226 19.5007 11.9467L11.0741 3.52011C10.7948 3.24086 10.416 3.08398 10.021 3.08398C9.62602 3.08398 9.24721 3.24086 8.96787 3.52011Z" fill="#FFA725"/>
</g>
<defs>
<clipPath id="clip0_874_4789">
<rect width="26" height="26" fill="white"/>
</clipPath>
</defs>
</svg>
