<svg width="20" height="20" viewBox="0 0 20 20" fill="none" xmlns="http://www.w3.org/2000/svg">
<path d="M16.6937 16.6629H3.30615C2.60193 16.6621 1.92678 16.3819 1.42881 15.884C0.930849 15.386 0.650729 14.7109 0.649902 14.0066V5.99414C0.650729 5.28991 0.930849 4.61477 1.42881 4.1168C1.92678 3.61884 2.60193 3.33872 3.30615 3.33789H16.6937C17.3979 3.33872 18.073 3.61884 18.571 4.1168C19.069 4.61477 19.3491 5.28991 19.3499 5.99414V14.0066C19.3491 14.7109 19.069 15.386 18.571 15.884C18.073 16.3819 17.3979 16.6621 16.6937 16.6629ZM3.30615 4.27539C2.85031 4.27539 2.41314 4.45647 2.09081 4.7788C1.76848 5.10113 1.5874 5.5383 1.5874 5.99414V14.0066C1.5874 14.4625 1.76848 14.8997 2.09081 15.222C2.41314 15.5443 2.85031 15.7254 3.30615 15.7254H16.6937C17.1495 15.7254 17.5867 15.5443 17.909 15.222C18.2313 14.8997 18.4124 14.4625 18.4124 14.0066V5.99414C18.4124 5.5383 18.2313 5.10113 17.909 4.7788C17.5867 4.45647 17.1495 4.27539 16.6937 4.27539H3.30615Z" fill="#666B8A"/>
<path d="M9.99986 11.8997C9.4216 11.9006 8.8588 11.713 8.39673 11.3653L1.09986 5.84657C1.0483 5.81039 1.00457 5.76419 0.971267 5.71073C0.937965 5.65726 0.915779 5.59764 0.906035 5.53541C0.89629 5.47318 0.899186 5.40963 0.91455 5.34855C0.929915 5.28746 0.957432 5.2301 0.995458 5.17989C1.03348 5.12968 1.08124 5.08765 1.13587 5.0563C1.19051 5.02496 1.2509 5.00495 1.31344 4.99746C1.37598 4.98998 1.43938 4.99517 1.49987 5.01274C1.56036 5.0303 1.61668 5.05988 1.66548 5.0997L8.96236 10.6247C9.26201 10.8484 9.62593 10.9692 9.99986 10.9692C10.3738 10.9692 10.7377 10.8484 11.0374 10.6247L18.3342 5.0997C18.383 5.05988 18.4394 5.0303 18.4999 5.01274C18.5603 4.99517 18.6237 4.98998 18.6863 4.99746C18.7488 5.00495 18.8092 5.02496 18.8638 5.0563C18.9185 5.08765 18.9662 5.12968 19.0043 5.17989C19.0423 5.2301 19.0698 5.28746 19.0852 5.34855C19.1005 5.40963 19.1034 5.47318 19.0937 5.53541C19.0839 5.59764 19.0618 5.65726 19.0285 5.71073C18.9952 5.76419 18.9514 5.81039 18.8999 5.84657L11.603 11.3653C11.1409 11.713 10.5781 11.9006 9.99986 11.8997Z" fill="#666B8A"/>
<path d="M1.30294 15.3571C1.20786 15.3572 1.115 15.3285 1.03666 15.2746C0.95832 15.2207 0.898212 15.1443 0.864311 15.0555C0.83041 14.9667 0.824318 14.8696 0.846844 14.7773C0.86937 14.6849 0.919449 14.6016 0.990435 14.5383L6.74044 9.41022C6.83326 9.32734 6.95521 9.28473 7.07945 9.29177C7.20369 9.2988 7.32006 9.3549 7.40294 9.44772C7.48582 9.54055 7.52843 9.6625 7.52139 9.78674C7.51436 9.91098 7.45826 10.0273 7.36544 10.1102L1.61544 15.2383C1.53004 15.316 1.41837 15.3585 1.30294 15.3571ZM18.6967 15.3571C18.5812 15.3585 18.4696 15.316 18.3842 15.2383L12.6342 10.1102C12.5414 10.0273 12.4853 9.91098 12.4782 9.78674C12.4712 9.6625 12.5138 9.54055 12.5967 9.44772C12.6796 9.3549 12.7959 9.2988 12.9202 9.29177C13.0444 9.28473 13.1664 9.32734 13.2592 9.41022L19.0061 14.5383C19.077 14.6016 19.1271 14.6849 19.1497 14.7773C19.1722 14.8696 19.1661 14.9667 19.1322 15.0555C19.0983 15.1443 19.0382 15.2207 18.9598 15.2746C18.8815 15.3285 18.7886 15.3572 18.6936 15.3571H18.6967Z" fill="#666B8A"/>
</svg>
