<svg width="29" height="32" viewBox="0 0 29 32" fill="none" xmlns="http://www.w3.org/2000/svg">
<g clip-path="url(#clip0_874_4697)">
<path fill-rule="evenodd" clip-rule="evenodd" d="M14.0747 19.822C12.885 20.313 10.9273 21.2636 9.58647 21.9403C8.24565 22.617 7.46822 23.0073 7.1755 23.3598C6.88279 23.7123 7.07165 24.0491 8.01274 24.3323C9.30915 24.6749 10.6474 24.8328 11.988 24.8013C13.0129 24.7787 14.0234 24.5552 14.9623 24.1435C15.6296 23.8508 15.9947 23.6021 16.1395 22.7964C16.2869 21.85 16.2235 20.8827 15.9538 19.9637C15.702 19.2933 15.2645 19.3342 14.0653 19.8252L14.0747 19.822ZM24.3952 8.80595C24.1246 10.1216 23.643 12.3846 23.0576 14.6697C22.4721 16.9547 21.7986 19.2523 21.0338 21.4524C20.2689 23.6525 19.46 25.7518 18.7487 27.3287C18.0374 28.9056 17.4457 29.9474 17.3103 30.5517C17.175 31.156 17.4645 31.326 17.8611 31.2945C18.2577 31.263 18.7707 31.0238 19.46 30.429C20.483 29.486 21.3754 28.4106 22.1133 27.2312C23.3867 25.3046 24.5085 23.2821 25.4685 21.1817C26.2752 19.4428 26.8976 17.6241 27.3255 15.7555C27.6202 14.6479 27.66 13.4878 27.442 12.3626C27.1922 11.2695 26.8063 10.2121 26.2932 9.21512C25.8147 8.25515 25.3017 7.48087 25.009 7.28258C24.7163 7.08429 24.6659 7.47143 24.3795 8.79651L24.3952 8.80595ZM12.7497 4.92514C12.5199 3.75429 12.3531 2.72192 12.5199 2.2435C12.6867 1.76509 13.1651 1.83434 13.9488 2.2435C14.8661 2.7402 15.692 3.38946 16.3913 4.16345C16.8596 4.75084 17.1197 5.47704 17.1309 6.22818C17.2188 6.83327 17.191 7.44954 17.0491 8.04427C16.872 8.50287 16.5231 8.87435 16.0765 9.07978C15.5981 9.35046 14.9623 9.62114 14.5217 9.5582C14.081 9.49525 13.8355 9.09867 13.5774 8.24256C13.3193 7.38645 12.9857 6.07396 12.7497 4.91255V4.92514Z" fill="#D37B14"/>
<path fill-rule="evenodd" clip-rule="evenodd" d="M7.72036 1.88486C6.09414 2.46384 4.51562 3.16891 2.99917 3.99365C1.74019 4.7459 1.27751 5.39112 1.23659 6.90505C1.19567 8.41897 1.55135 10.8079 2.13362 13.2283C2.63875 15.4017 3.30577 17.5343 4.1291 19.6082C4.75859 21.1127 5.24645 21.676 5.70283 22.1261C6.15921 22.5762 6.61244 22.9413 8.01935 22.5353C9.42626 22.1293 11.7963 20.9616 13.0931 20.3321C14.3898 19.7026 14.6353 19.5893 14.9186 21.4589C15.2019 23.3285 15.5481 27.1652 15.7936 29.0757C16.0391 30.9862 16.2027 30.9642 16.7221 30.4228C17.2414 29.8815 18.1542 28.868 19.1865 26.8001C20.4378 24.1945 21.4501 21.4807 22.2112 18.6923C22.8844 16.2127 23.3798 13.6884 23.6937 11.1384C23.9329 9.2499 23.9769 8.24586 23.8385 7.53768C23.7 6.8295 23.3915 6.42978 22.5795 6.45182C21.7674 6.47385 20.4518 6.93338 19.0543 7.48418C17.6569 8.03498 16.1744 8.68651 15.3813 9.02958C14.5881 9.37265 14.4622 9.42616 14.223 9.34433C13.9838 9.26249 13.6281 9.05476 13.219 7.86502C12.8098 6.67528 12.3566 4.50039 12.0418 3.13755C11.7271 1.7747 11.6452 1.28055 11.4123 1.06022C11.1794 0.839903 10.8584 0.915442 10.3264 1.06022C9.43621 1.29139 8.55893 1.56981 7.69832 1.8943L7.72036 1.88486Z" fill="#FBAA01"/>
<path fill-rule="evenodd" clip-rule="evenodd" d="M9.14917 1.27656C9.49607 1.50437 9.77974 1.81619 9.9738 2.18303C10.3946 3.03643 10.6863 3.94759 10.8394 4.8867C11.1226 6.23381 11.3933 8.09081 11.686 9.22704C11.9787 10.3633 12.3155 10.7504 12.8002 11.1155C13.1075 11.3561 13.4708 11.5148 13.856 11.577C14.2413 11.6392 14.636 11.6028 15.0034 11.4712C16.0673 11.1564 17.5592 10.2405 18.8622 9.53863C19.843 9.00686 20.8576 8.54003 21.8995 8.14116C22.4944 7.93343 22.5668 7.99639 22.5573 8.39297C22.5479 8.78955 22.4283 9.53234 22.1135 11.3893C21.7988 13.2463 21.2889 16.2522 20.7664 18.9747C20.2439 21.6973 19.712 24.1082 19.1927 26.5286C20.5713 23.1986 21.9467 19.8686 22.8154 17.0611C23.5093 14.858 23.994 12.5944 24.2633 10.3003C24.433 9.18206 24.4857 8.04916 24.4206 6.91996C24.3577 6.29047 24.1909 6.06385 23.9107 5.88759C23.6306 5.71134 23.1994 5.60432 22.252 5.83408C20.9625 6.19401 19.7054 6.66148 18.494 7.23155C17.1783 7.83901 16.0515 8.45276 15.3465 8.66364C14.6415 8.87452 14.4023 8.66365 14.1694 8.23559C13.9365 7.80754 13.6878 7.14972 13.3857 5.85612C13.0835 4.56251 12.7089 2.5985 12.3942 1.53466C12.0794 0.470819 11.8088 0.313446 11.5507 0.275676C11.2081 0.26109 10.8661 0.317897 10.5466 0.442491L8.59521 0.974412C8.79012 1.0512 8.97591 1.14937 9.14917 1.26712V1.27656Z" fill="white"/>
<path fill-rule="evenodd" clip-rule="evenodd" d="M4.21506 3.71083C4.05769 4.13889 3.90031 4.72432 4.03565 6.35155C4.29431 8.57672 4.68848 10.784 5.21595 12.9612C5.78879 15.2998 6.47494 17.3456 6.83375 18.4189C7.19256 19.4922 7.23977 19.5992 7.40659 19.703C7.5734 19.8069 7.8787 19.9328 9.05585 19.4733C10.233 19.0138 12.3135 17.9499 13.6795 17.2701C15.0455 16.5902 15.6812 16.2786 16.1628 16.2377C16.6444 16.1968 16.956 16.4171 17.1637 17.3551C17.3975 18.7517 17.5091 20.1661 17.4973 21.5821C17.5194 23.1873 17.4658 24.7295 17.4155 26.0798C17.3651 27.4301 17.3431 28.5726 17.3116 29.7308C16.978 30.1495 16.6318 30.5555 16.2981 30.9741C16.0999 30.6814 15.911 30.3792 15.6687 28.4561C15.4263 26.533 15.1682 23.0299 14.907 19.5016L7.3216 23.1212C6.71729 22.9323 6.10982 22.734 5.50551 22.5483C4.17099 19.4009 2.84592 16.2755 2.11256 13.5718C1.56531 11.5119 1.27459 9.39232 1.24701 7.26116C1.22813 5.88258 1.30052 5.37269 1.51769 4.95408C1.77681 4.47849 2.16385 4.0849 2.63503 3.81784C3.28645 3.43281 3.96251 3.09109 4.65884 2.79492C4.48202 3.08583 4.33241 3.39244 4.21191 3.71083H4.21506Z" fill="#D37B14"/>
<path fill-rule="evenodd" clip-rule="evenodd" d="M14.5032 8.55171C14.582 8.51748 14.6587 8.4786 14.7329 8.43526C16.5615 7.4141 18.4662 6.53546 20.4298 5.80713C21.5346 5.40111 23.3507 4.80624 24.4271 5.51442C25.3713 6.14391 25.3713 7.42492 25.2391 8.41637C24.6923 12.4823 23.824 16.4984 22.6425 20.427C21.6416 23.798 20.4204 27.1878 18.4879 30.1527C18.13 30.7616 17.6512 31.2908 17.0809 31.7075C16.8863 31.8457 16.6597 31.9324 16.4225 31.9593C16.1853 31.9863 15.9451 31.9527 15.7244 31.8618C15.0131 31.4872 14.8588 30.3604 14.8368 29.6302C14.7518 27.1658 14.5221 24.7265 14.3552 22.2746C14.3552 22.0858 14.3143 21.0534 14.264 20.7009C14.1381 20.7512 13.9492 20.8457 13.8863 20.8771C13.4803 21.0975 13.0837 21.3052 12.6651 21.5066C11.34 22.155 9.99603 22.7813 8.63947 23.3636C6.92726 24.1064 5.33151 23.9396 4.35894 22.1959C1.90708 17.7517 0.644945 12.6056 0.0500761 7.58544C-0.138771 5.98024 0.175969 4.79994 1.51993 3.78961C2.50876 3.08525 3.56271 2.47712 4.66739 1.97353C6.12933 1.27175 7.64884 0.696792 9.20916 0.255014C10.764 -0.163597 12.5045 -0.276906 13.0805 1.60212C13.7383 3.80534 14.0814 6.06836 14.4686 8.32194C14.4751 8.39963 14.4888 8.47655 14.5095 8.55171H14.5032ZM16.3382 30.3289C16.5614 30.1464 16.7519 29.9271 16.9015 29.6806C18.7082 26.9171 19.9388 23.1276 20.8673 19.977C22.0295 16.0765 22.8912 12.0928 23.4451 8.06071C23.4766 7.80891 23.5301 7.26755 23.3192 7.0787C23.0045 6.80802 21.9752 7.16368 21.6416 7.27698C19.5423 8.01851 17.5039 8.92247 15.545 9.98066C14.0216 10.8273 12.9987 10.3363 12.7123 8.62409C12.3251 6.37996 11.9506 3.93753 11.2928 1.76894C11.1448 1.2559 10.1534 1.61157 9.83235 1.706C7.39937 2.45824 4.39355 3.57244 2.37918 5.14931C1.74969 5.64031 1.79691 6.49642 1.87875 7.2046C2.44214 11.9258 3.59095 17.3583 5.91692 21.5727C6.37644 22.3974 6.99335 22.2022 7.733 21.8654C9.46725 21.1258 11.3243 20.3421 12.9924 19.4765C13.1813 19.3821 13.3669 19.2782 13.5558 19.1838C13.9933 18.9352 14.9124 18.4127 15.4128 18.6928C15.9982 19.0076 15.9573 20.1029 15.9982 20.7198C16.228 23.7445 16.2783 26.9391 16.313 29.9733C16.3158 30.0924 16.3263 30.2112 16.3444 30.3289H16.3382Z" fill="#3D1B11"/>
<path fill-rule="evenodd" clip-rule="evenodd" d="M12.8852 2.56281C13.5147 2.93736 14.4306 3.47872 15.057 3.88789C15.6833 4.29706 16.0012 4.57718 16.2247 5.14687C16.4456 5.77867 16.6161 6.42698 16.7346 7.0857C16.851 7.60818 16.9455 7.79702 17.0273 7.8285C17.1091 7.85997 17.2161 7.75296 17.2665 7.40989C17.3249 6.89325 17.3249 6.37169 17.2665 5.85505C17.2182 5.27519 17.0955 4.70396 16.9014 4.15543C16.7253 3.73412 16.4368 3.36935 16.0673 3.10103C15.6393 2.73592 15.0444 2.25436 14.4936 1.84204C13.9428 1.42973 13.4801 1.07092 13.0615 0.787645C12.7381 0.550199 12.3885 0.350612 12.0197 0.192782C11.7674 0.0889305 11.4991 0.0293075 11.2265 0.0165249C10.9941 -0.0055083 10.7602 -0.0055083 10.5278 0.0165249C10.2909 0.0315933 10.0596 0.0947778 9.84796 0.202224C9.70182 0.316236 9.58433 0.462812 9.50488 0.630273C9.44193 0.765613 9.40101 0.850593 9.50488 0.9041C9.67096 0.969936 9.84878 1.001 10.0273 0.995379C10.202 0.971309 10.3798 1.00096 10.5372 1.08037C10.8838 1.27752 11.219 1.49398 11.5413 1.72874C11.9064 1.96795 12.2495 2.18512 12.8758 2.56281H12.8852Z" fill="#3D1B11"/>
<path fill-rule="evenodd" clip-rule="evenodd" d="M4.80246 22.8258C5.00551 23.0407 5.22095 23.2435 5.44768 23.4333C5.72458 23.6305 6.01485 23.8082 6.31638 23.9652C6.6179 24.1181 6.92791 24.2536 7.24489 24.3712C7.6208 24.5047 8.00318 24.6192 8.39056 24.7143C8.86268 24.8402 9.41349 24.9566 9.90449 25.029C10.3359 25.0975 10.771 25.1396 11.2075 25.1549C11.5771 25.1699 11.9473 25.1594 12.3154 25.1234C12.7191 25.0894 13.1179 25.0124 13.5052 24.8937C13.9544 24.769 14.394 24.6123 14.8208 24.4247C15.1356 24.2673 15.2174 24.1635 15.2363 24.0785C15.2552 23.9935 15.2048 23.9117 14.9971 23.9243C14.7893 23.9369 14.4116 24.0376 14.0528 24.11C13.6921 24.1936 13.3244 24.2432 12.9544 24.2579C12.4929 24.2862 12.0299 24.2789 11.5695 24.2359C11.0925 24.1962 10.6191 24.1215 10.1531 24.0124C9.7725 23.9218 9.40227 23.7921 9.04837 23.6253C8.78128 23.5061 8.53145 23.3515 8.30558 23.1657C8.11552 23.0063 7.93475 22.836 7.7642 22.6558C6.70981 22.6244 5.64597 22.5929 5.15497 22.6244C4.66397 22.6558 4.74895 22.7471 4.82134 22.8415L4.80246 22.8258Z" fill="#3D1B11"/>
<path fill-rule="evenodd" clip-rule="evenodd" d="M24.5946 5.65026C24.7775 5.78139 24.9454 5.93233 25.0951 6.10034C25.3243 6.36317 25.5347 6.64189 25.7246 6.93442C25.9543 7.27749 26.2345 7.6961 26.5398 8.1934C26.8726 8.74303 27.1752 9.31042 27.4462 9.89303C27.7115 10.4829 27.9376 11.0895 28.1229 11.7091C28.2489 12.1401 28.3197 12.5854 28.3338 13.0342C28.3503 13.5276 28.294 14.0207 28.167 14.4978C27.9643 15.359 27.7164 16.2089 27.4242 17.044C27.1095 17.9725 26.7475 18.9105 26.3824 19.7572C26.0173 20.6038 25.6711 21.3309 25.2336 22.187C24.7961 23.0431 24.3051 23.9621 23.8141 24.8151C23.3231 25.6681 22.8698 26.4235 22.3222 27.2701C21.7902 28.109 21.2155 28.92 20.6005 29.7C20.167 30.2471 19.6741 30.7443 19.1307 31.1824C18.8349 31.4287 18.5039 31.6292 18.1487 31.7773C17.8466 31.8951 17.528 31.9652 17.2044 31.985C16.8898 32.01 16.5735 32.0037 16.2602 31.9661C16.021 31.9441 15.9171 31.9126 15.8321 31.7143C15.7471 31.516 15.7062 31.1509 15.8951 31.0062C16.0839 30.8614 16.4899 30.9432 16.8393 30.9841C17.1537 31.0244 17.4725 31.0138 17.7835 30.9526C18.1143 30.8593 18.4156 30.6827 18.6585 30.4396C19.1865 29.9699 19.6595 29.442 20.0686 28.8659C20.7664 27.8975 21.4145 26.8942 22.0106 25.8601C22.7282 24.6514 23.5339 23.2508 24.2138 21.8848C24.848 20.583 25.4081 19.2463 25.8914 17.8813C26.291 16.7997 26.6211 15.6938 26.8797 14.5701C27.0333 13.9821 27.0791 13.3711 27.015 12.7667C26.9577 12.2886 26.8425 11.8194 26.672 11.3692C26.4488 10.7796 26.1761 10.21 25.8568 9.66642C25.4909 9.03317 25.0752 8.43009 24.6135 7.86292C24.244 7.43435 23.8476 7.02961 23.4269 6.65115C23.1122 6.37102 22.9359 6.22309 23.0807 6.02166C23.3539 5.79077 23.6772 5.62695 24.025 5.54325C24.1197 5.50926 24.2217 5.50096 24.3207 5.51921C24.4196 5.53745 24.512 5.58158 24.5883 5.64711L24.5946 5.65026Z" fill="#3D1B11"/>
</g>
<defs>
<clipPath id="clip0_874_4697">
<rect width="29" height="32" fill="white"/>
</clipPath>
</defs>
</svg>
