<svg width="28" height="34" viewBox="0 0 28 34" fill="none" xmlns="http://www.w3.org/2000/svg">
<path fill-rule="evenodd" clip-rule="evenodd" d="M20.0396 2.39976C20.2497 2.03041 20.4598 1.6515 20.6509 1.36812C20.7956 1.11634 20.9933 0.899047 21.2304 0.731299C21.4437 0.62304 21.6857 0.613487 22.2238 0.731299C22.9246 0.879376 23.6024 1.12031 24.2394 1.44772C24.7992 1.75847 25.2908 2.1786 25.6849 2.68314C25.9226 2.9504 26.0736 3.28348 26.118 3.63837C26.0988 3.9244 25.9971 4.19872 25.825 4.42803C25.6244 4.72415 25.3474 5.10624 25.064 5.48515L20.0396 2.39021V2.39976Z" fill="#D37B14"/>
<path fill-rule="evenodd" clip-rule="evenodd" d="M6.33493 12.3873C5.3163 12.9496 4.38522 13.6576 3.57114 14.4888C2.85842 15.2181 2.30158 16.0848 1.93451 17.0361C1.42246 18.21 1.10004 19.4578 0.979287 20.7328C0.887955 22.1554 1.00162 23.5838 1.3168 24.9741C1.53586 26.1065 1.96807 27.187 2.59044 28.1581C3.24912 29.1093 4.05028 29.9534 4.96578 30.6608C5.91081 31.4246 6.95923 32.0506 8.07982 32.5203C9.19878 32.9516 10.3835 33.1875 11.5823 33.2177C12.9489 33.2704 14.3142 33.084 15.6166 32.6668C17.0348 32.2065 18.3606 31.4993 19.533 30.5781C20.5511 29.7636 21.401 28.7589 22.0357 27.62C22.6101 26.5869 23.0133 25.4675 23.2297 24.3054C23.4819 23.0383 23.5002 21.7359 23.2839 20.4622C23.0514 19.0707 22.491 17.571 22.1949 16.5458C21.9533 15.8556 21.8632 15.1215 21.9306 14.3933C21.9794 13.8423 22.1227 13.3037 22.3541 12.8013C22.4295 12.6372 22.5388 12.4911 22.675 12.3725C22.8111 12.2539 22.9709 12.1656 23.1438 12.1135C23.4795 12.0518 23.8187 12.0103 24.1595 11.9893C24.4575 11.9591 24.747 11.8726 25.0128 11.7346C25.2453 11.6072 25.4458 11.4162 25.8566 10.8048C26.3455 10.0812 26.7534 9.30599 27.0729 8.49319C27.2831 7.81817 27.092 7.53797 26.6494 6.92026C26.0684 6.09311 25.3835 5.34402 24.6116 4.69139C22.9537 3.57283 21.1348 2.71385 19.2178 2.14412C18.5929 1.99228 17.9461 1.95239 17.3073 2.02631C17.0726 2.049 16.8464 2.12579 16.6464 2.25065C16.4464 2.37551 16.2781 2.54504 16.1547 2.74591C15.7238 3.35276 15.3395 3.99141 15.0052 4.65637C14.7609 5.04943 14.6298 5.50226 14.6263 5.96503C14.6884 6.34254 14.7953 6.71131 14.9447 7.06354C15.0767 7.35512 15.1389 7.67348 15.1262 7.99329C15.0713 8.4277 14.9154 8.84318 14.6709 9.20643C14.3554 9.67192 13.9271 10.0499 13.4259 10.3049C12.7936 10.6233 12.1225 10.8577 11.4295 11.0023C10.6494 11.1933 9.75146 11.3812 8.90767 11.5627C8.01409 11.711 7.14856 11.9956 6.3413 12.4064L6.33493 12.3873Z" fill="#CDD8DD"/>
<path fill-rule="evenodd" clip-rule="evenodd" d="M19.4885 5.20867C19.4319 4.72412 19.4863 4.23303 19.6477 3.77265C19.7624 3.40329 19.8897 3.25682 20.0585 3.17404C20.2551 3.0722 20.4739 3.02078 20.6953 3.02439C21.0717 3.01349 21.4449 3.09666 21.7811 3.26637C22.4019 3.54386 22.9867 3.89562 23.5228 4.31394C23.8689 4.57229 24.1601 4.89703 24.3793 5.26917C24.4746 5.38144 24.5417 5.51487 24.5749 5.65833C24.6081 5.80179 24.6066 5.95112 24.5703 6.09385C24.3992 6.46026 24.1413 6.7794 23.8189 7.0236C23.5689 7.23043 23.2652 7.36185 22.9433 7.40251C22.568 7.43527 22.1904 7.37399 21.8448 7.2242C21.3093 6.99993 20.8026 6.71238 20.3355 6.36768C19.9215 6.09867 19.6237 5.68383 19.5013 5.20549L19.4885 5.20867Z" fill="#995925"/>
<path fill-rule="evenodd" clip-rule="evenodd" d="M18.3484 11.0983C17.9724 10.9145 17.6326 10.6642 17.3454 10.3596C17.2417 10.2372 17.1679 10.0924 17.1298 9.93654C17.0916 9.78071 17.0902 9.61815 17.1257 9.46169C17.2151 9.07072 17.3878 8.70364 17.632 8.38547C17.9161 7.95451 18.253 7.56087 18.635 7.21372C18.7971 7.04154 18.9955 6.90762 19.2158 6.8217C19.4361 6.73578 19.6728 6.70002 19.9086 6.71701C20.433 6.81277 20.9196 7.05445 21.3128 7.41432C21.5718 7.66688 21.7254 8.00822 21.7427 8.36954C21.7919 8.67324 21.7919 8.98287 21.7427 9.28656C21.681 9.65319 21.5673 10.0092 21.4051 10.3437C21.236 10.7297 21.0165 11.0915 20.7524 11.4199C20.6805 11.5194 20.5894 11.6033 20.4843 11.6668C20.3793 11.7302 20.2625 11.7719 20.1411 11.7893C19.9018 11.7978 19.6645 11.7429 19.4533 11.6301C19.0771 11.4756 18.7103 11.2991 18.3548 11.1015L18.3484 11.0983Z" fill="#995925"/>
<path fill-rule="evenodd" clip-rule="evenodd" d="M10.1879 18.9557C9.99404 18.4255 9.74651 17.9166 9.44914 17.4369C9.33469 17.2467 9.18331 17.0814 9.00394 16.9507C8.82456 16.82 8.62083 16.7266 8.40476 16.6759C7.90681 16.5792 7.39072 16.6736 6.95918 16.9401C6.34221 17.315 5.8211 17.8285 5.43719 18.4398C4.9426 19.1898 4.6518 20.0556 4.5934 20.9521C4.5379 22.0738 4.66261 23.1972 4.96276 24.2795C5.17992 25.3409 5.66804 26.3282 6.37967 27.1452C7.17832 27.9579 8.12796 28.6068 9.17531 29.0556C10.0327 29.4389 10.9511 29.6674 11.8882 29.7306C12.9599 29.8667 14.0486 29.7578 15.0722 29.4122C16.2226 28.9492 17.2621 28.2483 18.1226 27.3553C18.8275 26.641 19.3496 25.7672 19.6446 24.808C19.8749 24.0277 19.9431 23.2085 19.8452 22.4009C19.7592 21.764 19.5268 21.3979 19.2084 21.2291C18.89 21.0604 18.4601 21.1113 17.6896 21.2705C16.919 21.4297 15.7791 21.694 14.8812 21.7991C14.1409 21.9301 13.3791 21.8609 12.6746 21.5985C12.1064 21.3557 11.5941 20.999 11.1691 20.5505C10.7441 20.102 10.4156 19.5711 10.2038 18.9907L10.1879 18.9557ZM16.8744 18.2074C16.5059 17.8915 16.2169 17.4934 16.0307 17.0452C15.8332 16.6041 15.7917 16.1089 15.9128 15.641C15.9886 15.4794 16.1038 15.3395 16.248 15.2343C16.3921 15.1291 16.5605 15.062 16.7375 15.0392C16.91 14.9957 17.09 14.9902 17.2648 15.0232C17.4397 15.0562 17.6053 15.1269 17.7501 15.2303C18.1452 15.5173 18.443 15.9184 18.6034 16.3797C18.7874 16.8635 18.8561 17.3836 18.804 17.8986C18.7981 18.0426 18.7577 18.1832 18.6862 18.3084C18.6148 18.4336 18.5143 18.5398 18.3933 18.6182C18.2989 18.6758 18.1939 18.714 18.0845 18.7304C17.9751 18.7468 17.8636 18.7411 17.7564 18.7137C17.4282 18.6176 17.1279 18.4439 16.8808 18.2074H16.8744Z" fill="#370CC7"/>
<path fill-rule="evenodd" clip-rule="evenodd" d="M6.7806 26.555C6.40738 25.9544 6.1654 25.2816 6.07055 24.5809C5.93031 23.7732 5.93786 22.9468 6.09284 22.1419C6.26159 21.521 6.62139 21.2663 6.91752 21.2344C7.21364 21.2026 7.4429 21.3618 7.73902 21.763C8.10884 22.3309 8.51068 22.8773 8.9426 23.3996C9.52288 24.0519 10.2406 24.5674 11.0441 24.9089C11.9147 25.2581 12.853 25.4061 13.7888 25.3419C14.5175 25.2639 15.2339 25.0971 15.9221 24.8452C16.4602 24.6669 16.8073 24.5905 17.0716 24.7497C17.2318 24.8602 17.3503 25.0214 17.408 25.2073C17.4657 25.3932 17.4594 25.5931 17.39 25.7749C17.1607 26.3993 16.7761 26.9549 16.2724 27.3893C15.6694 27.9863 14.9451 28.4467 14.1486 28.7393C13.2019 29.0743 12.1901 29.1834 11.1938 29.0577C10.1819 28.915 9.20811 28.5741 8.32807 28.0547C7.69595 27.6855 7.16362 27.1674 6.77741 26.5455L6.7806 26.555Z" fill="#2E1E63"/>
<path d="M22.8258 12.6081C22.7551 12.5943 22.6878 12.5667 22.6278 12.5269C22.5678 12.4871 22.5162 12.4359 22.476 12.3762C22.4358 12.3164 22.4078 12.2494 22.3935 12.1788C22.3792 12.1083 22.3789 12.0356 22.3927 11.9649C22.4065 11.8942 22.4341 11.827 22.4739 11.767C22.5137 11.707 22.5649 11.6554 22.6246 11.6152C22.6844 11.575 22.7514 11.5469 22.822 11.5326C22.8925 11.5183 22.9652 11.5181 23.0359 11.5319C23.4613 11.6333 23.9018 11.6549 24.335 11.5955C24.5041 11.585 24.6626 11.5097 24.7776 11.3854C25.6437 9.87613 16.0373 4.13203 15.0884 5.79094C15.0571 5.86885 15.0437 5.95279 15.0493 6.03656C15.0548 6.12033 15.079 6.20179 15.1203 6.27493C15.2544 6.61869 15.4472 6.93652 15.6902 7.21423C15.7921 7.34503 15.8533 7.50285 15.8663 7.66812C15.8793 7.8334 15.8436 7.99885 15.7634 8.14399C15.7094 8.19001 15.6468 8.22488 15.5792 8.2466C15.5116 8.26832 15.4404 8.27645 15.3697 8.27053C15.299 8.26461 15.2301 8.24476 15.1671 8.21211C15.104 8.17946 15.0481 8.13467 15.0024 8.08031C14.6142 7.66152 14.3066 7.17469 14.095 6.64428C13.9987 6.42145 13.9526 6.18021 13.9597 5.93759C13.9669 5.69497 14.0272 5.45687 14.1364 5.2401C14.5599 4.51412 15.6361 4.28487 17.0307 4.56507C20.0267 5.2799 22.7489 6.85348 24.8636 9.09285C25.7806 10.1595 26.1372 11.1943 25.7169 11.9331C25.5862 12.1373 25.4113 12.3096 25.2053 12.4375C24.9992 12.5653 24.7671 12.6454 24.5261 12.6718C23.9601 12.7542 23.3839 12.7327 22.8258 12.6081Z" fill="#3D1B11"/>
<path d="M27.4703 8.90519C27.4342 8.96791 27.386 9.02289 27.3286 9.067C27.2712 9.1111 27.2056 9.14347 27.1357 9.16225C27.0658 9.18102 26.9928 9.18584 26.921 9.17642C26.8493 9.16701 26.78 9.14355 26.7173 9.10738C26.6546 9.07121 26.5996 9.02304 26.5555 8.96563C26.5114 8.90821 26.479 8.84266 26.4603 8.77274C26.4415 8.70281 26.4367 8.62987 26.4461 8.55808C26.4555 8.48629 26.4789 8.41706 26.5151 8.35434C26.6329 8.16648 26.5374 7.82897 26.2731 7.42777C25.1014 5.59055 20.0228 2.61343 17.7652 2.50835C17.2781 2.48606 16.9406 2.57203 16.81 2.75989C16.7763 2.8258 16.7295 2.88414 16.6725 2.93135C16.6155 2.97857 16.5494 3.01366 16.4784 3.03448C16.4073 3.0553 16.3328 3.06141 16.2593 3.05245C16.1858 3.04349 16.1149 3.01963 16.051 2.98234C15.987 2.94505 15.9314 2.89512 15.8874 2.83558C15.8434 2.77605 15.812 2.70817 15.7951 2.63609C15.7782 2.56401 15.7762 2.48925 15.7892 2.41637C15.8022 2.34349 15.8299 2.27403 15.8707 2.21223C16.291 1.48307 17.3704 1.27292 18.7619 1.5372C20.2578 1.86915 21.6908 2.43891 23.0062 3.22477C24.3463 3.96977 25.5553 4.92921 26.5852 6.06498C27.5149 7.13165 27.8588 8.16648 27.4512 8.90519H27.4703Z" fill="#3D1B11"/>
<path d="M26.5733 4.25969C26.5374 4.32241 26.4894 4.37744 26.4322 4.42162C26.375 4.46581 26.3096 4.49829 26.2398 4.51721C26.17 4.53613 26.0972 4.54113 26.0255 4.53191C25.9538 4.52269 25.8846 4.49943 25.8219 4.46347C25.7592 4.42751 25.7041 4.37955 25.66 4.32232C25.6158 4.2651 25.5833 4.19973 25.5644 4.12996C25.5455 4.06018 25.5405 3.98735 25.5497 3.91565C25.5589 3.84394 25.5822 3.77475 25.6181 3.71203C25.6913 3.58467 25.5863 3.32994 25.3634 3.02426C24.5247 1.99853 23.3425 1.31181 22.036 1.09152C21.6571 1.05968 21.3833 1.09152 21.31 1.21888C21.2368 1.34495 21.1166 1.43686 20.9758 1.47446C20.8349 1.51206 20.6849 1.49229 20.5586 1.41948C20.4352 1.34458 20.3455 1.22498 20.3082 1.08559C20.2708 0.946207 20.2887 0.797779 20.358 0.671221C20.6764 0.142661 21.3132 -0.035649 22.1411 0.00574421C22.9577 0.082487 23.7482 0.334399 24.4587 0.74431C25.1692 1.15422 25.7829 1.71249 26.2581 2.38108C26.6912 3.07839 26.8949 3.73113 26.5765 4.25969H26.5733Z" fill="#3D1B11"/>
<path d="M18.8514 10.5108C18.291 10.1923 17.3963 9.72748 17.3198 9.823C17.2434 9.91852 17.7656 10.4598 18.568 10.912C19.3704 11.3641 20.0868 11.6188 20.2014 11.4819C20.3161 11.345 19.3991 10.826 18.8514 10.5108ZM17.7115 8.88369C18.2968 9.0434 18.858 9.28116 19.3799 9.59056C19.9078 9.88363 20.3913 10.2503 20.816 10.6795C21.2904 11.1762 21.4687 11.6825 21.2363 12.0837C20.6982 13.0389 18.8609 12.0296 18.1859 11.6507C17.5109 11.2718 15.7373 10.1605 16.2755 9.2212C16.5079 8.82001 17.0365 8.72448 17.7115 8.88369Z" fill="#3D1B11"/>
<path d="M15.8904 2.21257C15.9241 2.14667 15.9709 2.08832 16.0279 2.04111C16.085 1.9939 16.151 1.95881 16.2221 1.93799C16.2931 1.91717 16.3676 1.91106 16.4411 1.92002C16.5146 1.92899 16.5855 1.95284 16.6494 1.99013C16.7134 2.02741 16.7691 2.07735 16.8131 2.13688C16.8571 2.19642 16.8885 2.2643 16.9053 2.33638C16.9222 2.40846 16.9242 2.48322 16.9112 2.5561C16.8982 2.62897 16.8705 2.69844 16.8297 2.76024L15.088 5.79149C15.015 5.91817 14.8946 6.01063 14.7534 6.04855C14.6122 6.08647 14.4617 6.06673 14.335 5.99368C14.2083 5.92064 14.1159 5.80026 14.0779 5.65904C14.04 5.51782 14.0598 5.36732 14.1328 5.24065L15.8904 2.21257Z" fill="#3D1B11"/>
<path d="M25.5378 6.14854C25.5581 6.11194 25.5854 6.07969 25.6181 6.05364C25.6508 6.02759 25.6884 6.00824 25.7286 5.99671C25.7688 5.98518 25.8109 5.98169 25.8525 5.98643C25.894 5.99117 25.9343 6.00406 25.9708 6.02436C26.009 6.04432 26.0427 6.07181 26.0699 6.10516C26.0971 6.13852 26.1173 6.17704 26.1292 6.21841C26.1411 6.25978 26.1445 6.30314 26.1392 6.34585C26.1338 6.38857 26.1199 6.42977 26.0982 6.46695L25.9167 6.78536L24.5985 9.1193C24.5774 9.15637 24.5491 9.18885 24.5153 9.21478C24.4815 9.24072 24.4427 9.25959 24.4015 9.27028C24.3602 9.28097 24.3172 9.28326 24.275 9.27701C24.2328 9.27077 24.1923 9.25612 24.1559 9.23392C24.0831 9.19192 24.0298 9.12282 24.0077 9.04169C23.9857 8.96057 23.9966 8.874 24.0381 8.80089L25.5378 6.14854Z" fill="#3D1B11"/>
<path d="M25.4649 2.24474C25.4849 2.20787 25.512 2.17531 25.5446 2.14894C25.5773 2.12257 25.6148 2.1029 25.655 2.09107C25.6952 2.07923 25.7374 2.07546 25.7791 2.07997C25.8208 2.08449 25.8612 2.0972 25.898 2.11737C25.9361 2.13733 25.9698 2.16482 25.997 2.19818C26.0243 2.23153 26.0444 2.27006 26.0563 2.31143C26.0682 2.3528 26.0716 2.39615 26.0663 2.43887C26.061 2.48159 26.047 2.52278 26.0254 2.55996L25.8439 2.87837L24.5256 5.20276C24.5057 5.23963 24.4786 5.27218 24.4459 5.29855C24.4133 5.32492 24.3758 5.34459 24.3356 5.35643C24.2954 5.36826 24.2532 5.37203 24.2115 5.36752C24.1698 5.363 24.1294 5.3503 24.0926 5.33012C24.054 5.31018 24.0199 5.28256 23.9924 5.24896C23.9649 5.21536 23.9446 5.17649 23.9327 5.13474C23.9207 5.09299 23.9175 5.04923 23.9231 5.00617C23.9287 4.96311 23.943 4.92166 23.9652 4.88435L25.4649 2.24474Z" fill="#3D1B11"/>
<path d="M21.4625 7.56541C21.4834 7.52861 21.5114 7.4963 21.5448 7.4703C21.5782 7.44431 21.6164 7.42514 21.6572 7.41391C21.698 7.40267 21.7406 7.39958 21.7826 7.40482C21.8246 7.41005 21.8651 7.42351 21.9019 7.44442C21.9387 7.46532 21.9711 7.49327 21.997 7.52667C22.023 7.56006 22.0422 7.59826 22.0534 7.63906C22.0647 7.67986 22.0678 7.72248 22.0625 7.76447C22.0573 7.80647 22.0438 7.84702 22.0229 7.88382L21.8446 8.17994L20.5232 10.5139C20.5032 10.5507 20.4762 10.5833 20.4435 10.6097C20.4109 10.636 20.3734 10.6557 20.3332 10.6676C20.2929 10.6794 20.2508 10.6832 20.2091 10.6786C20.1674 10.6741 20.127 10.6614 20.0902 10.6412C20.0521 10.6213 20.0184 10.5938 19.9911 10.5604C19.9639 10.5271 19.9438 10.4886 19.9318 10.4472C19.9199 10.4058 19.9166 10.3625 19.9219 10.3197C19.9272 10.277 19.9411 10.2358 19.9628 10.1987L21.4625 7.56541Z" fill="#3D1B11"/>
<path d="M24.2393 4.89401C24.3035 4.83785 24.3873 4.80949 24.4724 4.81517C24.5575 4.82084 24.6369 4.86008 24.693 4.92426C24.7492 4.98844 24.7775 5.0723 24.7719 5.15739C24.7662 5.24248 24.727 5.32184 24.6628 5.37799L24.3985 5.60088L22.3702 7.36487C22.3382 7.39247 22.3011 7.41349 22.261 7.42675C22.2209 7.44 22.1786 7.44522 22.1364 7.44212C22.0943 7.43901 22.0532 7.42764 22.0155 7.40865C21.9777 7.38966 21.9441 7.36342 21.9165 7.33143C21.8889 7.29944 21.8679 7.26234 21.8546 7.22222C21.8414 7.18211 21.8361 7.13978 21.8392 7.09764C21.8424 7.05551 21.8537 7.0144 21.8727 6.97666C21.8917 6.93892 21.9179 6.9053 21.9499 6.8777L24.2393 4.89401Z" fill="#3D1B11"/>
<path d="M25.9935 7.20463C26.0193 7.15905 26.0537 7.11899 26.0949 7.08672C26.1361 7.05445 26.1833 7.03062 26.2337 7.01657C26.2841 7.00253 26.3368 6.99855 26.3887 7.00487C26.4407 7.01118 26.4909 7.02767 26.5364 7.05338C26.582 7.0791 26.6221 7.11354 26.6543 7.15474C26.6866 7.19594 26.7105 7.24309 26.7245 7.2935C26.7385 7.34391 26.7425 7.3966 26.7362 7.44855C26.7299 7.5005 26.7134 7.5507 26.6877 7.59627L26.4935 7.97518L25.3122 10.0448C25.2878 10.0911 25.2544 10.1321 25.214 10.1652C25.1735 10.1984 25.1268 10.2231 25.0767 10.238C25.0265 10.2528 24.9739 10.2575 24.9219 10.2516C24.8699 10.2458 24.8197 10.2296 24.774 10.204C24.6813 10.1507 24.6135 10.0628 24.5854 9.95953C24.5574 9.85629 24.5714 9.74614 24.6244 9.6532L25.9935 7.20463Z" fill="#3D1B11"/>
<path d="M25.6241 3.71205C25.6601 3.64933 25.7081 3.59431 25.7653 3.55012C25.8225 3.50594 25.8879 3.47345 25.9577 3.45453C26.0274 3.43561 26.1003 3.43061 26.172 3.43983C26.2437 3.44905 26.3129 3.47231 26.3756 3.50827C26.4383 3.54423 26.4933 3.59219 26.5375 3.64942C26.5817 3.70664 26.6142 3.77201 26.6331 3.84179C26.652 3.91157 26.657 3.98439 26.6478 4.05609C26.6386 4.1278 26.6153 4.19699 26.5794 4.25972L25.6496 5.85176L24.6944 5.31365L25.6241 3.71205ZM20.3545 0.671243C20.3904 0.608522 20.4384 0.553498 20.4956 0.509313C20.5529 0.465128 20.6182 0.432647 20.688 0.413724C20.7578 0.394801 20.8306 0.389806 20.9023 0.399027C20.974 0.408247 21.0432 0.431501 21.1059 0.467462C21.1686 0.503422 21.2237 0.551384 21.2679 0.608609C21.312 0.665835 21.3445 0.7312 21.3634 0.800978C21.3824 0.870757 21.3874 0.94358 21.3781 1.01529C21.3689 1.087 21.3457 1.15619 21.3097 1.21891L20.3895 2.81095L19.4502 2.26329L20.3545 0.671243Z" fill="#3D1B11"/>
<path d="M26.5189 8.35794C26.5551 8.29522 26.6033 8.24024 26.6607 8.19614C26.7181 8.15203 26.7837 8.11966 26.8536 8.10089C26.9235 8.08211 26.9965 8.0773 27.0682 8.08671C27.14 8.09613 27.2093 8.11959 27.272 8.15576C27.3347 8.19193 27.3897 8.24009 27.4338 8.29751C27.4779 8.35493 27.5103 8.42047 27.529 8.4904C27.5478 8.56032 27.5526 8.63327 27.5432 8.70505C27.5338 8.77684 27.5103 8.84607 27.4742 8.90879L25.7197 11.9369C25.646 12.0614 25.5263 12.1522 25.3865 12.1897C25.2466 12.2272 25.0977 12.2084 24.9715 12.1375C24.8472 12.0633 24.7574 11.9429 24.7216 11.8027C24.6858 11.6625 24.707 11.5139 24.7804 11.3892L26.5189 8.35794Z" fill="#3D1B11"/>
<path d="M17.304 13.1344C16.9856 12.9466 16.6481 12.7778 16.3106 12.6186C16.1546 12.5454 15.7629 12.3862 15.6992 12.2365C15.6674 12.1633 15.8043 12.0996 15.9635 12.0996C16.2213 12.1045 16.4773 12.1441 16.7245 12.2174C17.1154 12.3318 17.4992 12.4689 17.874 12.6282C18.2583 12.7905 18.6316 12.9777 18.9916 13.1886C19.329 13.3973 19.6486 13.6338 19.9468 13.8954C20.3066 14.2139 20.7588 14.6119 20.9912 14.8125L21.2141 15.0258C22.2544 16.2732 23.0272 17.7211 23.4843 19.2797C23.9278 20.7236 24.069 22.2434 23.8992 23.7443C23.7293 25.2452 23.252 26.6949 22.4971 28.0032C21.7421 29.3115 20.7257 30.4501 19.5112 31.3482C18.2967 32.2462 16.9102 32.8844 15.4381 33.2229C12.3907 33.9265 9.18981 33.4488 6.48065 31.8859C3.7715 30.3231 1.75552 27.7913 0.839085 24.801C0.396185 23.3562 0.255683 21.8357 0.426333 20.3343C0.596982 18.8328 1.07513 17.3826 1.83096 16.0741C2.58678 14.7656 3.60408 13.6269 4.81941 12.7288C6.03475 11.8308 7.42206 11.1928 8.89484 10.8546C9.95144 10.6014 11.0378 10.4942 12.1235 10.5362C11.7827 10.6334 11.4478 10.7504 11.1205 10.8865C10.6461 11.0871 10.541 11.2749 10.455 11.5392C10.4324 11.5903 10.4153 11.6437 10.4041 11.6984C9.98138 11.7515 9.5616 11.8259 9.14638 11.9213C7.81937 12.2271 6.5695 12.8028 5.47454 13.6124C4.37957 14.4221 3.46294 15.4484 2.78168 16.6275C2.10042 17.8067 1.66911 19.1134 1.51459 20.4664C1.36006 21.8194 1.48562 23.1897 1.88347 24.4921C2.71712 27.2181 4.55377 29.5264 7.02276 30.9511C9.49175 32.3759 12.4093 32.8111 15.1866 32.1689C16.5148 31.8651 17.7659 31.2904 18.8617 30.4808C19.9575 29.6712 20.8744 28.644 21.555 27.4637C22.2355 26.2834 22.6651 24.9753 22.8169 23.6214C22.9686 22.2674 22.8392 20.8966 22.4368 19.595C21.6241 16.8596 19.7848 14.5446 17.304 13.1344Z" fill="#3D1B11"/>
<path d="M12.6169 21.7852C11.5598 21.1707 10.9262 20.0308 10.3148 18.945C9.55381 17.5918 8.84695 16.3245 7.44913 16.8021C7.05757 16.946 6.69032 17.1489 6.36017 17.4039C6.06166 17.6413 5.80822 17.9303 5.61191 18.2573C5.13722 19.0788 4.83582 19.9888 4.7263 20.9313C4.61677 21.8737 4.70145 22.8286 4.97509 23.7371C5.55745 25.6382 6.83824 27.2481 8.55972 28.2429C10.2812 29.2378 12.3156 29.5437 14.2535 29.0991C15.1778 28.8837 16.0482 28.4813 16.811 27.9167C17.5738 27.3521 18.2129 26.6373 18.689 25.8163C19.1916 24.8628 19.497 23.8178 19.5869 22.7436C19.6283 22.0177 19.5423 21.4031 19.2366 21.193C18.8577 20.9383 18.1604 21.2344 17.3485 21.5623C15.9857 22.1323 14.3713 22.8073 12.5978 21.7852H12.6169ZM13.1232 20.9064C14.4318 21.6674 15.8169 21.0338 16.9441 20.5594C18.0299 20.104 18.9787 19.7156 19.8352 20.2855C20.5421 20.7504 20.7523 21.7311 20.6695 22.8169C20.5742 24.057 20.2253 25.2643 19.6442 26.364C19.0929 27.3124 18.3534 28.138 17.4713 28.7901C16.5892 29.4423 15.583 29.9072 14.5146 30.1562C12.3061 30.6712 9.98439 30.327 8.02019 29.1936C6.056 28.0601 4.59631 26.2221 3.93708 24.0523C3.06145 21.0975 3.832 17.1492 7.08296 16.0316C10.4836 14.8598 10.872 19.62 13.1104 20.9064H13.1232Z" fill="#3D1B11"/>
<path d="M10.0412 11.7343C9.89853 11.7486 9.75603 11.7056 9.64499 11.6148C9.53395 11.5241 9.46346 11.393 9.44899 11.2504C9.41715 10.9542 9.13057 10.8364 9.49356 10.7313C10.2418 10.5944 11.0028 10.5212 11.4773 10.4129C12.0739 10.2814 12.6472 10.0603 13.1776 9.75701C14.0001 9.26547 14.6123 8.4877 14.897 7.57272C14.9175 7.50281 14.9518 7.43773 14.998 7.38134C15.0441 7.32495 15.1011 7.27839 15.1656 7.24442C15.23 7.21046 15.3007 7.18977 15.3733 7.1836C15.4459 7.17742 15.519 7.18589 15.5882 7.20848C15.6575 7.23107 15.7215 7.26734 15.7765 7.31513C15.8315 7.36292 15.8764 7.42126 15.9084 7.4867C15.9405 7.55214 15.959 7.62335 15.963 7.6961C15.9671 7.76885 15.9564 7.84167 15.9318 7.91024C15.5739 9.07868 14.7896 10.0698 13.7348 10.6868C12.7445 11.2886 11.5059 11.6038 10.0412 11.7407V11.7343Z" fill="#3D1B11"/>
<path d="M23.1306 18.2701C23.1612 18.3351 23.1786 18.4055 23.1818 18.4772C23.1851 18.549 23.1741 18.6206 23.1495 18.6881C23.125 18.7556 23.0873 18.8175 23.0387 18.8704C22.9901 18.9233 22.9315 18.966 22.8663 18.9961C22.7332 19.0556 22.582 19.0602 22.4455 19.009C22.309 18.9577 22.1982 18.8547 22.1372 18.7223C21.5354 17.3913 21.1819 16.1559 21.2106 14.9969C21.219 13.7715 21.6898 12.5945 22.5288 11.7014C22.6268 11.595 22.763 11.5318 22.9075 11.5259C23.052 11.5199 23.193 11.5716 23.2994 11.6695C23.4058 11.7675 23.4689 11.9037 23.4749 12.0482C23.4808 12.1927 23.4292 12.3337 23.3312 12.4401C22.6782 13.1403 22.3093 14.0586 22.2964 15.016C22.3371 16.1481 22.6217 17.2581 23.1306 18.2701Z" fill="#3D1B11"/>
<path d="M15.7409 21.0236C15.8076 20.9982 15.8786 20.9863 15.9499 20.9885C16.0212 20.9908 16.0913 21.0073 16.1562 21.0369C16.2211 21.0665 16.2794 21.1087 16.3279 21.1611C16.3763 21.2135 16.4138 21.275 16.4382 21.342C16.5433 21.619 16.7885 22.4501 16.5019 22.5583C15.1726 23.0528 13.729 23.1545 12.3435 22.8513C10.9875 22.5929 9.76948 21.8562 8.91104 20.7752C8.74935 20.547 8.6117 20.3027 8.50029 20.0461C8.4366 19.9092 8.45889 19.8359 8.50029 19.8359C8.54168 19.8359 8.62766 19.8773 8.75502 19.9824C8.91666 20.1327 9.08906 20.2711 9.27084 20.3963C9.53394 20.5676 9.80962 20.7188 10.0955 20.8485C10.3859 20.9784 10.6861 21.0849 10.9934 21.1669C12.3339 21.5458 14.5182 21.4853 15.7314 21.03L15.7409 21.0236Z" fill="#3D1B11"/>
<path d="M17.1356 19.2515C15.862 18.5319 14.3591 16.7043 15.499 15.0804C16.5752 13.552 19.5205 14.1251 19.3613 17.6881C19.3422 18.2995 19.183 18.9873 18.6672 19.3248C18.1832 19.6432 17.6323 19.5254 17.1484 19.2515H17.1356ZM17.3139 17.8792C17.419 17.962 17.8107 18.2485 17.9508 18.1753C18.2023 18.0066 18.3742 15.8191 17.1802 15.628C16.4829 15.5102 15.6901 16.5833 17.3267 17.876L17.3139 17.8792Z" fill="#3D1B11"/>
<path fill-rule="evenodd" clip-rule="evenodd" d="M15.8167 8.21832C15.8914 8.05961 15.948 7.89299 15.9855 7.7216C16.032 7.47077 16.0501 7.2155 16.0396 6.96061C16.0339 6.72477 15.9942 6.49099 15.9218 6.26647C15.8581 6.08498 15.7658 5.9799 15.6893 5.94806C15.6129 5.91622 15.5524 6.00219 15.5015 6.12956C15.4505 6.25692 15.4059 6.44797 15.2881 6.70907C15.1703 6.97016 15.0143 7.36498 14.8678 7.78528C14.7214 8.20559 14.6036 8.65136 14.6991 8.8838C14.7946 9.11623 15.1003 9.09395 15.2881 9.01116C15.4523 8.92487 15.58 8.78249 15.6479 8.60996C15.7212 8.47305 15.7658 8.35524 15.8294 8.21832H15.8167Z" fill="#3D1B11"/>
<path fill-rule="evenodd" clip-rule="evenodd" d="M22.3061 11.9654C22.4113 11.8192 22.5319 11.6846 22.6659 11.5642C22.8614 11.403 23.0752 11.2651 23.3027 11.1535C23.5061 11.0445 23.7221 10.9611 23.9459 10.9051C24.0093 10.8867 24.0759 10.8821 24.1412 10.8914C24.2065 10.9007 24.2691 10.9239 24.3248 10.9593C24.3789 11.0134 24.3471 11.1057 24.2707 11.214C24.1943 11.3222 24.0605 11.4432 23.8695 11.6757C23.6784 11.9081 23.4396 12.2584 23.1531 12.5863C22.8665 12.9143 22.5162 13.2486 22.287 13.2805C22.0577 13.3123 21.9081 13.0385 21.8858 12.8283C21.8721 12.6454 21.9291 12.4642 22.045 12.3221C22.1278 12.1947 22.2042 12.0896 22.2965 11.9718L22.3061 11.9654Z" fill="#3D1B11"/>
<path fill-rule="evenodd" clip-rule="evenodd" d="M18.931 4.59682C18.8355 4.37758 18.7982 4.13738 18.8228 3.8995C18.867 3.55855 18.967 3.22722 19.1189 2.9188C19.217 2.70804 19.3909 2.54204 19.6061 2.45392C19.7721 2.41119 19.9463 2.41119 20.1123 2.45392C20.2493 2.47303 20.3352 2.5176 20.3225 2.63223C20.2871 2.81563 20.2271 2.99341 20.1442 3.16079C20.0498 3.36758 19.9689 3.5803 19.9022 3.79761C19.8385 3.98547 19.8067 4.15741 19.7621 4.30388C19.7175 4.45035 19.7111 4.57771 19.6793 4.68279C19.6691 4.76987 19.6398 4.8536 19.5933 4.92796C19.5754 4.94885 19.5528 4.96521 19.5273 4.97572C19.5019 4.98623 19.4743 4.9906 19.4469 4.98846C19.357 4.9868 19.2692 4.96154 19.1921 4.91522C19.0756 4.83721 18.9847 4.72641 18.931 4.59682Z" fill="#3D1B11"/>
<path fill-rule="evenodd" clip-rule="evenodd" d="M23.8599 7.37316C24.1018 7.3549 24.3331 7.26636 24.5254 7.11843C24.8247 6.89395 25.0906 6.62808 25.315 6.32877C25.482 6.15158 25.5734 5.9163 25.5698 5.67285C25.5476 5.50702 25.4741 5.35227 25.3596 5.23026C25.2641 5.12518 25.1909 5.07106 25.0953 5.13474C24.9242 5.27793 24.7713 5.44153 24.64 5.62191C24.4076 5.87345 24.0701 6.20141 23.8504 6.40201C23.6307 6.6026 23.5319 6.68858 23.4364 6.78091C23.3604 6.85143 23.2969 6.93433 23.2486 7.02609C23.235 7.05387 23.228 7.08435 23.228 7.11525C23.228 7.14614 23.235 7.17662 23.2486 7.2044C23.2894 7.2702 23.3528 7.31887 23.4269 7.34131C23.5672 7.38302 23.715 7.39388 23.8599 7.37316Z" fill="#3D1B11"/>
<path fill-rule="evenodd" clip-rule="evenodd" d="M22.2967 9.89562C22.3048 9.64408 22.2802 9.39254 22.2234 9.14736C22.182 8.93721 22.1183 8.85123 22.0547 8.82895C21.991 8.80666 21.9178 8.82895 21.7999 9.0391C21.2618 9.99432 20.8097 10.6311 20.3353 11.4335C20.263 11.5587 20.2422 11.707 20.2773 11.8472C20.3123 11.9874 20.4005 12.1085 20.5231 12.185C20.7874 12.3314 21.0294 12.376 21.1981 12.1309C21.663 11.494 22.2871 10.749 22.2967 9.90199V9.89562ZM17.2594 9.66318C17.2252 9.72592 17.1788 9.78126 17.123 9.82599C17.0673 9.87072 17.0032 9.90396 16.9345 9.9238C16.8659 9.94363 16.7939 9.94967 16.7229 9.94155C16.6519 9.93344 16.5831 9.91133 16.5207 9.87652C16.2564 9.72686 16.1068 9.66318 16.2023 9.3384C16.4316 8.63153 16.9092 7.61581 17.6033 7.19551C17.8208 7.06556 18.0513 6.95884 18.2911 6.8771C18.4917 6.81342 18.6095 6.82616 18.6509 6.8771C18.6923 6.92805 18.7018 6.99173 18.5967 7.19551C18.186 8.01701 17.6797 8.89263 17.2467 9.66318H17.2594Z" fill="#3D1B11"/>
<path fill-rule="evenodd" clip-rule="evenodd" d="M8.0256 11.0977C2.93105 13.4316 0.269149 19.4591 1.92488 24.7893C2.73393 27.375 4.44951 29.5816 6.756 31.0032C9.0625 32.4247 11.8047 32.9655 14.4783 32.5262C17.1518 32.0868 19.5767 30.6967 21.3069 28.6118C23.0371 26.5268 23.9562 23.8872 23.8951 21.1785C24.1729 24.0906 23.3475 27.0009 21.5821 29.3335C19.8167 31.6661 17.24 33.2511 14.3619 33.7748C7.50022 35.0484 1.14478 30.7753 0.144971 23.5666C-0.701998 17.59 2.19234 12.7406 8.03834 11.1072L8.0256 11.0977Z" fill="#3D1B11"/>
<path fill-rule="evenodd" clip-rule="evenodd" d="M15.8899 6.3808C15.9923 6.60294 16.0392 6.84659 16.0268 7.09086C16.0328 7.48468 15.9933 7.87786 15.909 8.2626C15.7576 8.99413 15.4198 9.67414 14.9283 10.2367C14.6913 10.5133 14.4132 10.7517 14.1036 10.9436C13.7529 11.1578 13.3733 11.3208 12.9764 11.4276C12.5021 11.5594 12.0174 11.651 11.5277 11.7014C10.98 11.7778 10.3687 11.8288 9.86239 11.8925C9.38818 11.9488 8.91882 12.0403 8.45821 12.1663C7.9298 12.3191 7.41445 12.514 6.91711 12.749C6.43622 12.9817 5.96755 13.2389 5.51292 13.5195C5.24981 13.706 4.95212 13.8381 4.6373 13.908C4.44625 13.908 4.36029 13.7711 4.58317 13.5386C5.03254 13.1736 5.52959 12.8715 6.06059 12.6407C6.89787 12.232 7.76164 11.8799 8.64608 11.5868C9.6618 11.2493 10.8113 10.9309 11.7092 10.7207C12.3883 10.5865 13.055 10.3958 13.7024 10.1508C14.1358 9.95624 14.4976 9.63118 14.7372 9.22102C14.9467 8.8138 15.1162 8.38726 15.2435 7.94738C15.3709 7.53663 15.4982 7.19912 15.5619 6.9221C15.6256 6.64509 15.6256 6.44767 15.667 6.35215C15.7084 6.25663 15.8167 6.25981 15.8899 6.38399V6.3808Z" fill="#3D1B11"/>
<path fill-rule="evenodd" clip-rule="evenodd" d="M16.448 12.1576C16.7027 12.2085 17.1262 12.2945 17.5783 12.4314C18.0499 12.581 18.5062 12.775 18.9411 13.0109C19.3786 13.2539 19.795 13.533 20.1861 13.8451C20.5555 14.1317 20.8516 14.3832 21.1063 14.6157C21.3204 14.8108 21.5175 15.0239 21.6954 15.2525C21.8126 15.383 21.8899 15.5443 21.9183 15.7174C21.9374 15.8638 21.9183 15.9817 21.8004 16.0358C21.6826 16.0899 21.5489 16.0581 21.3069 15.8893C21.0649 15.7206 20.7465 15.3799 20.2721 14.95C19.2689 13.9702 18.0948 13.1824 16.8078 12.6256C16.3652 12.425 16.1423 12.3422 16.0372 12.2786C15.9322 12.2149 15.9099 12.1735 15.9322 12.1512C15.9544 12.1289 15.9958 12.1289 16.0595 12.1289C16.1908 12.1309 16.3212 12.1491 16.448 12.183V12.1576Z" fill="#3D1B11"/>
<path d="M12.3114 22.3225C9.30242 20.5903 9.4075 15.5244 6.6851 17.6992C5.63753 18.5207 5.28092 19.9981 5.1631 21.0011C4.49763 26.8917 11.8497 30.9991 16.5876 27.4934C17.2796 26.9642 17.8556 26.2987 18.28 25.538C18.7045 24.7772 18.9683 23.9375 19.0553 23.0707C19.2877 21.0552 18.2752 21.9308 16.8264 22.4339C13.4163 23.6598 13.0883 22.3097 12.2987 22.3097L12.3114 22.3225ZM10.8531 18.6385C11.423 19.6606 12.0248 20.7177 12.9323 21.2431C15.5942 22.7746 18.1064 19.6829 19.5934 20.6731C20.9148 21.5392 19.9118 24.9716 19.2463 26.1338C15.7852 32.1295 6.39853 30.7126 4.39255 23.905C3.6029 21.2144 4.24608 17.2184 7.25823 16.1995C9.13685 15.5627 10.0762 17.2439 10.8563 18.6289L10.8531 18.6385Z" fill="#3D1B11"/>
<path fill-rule="evenodd" clip-rule="evenodd" d="M3.97193 17.0437C3.92735 16.9482 4.15024 16.5374 4.56099 16.0503C5.0595 15.4787 5.62749 14.9717 6.25174 14.541C6.89975 14.0903 7.60278 13.7243 8.34369 13.452C8.93843 13.2377 9.5527 13.082 10.1777 12.9872C10.5217 12.9099 10.8773 12.8991 11.2253 12.9553C11.4735 13.0129 11.7041 13.1299 11.8971 13.2963C12.0902 13.4627 12.2399 13.6735 12.3334 13.9106C12.3534 13.958 12.3633 14.0091 12.3622 14.0605C12.3612 14.112 12.3493 14.1627 12.3274 14.2093C12.3055 14.2558 12.274 14.2972 12.2349 14.3308C12.1959 14.3644 12.1502 14.3894 12.1009 14.4041C11.69 14.5524 11.2621 14.6487 10.8273 14.6907C10.2669 14.7639 9.62369 14.8499 8.91682 15.0091C8.1795 15.1793 7.45579 15.4038 6.75164 15.6809C6.09306 15.9538 5.45464 16.273 4.84119 16.6361C4.33492 16.9195 4.02925 17.1424 3.98785 17.0469L3.97193 17.0437Z" fill="white"/>
<path fill-rule="evenodd" clip-rule="evenodd" d="M13.5884 14.0035C13.376 13.92 13.1846 13.7906 13.028 13.6246C12.8817 13.4669 12.7642 13.2848 12.681 13.0864C12.6173 12.9272 12.6268 12.8317 12.681 12.768C12.7645 12.6706 12.8755 12.6007 12.9994 12.5674C13.2164 12.4866 13.4436 12.4363 13.6744 12.4178C13.9759 12.3957 14.2789 12.4215 14.5723 12.4942C14.8167 12.5579 15.0432 12.6766 15.2346 12.8413C15.3957 12.9685 15.5081 13.1473 15.553 13.3475C15.5714 13.4488 15.5576 13.5533 15.5136 13.6464C15.4697 13.7394 15.3977 13.8164 15.3078 13.8665C15.0248 14.0294 14.7074 14.1232 14.3813 14.1404C14.1105 14.1638 13.8382 14.12 13.5884 14.013V14.0035Z" fill="white"/>
</svg>
