<svg width="33" height="33" viewBox="0 0 33 33" fill="none" xmlns="http://www.w3.org/2000/svg">
<path d="M30.6651 15.8429C30.1943 10.4523 27.9558 3.01652 17.8883 3L14.3364 3.29737C22.7948 3.04791 26.4921 9.88403 26.8919 16.5781C27.2636 22.8112 25.4943 28.9436 20.3135 30.6848L23.5531 30.0736C28.9834 29.1022 31.174 21.668 30.6651 15.8429Z" fill="#E59500"/>
<g style="mix-blend-mode:multiply" opacity="0.32">
<path d="M17.9057 3.2168L17.1475 3.27957C19.8806 3.74798 22.3283 5.25137 23.9819 7.4774L28.345 8.49505C26.2849 4.99604 22.7925 3.22506 17.9057 3.2168Z" fill="#DB7005"/>
</g>
<g style="mix-blend-mode:multiply" opacity="0.63">
<path d="M30.4496 15.8621C30.33 14.3192 30.0414 12.794 29.5889 11.3141L25.7793 10.6367C26.4505 12.2886 26.8779 14.0294 27.0481 15.8043L30.4612 15.9695C30.4562 15.9381 30.4529 15.9001 30.4496 15.8621Z" fill="#DB7005"/>
</g>
<path d="M27.1494 17.9617C27.1933 19.9699 26.9423 21.9737 26.4043 23.909L29.5349 23.648C30.1588 21.8133 30.4932 19.8927 30.5261 17.9551L27.1494 17.9617Z" fill="#FFDD92"/>
<g style="mix-blend-mode:multiply" opacity="0.63">
<path d="M25.6573 25.9066C24.7833 27.7684 23.5476 29.2106 21.9897 30.1474L23.5129 29.8599C25.9232 29.432 27.7405 27.6148 28.9283 25.1582L25.6573 25.9066Z" fill="#DB7005"/>
</g>
<path d="M12.7882 3.44709C22.5005 2.13372 26.6802 9.44563 27.1113 16.5808C27.5425 23.7159 25.1537 30.7338 18.045 31.1567C10.9363 31.5796 2.65295 26.5706 2.22672 19.4272C1.8005 12.2838 5.73234 4.40362 12.7882 3.44709Z" fill="#FFDD92"/>
<path d="M12.5978 3.44525C22.3101 2.13188 26.4898 9.43718 26.9143 16.5789C27.3389 23.7207 24.9633 30.7319 17.8496 31.1548C10.736 31.5778 2.45761 26.5688 2.03139 19.427C1.60516 12.2853 5.54031 4.40178 12.5978 3.44525Z" fill="#FFC227"/>
<path d="M26.7197 17.8837L2.77677 13.752C2.50181 14.8281 2.32324 15.9267 2.24316 17.0345L25.9796 23.7633C26.5077 21.8492 26.757 19.8689 26.7197 17.8837Z" fill="#FFDD92"/>
<path d="M16.978 28.5947C11.3924 28.5947 4.90818 24.61 4.58769 19.2756C4.24241 13.4934 7.33007 6.768 12.9189 6.01137C13.5365 5.92682 14.159 5.88322 14.7824 5.88086C23.0195 5.88086 24.1544 14.1889 24.3064 16.7347C24.4716 19.4094 24.4584 28.1701 17.6685 28.5749C17.4438 28.5881 17.2109 28.5947 16.978 28.5947Z" fill="#FFDD92"/>
<path d="M16.9776 28.8107C11.2963 28.8107 4.69802 24.7385 4.37422 19.2884C4.02234 13.4022 7.18268 6.56773 12.8905 5.79788C13.5179 5.71148 14.1504 5.66678 14.7837 5.66406C23.2091 5.66406 24.3655 14.1274 24.5307 16.7211C24.6959 19.447 24.681 28.3729 17.6913 28.7893C17.4501 28.8041 17.2138 28.8107 16.9776 28.8107Z" fill="#FFDD92"/>
<g style="mix-blend-mode:multiply" opacity="0.63">
<path d="M16.978 28.5947C11.3924 28.5947 4.90818 24.61 4.58769 19.2756C4.24241 13.4934 7.33007 6.768 12.9189 6.01137C13.5365 5.92682 14.159 5.88322 14.7824 5.88086C23.0195 5.88086 24.1544 14.1889 24.3064 16.7347C24.4716 19.4094 24.4584 28.1701 17.6685 28.5749C17.4438 28.5881 17.2109 28.5947 16.978 28.5947Z" fill="#DB7005"/>
</g>
<g style="mix-blend-mode:multiply" opacity="0.63">
<path d="M6.95701 19.2756C6.6266 13.4852 9.70434 6.768 15.2932 6.01137C15.503 5.98329 15.7111 5.96181 15.9177 5.94198C15.5412 5.90261 15.1629 5.88221 14.7844 5.88086C14.161 5.88322 13.5385 5.92682 12.9209 6.01137C7.33202 6.768 4.24437 13.4852 4.58964 19.2756C4.90848 24.61 11.3927 28.5947 16.9799 28.5947C17.2128 28.5947 17.4458 28.5947 17.6721 28.5749C17.8373 28.565 17.9827 28.5501 18.1347 28.5319C12.863 28.0115 7.25768 24.2251 6.95701 19.2756Z" fill="#DB7005"/>
</g>
<g style="mix-blend-mode:multiply" opacity="0.63">
<path d="M19.917 16.5381L18.379 15.684C18.2962 16.0918 18.1531 16.4849 17.9544 16.8504C17.7368 17.2443 17.458 17.6012 17.1284 17.9077C16.8184 18.2001 16.4644 18.4421 16.0793 18.6247C15.7079 18.8009 15.3078 18.9089 14.8981 18.9435C14.4792 18.9777 14.0577 18.9266 13.6591 18.7932L13.9796 24.7306L12.2863 23.9178L12.1343 23.067L12.3722 17.0602L13.3353 17.5954C13.6376 17.7688 13.9782 17.8641 14.3265 17.873C14.6667 17.8796 15.0045 17.8143 15.3178 17.6813C15.64 17.5428 15.9362 17.35 16.1933 17.1114C16.4633 16.8607 16.6914 16.5685 16.869 16.2457C16.9724 16.0601 17.0545 15.8634 17.1135 15.6593C17.1725 15.4586 17.2123 15.2529 17.2325 15.0447L13.5253 13.0177L13.1949 12.3568L14.1977 12.5072L17.1895 14.1691C17.1179 13.8229 16.9793 13.494 16.7815 13.201C16.5879 12.9109 16.3272 12.6717 16.0215 12.5039L14.3364 11.5622L13.9829 10.9328L15.1592 10.7676L20.6109 13.3481L21.2519 14.1493L20.8818 14.8101L18.1411 13.2952C18.247 13.5447 18.3251 13.8051 18.374 14.0716C18.4239 14.3363 18.4482 14.6052 18.4467 14.8745L19.6378 15.091L20.2788 15.8889L19.917 16.5381Z" fill="#DB7005"/>
</g>
<path d="M12.1591 23.0482L11.7593 16.298L12.6811 16.8118C12.9887 16.9858 13.334 17.0822 13.6872 17.0926H13.7384C14.0642 17.092 14.3866 17.0263 14.6867 16.8993C15.0125 16.7605 15.3115 16.566 15.5705 16.3244C15.8411 16.0714 16.0697 15.7769 16.2479 15.4522C16.3517 15.2652 16.4348 15.0674 16.4957 14.8624C16.5544 14.6594 16.5942 14.4515 16.6146 14.2412V14.233L13.223 12.3414L13.5534 11.7318L16.5832 13.4069L16.5717 13.3524C16.4989 13.0037 16.3598 12.6723 16.162 12.3761C15.9654 12.0832 15.7014 11.8418 15.3921 11.6723L14.016 10.9124L14.5264 9.99219L20.5712 13.3508L20.2243 13.9752L17.4489 12.4339L17.4786 12.5C17.5832 12.7457 17.6602 13.0022 17.7083 13.2649C17.7585 13.5295 17.7828 13.7984 17.7809 14.0678V14.0826L19.5982 15.0953L19.2678 15.7049L17.7231 14.8475V14.8789C17.6404 15.2833 17.4979 15.673 17.3002 16.0353C17.0852 16.4269 16.8098 16.782 16.4841 17.0877C16.1759 17.378 15.8242 17.6182 15.4417 17.7997C15.0722 17.9746 14.6744 18.082 14.2671 18.1169C14.1828 18.1169 14.1019 18.1268 14.0127 18.1268C13.6816 18.1238 13.3531 18.068 13.0396 17.9616L13.0049 17.95L13.3353 23.6975L12.1591 23.0482Z" fill="#FFC227"/>
<path d="M14.5361 10.0275L20.5363 13.3613L20.2059 13.9411L17.5296 12.4477L17.404 12.3767L17.4602 12.5105C17.5631 12.7545 17.64 13.0087 17.6898 13.2688C17.7382 13.5303 17.762 13.7958 17.7609 14.0617V14.0915L17.7873 14.1063L19.5748 15.0976L19.2609 15.6642L17.7741 14.8382L17.7146 14.8068L17.7014 14.8712C17.6194 15.2753 17.478 15.665 17.2818 16.0277C17.0675 16.4163 16.7938 16.7692 16.4706 17.0734C16.164 17.3616 15.8146 17.6007 15.4348 17.7821C15.0677 17.955 14.6728 18.0613 14.2685 18.096C14.1842 18.096 14.1033 18.1059 14.0174 18.1059C13.688 18.102 13.3613 18.0462 13.0493 17.9407L12.9815 17.9176V17.9903L13.312 23.6568L12.1869 23.0323L11.7904 16.3415L12.6743 16.8372C12.9851 17.0137 13.3346 17.1113 13.6919 17.1213H13.7431C14.0725 17.1212 14.3985 17.0543 14.7013 16.9247C15.0296 16.7854 15.331 16.5897 15.5918 16.3465C15.8644 16.0912 16.0952 15.7946 16.2757 15.4676C16.3799 15.2791 16.463 15.0796 16.5235 14.8729C16.5826 14.6688 16.623 14.4598 16.6441 14.2484V14.2154L16.6144 14.2005L13.2558 12.3321L13.5647 11.7654L16.5235 13.4075L16.6193 13.4604L16.5962 13.353C16.5236 12.9988 16.3828 12.6622 16.1815 12.3618C15.9823 12.0657 15.7156 11.8211 15.4034 11.6481L14.0504 10.8964L14.5361 10.0209M14.5179 9.95312L13.9827 10.9295L15.382 11.6993C15.6877 11.8672 15.9484 12.1063 16.1419 12.3965C16.3388 12.6894 16.4773 13.0175 16.5499 13.3629L13.5515 11.6993L13.1897 12.3502L16.5896 14.2335C16.5695 14.4417 16.5297 14.6475 16.4706 14.8481C16.4116 15.0522 16.3296 15.249 16.2261 15.4346C16.0481 15.7599 15.8188 16.0544 15.5472 16.3069C15.292 16.5448 14.9981 16.7376 14.6782 16.8768C14.3809 17.003 14.0612 17.0682 13.7382 17.0684H13.687C13.3389 17.0576 12.9988 16.9624 12.6957 16.7909L11.731 16.2556L12.1341 23.0637L13.3615 23.7443L13.0311 17.9886C13.3505 18.0966 13.6852 18.1524 14.0223 18.1538C14.1066 18.1538 14.1875 18.1538 14.2767 18.1439C14.6868 18.1086 15.0874 18.0007 15.4596 17.8251C15.8447 17.6425 16.1987 17.4005 16.5086 17.1081C16.8386 16.8014 17.1175 16.4439 17.3347 16.0491C17.5339 15.6839 17.677 15.2907 17.7592 14.8828L19.2973 15.7369L19.6591 15.086L17.8055 14.0683C17.8069 13.7996 17.7826 13.5312 17.7328 13.2671C17.6834 13.0028 17.6053 12.7446 17.4999 12.4973L20.234 14.0155L20.604 13.3547L14.5179 9.95973V9.95312Z" fill="#FFDD92"/>
</svg>
