<svg width="41" height="47" viewBox="0 0 41 47" fill="none" xmlns="http://www.w3.org/2000/svg">
<path d="M26.3326 21.1909C26.2527 20.8995 26.281 20.589 26.4121 20.3167C26.4658 20.1863 26.5498 20.0705 26.6572 19.979C26.7642 19.8699 26.8928 19.7842 27.0347 19.7273C27.1811 19.6585 27.3376 19.6138 27.4983 19.5948C27.6588 19.5752 27.8212 19.5752 27.9817 19.5948C28.1447 19.6105 28.3022 19.662 28.443 19.7456C28.5839 19.8291 28.7045 19.9427 28.7963 20.0783C28.8852 20.2249 28.9375 20.3907 28.9486 20.5618C28.9481 20.7457 28.9122 20.9279 28.8427 21.0982C28.7622 21.2819 28.6501 21.45 28.5115 21.5949C28.3596 21.7423 28.1823 21.8612 27.9883 21.9459C27.8202 22.0237 27.6371 22.064 27.4519 22.064C27.2666 22.064 27.0836 22.0237 26.9154 21.9459C26.7692 21.8701 26.6413 21.7632 26.5407 21.6328C26.44 21.5024 26.369 21.3516 26.3326 21.1909Z" fill="#F8C465"/>
<g style="mix-blend-mode:multiply" opacity="0.55">
<path d="M26.9156 20.5419C27.234 20.4483 27.5746 20.4646 27.8826 20.5883C28.2043 20.7086 28.5041 20.8808 28.77 21.0982L28.823 21.1446C28.9024 20.9673 28.9452 20.7758 28.9488 20.5816C28.9429 20.4034 28.8904 20.2299 28.7965 20.0783C28.7047 19.9427 28.584 19.8291 28.4432 19.7456C28.3024 19.662 28.1449 19.6105 27.9819 19.5948C27.8213 19.5752 27.659 19.5752 27.4984 19.5948C27.3378 19.6138 27.1812 19.6585 27.0348 19.7273C26.8015 19.8207 26.6039 19.9859 26.4705 20.199C26.3372 20.4121 26.2751 20.6621 26.2931 20.9128C26.4831 20.7619 26.6925 20.6372 26.9156 20.5419Z" fill="#F8C465"/>
</g>
<path d="M24.0287 22.4213C24.0533 22.1126 24.1927 21.8243 24.4194 21.6133C24.4733 21.5619 24.5334 21.5174 24.5982 21.4809C24.6587 21.4413 24.7231 21.408 24.7903 21.3815C24.8621 21.3495 24.9378 21.3272 25.0155 21.3153C25.091 21.2941 25.1689 21.2829 25.2473 21.2822C25.5809 21.271 25.9103 21.3586 26.1943 21.5339C26.346 21.612 26.4762 21.7263 26.5732 21.8666C26.6703 22.007 26.7314 22.169 26.751 22.3385C26.7706 22.5081 26.7483 22.6798 26.6858 22.8386C26.6234 22.9974 26.5228 23.1384 26.393 23.2492C26.3247 23.3162 26.2517 23.3781 26.1745 23.4346C26.0919 23.4853 26.0055 23.5296 25.9162 23.5671C25.7296 23.6544 25.5261 23.6996 25.3201 23.6995C25.1376 23.706 24.9557 23.6746 24.7859 23.6073C24.6161 23.5401 24.462 23.4384 24.3333 23.3088C24.2228 23.1907 24.1385 23.0506 24.086 22.8977C24.0335 22.7447 24.014 22.5824 24.0287 22.4213Z" fill="#F8C465"/>
<g style="mix-blend-mode:multiply" opacity="0.55">
<path d="M24.8234 22.0107C25.4856 22.0107 26.0287 22.673 26.3267 23.2094C26.3295 23.2336 26.3295 23.2581 26.3267 23.2823C26.4665 23.1629 26.5752 23.0113 26.6432 22.8405C26.7113 22.6697 26.7368 22.4849 26.7175 22.3021C26.6874 22.1417 26.6226 21.9899 26.5277 21.8572C26.4327 21.7244 26.3099 21.6141 26.1678 21.5339C25.8838 21.3586 25.5543 21.271 25.2207 21.2822C24.9672 21.2864 24.721 21.368 24.5151 21.5159C24.3091 21.6638 24.1533 21.8711 24.0684 22.11C24.3136 22.0392 24.5681 22.0057 24.8234 22.0107Z" fill="#F8C465"/>
</g>
<path d="M21.4122 22.9732C21.5194 22.6735 21.7361 22.4256 22.0188 22.2794C22.3014 22.1332 22.6289 22.0995 22.9354 22.185C23.2626 22.2657 23.5566 22.4463 23.7765 22.7016C23.8852 22.8227 23.9664 22.966 24.0144 23.1215C24.0624 23.277 24.0762 23.441 24.0547 23.6023C23.9713 23.8601 23.8157 24.0885 23.6064 24.2605C23.3972 24.4326 23.143 24.5411 22.874 24.5731C22.605 24.6052 22.3325 24.5595 22.0887 24.4414C21.8448 24.3233 21.64 24.1379 21.4983 23.907C21.4177 23.7667 21.3682 23.6106 21.3534 23.4495C21.3385 23.2883 21.3586 23.1259 21.4122 22.9732Z" fill="#F8C465"/>
<g style="mix-blend-mode:multiply" opacity="0.55">
<path d="M22.2997 22.7741C22.6215 22.8748 22.8905 23.0986 23.0481 23.3967C23.2208 23.6895 23.3418 24.0098 23.4057 24.3437C23.4057 24.3437 23.4057 24.3967 23.4057 24.4166C23.5699 24.3361 23.7145 24.2209 23.8296 24.0788C23.9412 23.9414 24.0143 23.7769 24.0415 23.602C24.063 23.4407 24.0493 23.2766 24.0012 23.1211C23.9532 22.9656 23.8721 22.8224 23.7634 22.7013C23.5434 22.4459 23.2495 22.2654 22.9223 22.1847C22.6676 22.1222 22.4002 22.1366 22.1538 22.2262C21.9074 22.3158 21.6931 22.4765 21.5381 22.688C21.795 22.6739 22.0524 22.703 22.2997 22.7741Z" fill="#F8C465"/>
</g>
<path d="M18.7042 22.9724C18.7807 22.8338 18.8848 22.7123 19.0101 22.6155C19.1354 22.5187 19.2792 22.4486 19.4327 22.4095C19.7484 22.3231 20.0848 22.3537 20.3798 22.4956C20.6902 22.6418 20.9439 22.8862 21.1016 23.191C21.179 23.3328 21.225 23.4896 21.2364 23.6507C21.2478 23.8118 21.2245 23.9735 21.1679 24.1248C21.0872 24.2857 20.9746 24.4285 20.8369 24.5444C20.6991 24.6603 20.5393 24.7469 20.367 24.799C20.1947 24.8511 20.0136 24.8674 19.8347 24.8472C19.6559 24.8269 19.483 24.7704 19.3267 24.6811C19.1686 24.6159 19.0257 24.5184 18.9073 24.395C18.7889 24.2715 18.6974 24.1247 18.6389 23.964C18.5803 23.8032 18.5559 23.632 18.5671 23.4613C18.5784 23.2906 18.625 23.1241 18.7042 22.9724Z" fill="#F8C465"/>
<g style="mix-blend-mode:multiply" opacity="0.55">
<path d="M19.625 22.9381C19.9176 23.1052 20.1355 23.3776 20.2343 23.6997C20.3399 24.0245 20.3892 24.365 20.38 24.7064V24.7793C20.5475 24.7463 20.7047 24.6739 20.8386 24.5679C20.9725 24.462 21.0792 24.3256 21.1498 24.1702C21.2204 24.0148 21.2529 23.8447 21.2445 23.6742C21.2362 23.5037 21.1873 23.3376 21.1019 23.1898C20.9441 22.885 20.6904 22.6406 20.38 22.4944C20.1396 22.3766 19.8692 22.3345 19.6043 22.3735C19.3395 22.4125 19.0927 22.5309 18.8965 22.7129C19.1493 22.7508 19.3949 22.8267 19.625 22.9381Z" fill="#F8C465"/>
</g>
<path d="M16.0154 22.5221C16.2247 22.2718 16.5223 22.1116 16.8465 22.0746C17.1708 22.0376 17.4968 22.1267 17.7572 22.3234C18.0413 22.5164 18.2533 22.7982 18.3598 23.1248C18.41 23.2789 18.4266 23.4421 18.4083 23.6032C18.39 23.7643 18.3373 23.9196 18.2539 24.0586C18.1478 24.201 18.0142 24.3206 17.861 24.4104C17.7078 24.5001 17.5381 24.5581 17.362 24.581C17.186 24.6039 17.0071 24.5911 16.836 24.5434C16.665 24.4958 16.5053 24.4142 16.3664 24.3036C16.2206 24.2147 16.0949 24.0965 15.9972 23.9564C15.8996 23.8164 15.8321 23.6576 15.7991 23.49C15.7661 23.3225 15.7683 23.15 15.8055 22.9833C15.8427 22.8167 15.9142 22.6596 16.0154 22.5221Z" fill="#F8C465"/>
<g style="mix-blend-mode:multiply" opacity="0.55">
<path d="M16.9289 22.6357C17.4918 23.0331 17.5051 23.8874 17.3925 24.5033V24.5762C17.5623 24.5678 17.7278 24.5201 17.876 24.4368C18.0243 24.3536 18.1512 24.2372 18.2468 24.0966C18.3425 23.956 18.4042 23.7952 18.4272 23.6268C18.4502 23.4583 18.4338 23.2868 18.3793 23.1258C18.2727 22.7993 18.0607 22.5174 17.7766 22.3244C17.5512 22.1612 17.28 22.0732 17.0017 22.0728C16.7376 22.065 16.4785 22.1467 16.2666 22.3046C16.5036 22.379 16.7272 22.4908 16.9289 22.6357Z" fill="#F8C465"/>
</g>
<path d="M13.3989 21.7009C13.6419 21.4783 13.9616 21.3582 14.291 21.3656C14.6205 21.373 14.9344 21.5074 15.1672 21.7407C15.3128 21.8405 15.435 21.9706 15.5257 22.1221C15.6163 22.2736 15.6731 22.4429 15.6922 22.6183C15.7113 22.7938 15.6923 22.9713 15.6364 23.1388C15.5806 23.3062 15.4892 23.4596 15.3686 23.5885C15.2479 23.7173 15.1008 23.8186 14.9374 23.8853C14.774 23.9521 14.5981 23.9827 14.4218 23.9751C14.2454 23.9676 14.0728 23.922 13.9157 23.8416C13.7586 23.7611 13.6207 23.6476 13.5115 23.509C13.3794 23.4016 13.271 23.268 13.1932 23.1167C13.1153 22.9653 13.0696 22.7995 13.059 22.6296C13.0484 22.4597 13.0732 22.2895 13.1317 22.1297C13.1902 21.9698 13.2812 21.8238 13.3989 21.7009Z" fill="#F8C465"/>
<g style="mix-blend-mode:multiply" opacity="0.55">
<path d="M14.3 21.9322C14.7967 22.409 14.6908 23.2567 14.4921 23.8462C14.4948 23.8704 14.4948 23.8948 14.4921 23.919C14.6677 23.9306 14.8437 23.902 15.0066 23.8355C15.1696 23.7689 15.3152 23.6661 15.4325 23.5349C15.628 23.2614 15.7121 22.9237 15.6678 22.5904C15.6235 22.2571 15.4542 21.9532 15.1941 21.7401C14.9879 21.5498 14.7296 21.4253 14.4523 21.3825C14.1894 21.3408 13.92 21.3849 13.6841 21.5083C13.9098 21.6174 14.1175 21.7604 14.3 21.9322Z" fill="#F8C465"/>
</g>
<path d="M10.9083 20.5477C11.0347 20.4502 11.1802 20.3803 11.3354 20.3427C11.4906 20.305 11.6519 20.3004 11.809 20.3291C12.1411 20.3814 12.4426 20.5534 12.6567 20.8126C12.8805 21.0762 13.0088 21.4075 13.021 21.753C13.0281 21.915 12.9999 22.0765 12.9381 22.2264C12.8763 22.3762 12.7825 22.5108 12.6633 22.6206C12.5242 22.7274 12.3652 22.8055 12.1956 22.8503C12.0261 22.8952 11.8493 22.9059 11.6755 22.8819C11.5018 22.8578 11.3345 22.7995 11.1835 22.7104C11.0325 22.6212 10.9006 22.5029 10.7957 22.3623C10.6787 22.2384 10.5884 22.0917 10.5304 21.9315C10.4724 21.7712 10.4479 21.6007 10.4584 21.4306C10.469 21.2605 10.5144 21.0943 10.5917 20.9425C10.6691 20.7906 10.7769 20.6562 10.9083 20.5477Z" fill="#F8C465"/>
<g style="mix-blend-mode:multiply" opacity="0.55">
<path d="M11.7757 20.9117C12.2062 21.4481 11.9943 22.2694 11.7228 22.8323C11.7158 22.8562 11.7046 22.8786 11.6896 22.8985C11.854 22.9345 12.0244 22.9319 12.1877 22.8912C12.3509 22.8504 12.5025 22.7726 12.6307 22.6636C12.7589 22.5546 12.8602 22.4175 12.9267 22.263C12.9933 22.1085 13.0232 21.9407 13.0142 21.7727C13.0021 21.4271 12.8737 21.0958 12.65 20.8322C12.478 20.6193 12.2443 20.4649 11.9811 20.3902C11.7178 20.3154 11.4378 20.3241 11.1797 20.415C11.4025 20.5492 11.6036 20.7167 11.7757 20.9117Z" fill="#F8C465"/>
</g>
<path d="M8.57067 19.1035C8.86402 18.9575 9.20104 18.9255 9.51663 19.0136C9.83221 19.1017 10.104 19.3036 10.2794 19.5803C10.4763 19.8523 10.5626 20.1889 10.5208 20.5221C10.479 20.8553 10.3122 21.1602 10.0542 21.3751C9.90284 21.465 9.7351 21.5239 9.56076 21.5483C9.38641 21.5726 9.20895 21.562 9.03877 21.517C8.86858 21.472 8.70907 21.3935 8.56956 21.2861C8.43006 21.1787 8.31336 21.0446 8.22628 20.8916C8.12566 20.7536 8.05452 20.5964 8.01727 20.4297C7.98002 20.263 7.97747 20.0904 8.00977 19.9227C8.04207 19.755 8.10854 19.5957 8.20503 19.4547C8.30153 19.3138 8.42598 19.1942 8.57067 19.1035Z" fill="#F8C465"/>
<g style="mix-blend-mode:multiply" opacity="0.55">
<path d="M9.39192 19.5858C9.76279 20.1686 9.45152 20.9633 9.11376 21.4865L9.07402 21.5461C9.23973 21.5939 9.41417 21.6033 9.58404 21.5734C9.75391 21.5436 9.91472 21.4754 10.0542 21.3739C10.2767 21.1694 10.4266 20.898 10.4812 20.6008C10.5357 20.3035 10.4919 19.9966 10.3565 19.7264C10.221 19.4563 10.0013 19.2376 9.73043 19.1034C9.4596 18.9693 9.15245 18.9271 8.85547 18.9831C9.06644 19.1529 9.24773 19.3565 9.39192 19.5858Z" fill="#F8C465"/>
</g>
<path d="M6.43847 17.3906C6.74334 17.2731 7.08149 17.2762 7.38415 17.3993C7.6868 17.5223 7.93122 17.756 8.06768 18.0528C8.22241 18.3621 8.26681 18.7149 8.19352 19.0529C8.16015 19.2121 8.09328 19.3623 7.99736 19.4936C7.90144 19.6249 7.77867 19.7343 7.6372 19.8145C7.48417 19.8834 7.31825 19.9191 7.15042 19.9191C6.98259 19.9191 6.81667 19.8834 6.66364 19.8145C6.32068 19.6686 6.04279 19.4025 5.88215 19.0661C5.79924 18.9072 5.74945 18.7331 5.73579 18.5544C5.72213 18.3757 5.74488 18.196 5.80268 18.0264C5.85929 17.8824 5.94496 17.7516 6.05435 17.6422C6.16374 17.5329 6.2945 17.4472 6.43847 17.3906Z" fill="#F8C465"/>
<g style="mix-blend-mode:multiply" opacity="0.55">
<path d="M7.18696 17.9415C7.48499 18.5574 7.07437 19.3124 6.67701 19.7893L6.62402 19.8489C6.77551 19.9259 6.94286 19.9665 7.11279 19.9675C7.28272 19.9685 7.45054 19.9298 7.60292 19.8546C7.7553 19.7794 7.88803 19.6697 7.99057 19.5342C8.09312 19.3987 8.16264 19.2411 8.19363 19.074C8.26692 18.7361 8.22252 18.3832 8.0678 18.074C7.9527 17.8258 7.76358 17.6193 7.5264 17.4829C7.28923 17.3466 7.01564 17.287 6.74323 17.3124C6.9249 17.4961 7.07484 17.7087 7.18696 17.9415Z" fill="#F8C465"/>
</g>
<path d="M4.57044 15.3962C4.88683 15.3254 5.21829 15.3769 5.49834 15.5403C5.77839 15.7036 5.98632 15.9668 6.08044 16.2771C6.20563 16.59 6.20682 16.9389 6.08377 17.2526C5.96073 17.5664 5.72269 17.8215 5.41816 17.9659C5.25806 18.0208 5.08783 18.0398 4.91957 18.0215C4.75131 18.0032 4.58914 17.948 4.44461 17.8599C4.12683 17.6657 3.89122 17.3618 3.78233 17.0056C3.72436 16.8364 3.70036 16.6575 3.71173 16.4791C3.7231 16.3006 3.76959 16.1262 3.84856 15.9658C3.92428 15.8271 4.02727 15.7052 4.15132 15.6073C4.27538 15.5094 4.41794 15.4376 4.57044 15.3962Z" fill="#F8C465"/>
<g style="mix-blend-mode:multiply" opacity="0.55">
<path d="M5.23236 16.0458C5.43767 16.708 4.92771 17.3703 4.46412 17.8074L4.41113 17.8604C4.55916 17.9546 4.72624 18.0147 4.90033 18.0365C5.07441 18.0582 5.25115 18.0411 5.4178 17.9863C5.72714 17.8417 5.96872 17.5833 6.09212 17.2649C6.21552 16.9466 6.2112 16.5928 6.08008 16.2776C6.00063 16.0187 5.84378 15.7905 5.63063 15.6235C5.41749 15.4565 5.1583 15.3589 4.88798 15.3438C5.03827 15.5586 5.15444 15.7954 5.23236 16.0458Z" fill="#F8C465"/>
</g>
<path d="M3.05978 13.1503C3.38159 13.133 3.69787 13.2392 3.94403 13.4472C4.19019 13.6552 4.34768 13.9493 4.38434 14.2695C4.45882 14.5974 4.40583 14.9413 4.23611 15.2315C4.06639 15.5218 3.79265 15.7366 3.47039 15.8325C3.20856 15.8439 2.94871 15.7824 2.71971 15.6549C2.49071 15.5275 2.30154 15.339 2.17322 15.1105C2.04489 14.882 1.98244 14.6224 1.99281 14.3605C2.00317 14.0986 2.08594 13.8448 2.23192 13.6271C2.32584 13.4911 2.44887 13.3778 2.59206 13.2953C2.73526 13.2128 2.89503 13.1633 3.05978 13.1503Z" fill="#F8C465"/>
<g style="mix-blend-mode:multiply" opacity="0.55">
<path d="M3.59624 13.8915C3.68234 14.5538 3.08629 15.1631 2.55646 15.5074L2.49023 15.5472C2.62104 15.6663 2.77738 15.7539 2.94728 15.8033C3.11719 15.8526 3.29613 15.8625 3.47041 15.832C3.7885 15.7362 4.059 15.5244 4.22828 15.2386C4.39756 14.9528 4.45327 14.6138 4.38436 14.2888C4.3517 14.0237 4.23719 13.7753 4.05676 13.5782C3.87633 13.3812 3.63896 13.2453 3.37769 13.1895C3.43067 13.3087 3.47703 13.4279 3.51677 13.5471C3.55172 13.6598 3.57829 13.7749 3.59624 13.8915Z" fill="#F8C465"/>
</g>
<path d="M2.04691 10.6733C2.35581 10.7223 2.63496 10.8857 2.82884 11.1312C3.02273 11.3766 3.11714 11.686 3.09332 11.9978C3.0943 12.347 2.98025 12.6869 2.7688 12.9648C2.66786 13.0929 2.54045 13.1976 2.39529 13.2719C2.25012 13.3462 2.09062 13.3883 1.9277 13.3953C1.75982 13.3973 1.59394 13.3587 1.44424 13.2827C1.28841 13.2039 1.1508 13.0933 1.04024 12.9582C0.797841 12.6551 0.677379 12.2725 0.70248 11.8853C0.709896 11.7029 0.754903 11.5241 0.834679 11.36C0.914456 11.1959 1.02728 11.05 1.16608 10.9316C1.28716 10.8301 1.42791 10.7548 1.5795 10.7104C1.73108 10.6659 1.89022 10.6533 2.04691 10.6733Z" fill="#F8C465"/>
<g style="mix-blend-mode:multiply" opacity="0.55">
<path d="M2.40425 11.5012C2.34464 12.1635 1.636 12.6469 1.07969 12.8787H1.00684C1.0985 13.0259 1.22447 13.1486 1.37395 13.2365C1.52342 13.3243 1.69196 13.3746 1.86513 13.3831C2.03829 13.3915 2.21093 13.3579 2.36826 13.2851C2.52559 13.2122 2.66292 13.1023 2.7685 12.9648C2.98137 12.7011 3.10435 12.3762 3.11951 12.0376C3.13977 11.778 3.08023 11.5183 2.94885 11.2934C2.81747 11.0686 2.62052 10.8892 2.38438 10.7793C2.42175 11.0181 2.42843 11.2607 2.40425 11.5012Z" fill="#F8C465"/>
</g>
<path d="M1.76219 8.07174C1.88935 8.13997 2.00546 8.22706 2.10657 8.33003C2.25603 8.50019 2.35652 8.7077 2.39734 8.93047C2.43816 9.15323 2.41778 9.3829 2.33837 9.59499C2.28385 9.75371 2.20571 9.9033 2.10657 10.0387C2.01073 10.171 1.89449 10.2873 1.76219 10.3831C1.63347 10.4834 1.48437 10.5543 1.32535 10.5909C1.16633 10.6276 1.00123 10.6289 0.841615 10.595C0.676799 10.5594 0.523965 10.4818 0.397887 10.3699C0.269244 10.245 0.165814 10.0966 0.0932375 9.93275C-0.0396451 9.56292 -0.0302024 9.15688 0.119729 8.79363C0.185088 8.60689 0.291449 8.43716 0.431001 8.29691C0.546918 8.16724 0.69228 8.06731 0.854861 8.00551C1.00281 7.95516 1.15938 7.93507 1.31525 7.94645C1.47112 7.95783 1.62311 8.00044 1.76219 8.07174Z" fill="#F8C465"/>
<g style="mix-blend-mode:multiply" opacity="0.55">
<path d="M1.84818 8.94496C1.67101 9.23048 1.42584 9.46764 1.13459 9.63522C0.84335 9.8028 0.515111 9.89559 0.179234 9.90528H0.119629C0.190084 10.0778 0.296152 10.2335 0.430901 10.3623C0.558075 10.484 0.716081 10.5687 0.887875 10.6073C1.04749 10.6412 1.21259 10.6398 1.37161 10.6032C1.53064 10.5666 1.67973 10.4957 1.80845 10.3954C1.94075 10.2995 2.05699 10.1833 2.15283 10.051C2.25197 9.91557 2.33011 9.76597 2.38463 9.60724C2.47586 9.37115 2.49173 9.1126 2.43007 8.86712C2.3684 8.62164 2.23222 8.40128 2.04024 8.23633C2.02842 8.35939 2.00626 8.48124 1.97402 8.60058C1.94278 8.71901 1.90065 8.83429 1.84818 8.94496Z" fill="#F8C465"/>
</g>
<path d="M2.43084 5.60169C2.62405 5.83165 2.72963 6.12257 2.72887 6.42292C2.72032 6.71514 2.60757 6.99467 2.41097 7.21103C2.30416 7.33456 2.18171 7.44365 2.04672 7.53556C1.90561 7.62057 1.75428 7.68733 1.59636 7.73424C1.44534 7.79216 1.28345 7.81624 1.1221 7.8048C0.96076 7.79336 0.803888 7.74666 0.662548 7.66801C0.518623 7.57418 0.402091 7.44394 0.324786 7.2905C0.242174 7.1258 0.196945 6.94489 0.192329 6.76069C0.178143 6.34516 0.328018 5.94074 0.609566 5.63481C0.731329 5.49332 0.883047 5.38069 1.05372 5.30509C1.2244 5.22948 1.40976 5.1928 1.59636 5.1977C1.75601 5.20277 1.9128 5.24136 2.05656 5.31096C2.20032 5.38056 2.32784 5.47961 2.43084 5.60169Z" fill="#F8C465"/>
<g style="mix-blend-mode:multiply" opacity="0.55">
<path d="M2.16566 6.42316C1.92121 6.64505 1.60783 6.77601 1.2782 6.79404C0.937618 6.82132 0.594883 6.78996 0.264908 6.70132H0.192057C0.188891 6.89416 0.232044 7.08494 0.317891 7.25765C0.39318 7.41976 0.512512 7.55744 0.662277 7.65501C0.801106 7.73907 0.956734 7.79155 1.11812 7.80871C1.2795 7.82588 1.44269 7.80733 1.59609 7.75436C1.75401 7.70745 1.90534 7.64068 2.04644 7.55567C2.18144 7.46377 2.30388 7.35468 2.4107 7.23115C2.49556 7.13539 2.56687 7.02842 2.62263 6.91326C2.67255 6.80911 2.70393 6.69705 2.71535 6.58212C2.74631 6.3443 2.70718 6.10262 2.60276 5.88672L2.40408 6.18474C2.3308 6.27018 2.2511 6.34989 2.16566 6.42316Z" fill="#F8C465"/>
</g>
<path d="M4.09453 3.63849C4.17383 3.92999 4.14562 4.24028 4.01505 4.5127C3.95786 4.64117 3.87438 4.75623 3.77001 4.85047C3.66077 4.95525 3.53268 5.0384 3.39251 5.09551C3.24738 5.16765 3.09025 5.21255 2.92891 5.22797C2.76637 5.25115 2.60136 5.25115 2.43882 5.22797C2.27781 5.2084 2.1227 5.15526 1.98352 5.07198C1.84434 4.9887 1.72419 4.87713 1.63084 4.7445C1.54096 4.59838 1.48863 4.43229 1.47852 4.26104C1.47899 4.07492 1.51495 3.89061 1.58448 3.71797C1.66498 3.53431 1.77706 3.3662 1.91562 3.22125C2.06526 3.07408 2.24027 2.95517 2.4322 2.87025C2.60112 2.79105 2.7854 2.75 2.97196 2.75C3.15852 2.75 3.3428 2.79105 3.51172 2.87025C3.65859 2.94861 3.78673 3.05786 3.88734 3.19048C3.98795 3.3231 4.05863 3.47594 4.09453 3.63849Z" fill="#F8C465"/>
<g style="mix-blend-mode:multiply" opacity="0.55">
<path d="M3.48508 4.28236C3.1671 4.37919 2.8254 4.36281 2.51815 4.236C2.19759 4.12052 1.89954 3.95021 1.63731 3.73267C1.61802 3.71671 1.60028 3.69898 1.58433 3.67969C1.50628 3.8574 1.46354 4.0486 1.4585 4.24263C1.46324 4.4231 1.51581 4.59907 1.61082 4.75258C1.70417 4.88522 1.82432 4.99678 1.9635 5.08006C2.10268 5.16334 2.25779 5.21648 2.4188 5.23605C2.58134 5.25923 2.74635 5.25923 2.90889 5.23605C3.07023 5.22063 3.22736 5.17573 3.37249 5.10359C3.59709 5.00957 3.78707 4.84832 3.91633 4.64198C4.04559 4.43564 4.10779 4.19433 4.09437 3.95122C3.90619 4.08706 3.70143 4.19834 3.48508 4.28236Z" fill="#F8C465"/>
</g>
<path d="M6.37864 2.40808C6.35275 2.71645 6.21355 3.00429 5.9879 3.21606C5.93384 3.26538 5.87376 3.30766 5.80908 3.3419C5.75036 3.38607 5.6857 3.42174 5.61702 3.44786C5.54418 3.47687 5.46879 3.49904 5.39184 3.51409H5.15342C4.82195 3.52513 4.49465 3.43754 4.21299 3.26242C4.06129 3.18427 3.93117 3.06999 3.83409 2.92965C3.737 2.78932 3.67595 2.62725 3.65632 2.45774C3.63669 2.28823 3.65907 2.1165 3.7215 1.95768C3.78393 1.79887 3.88449 1.65787 4.0143 1.54711C4.08259 1.48012 4.15563 1.41815 4.23285 1.36168C4.31452 1.30752 4.40098 1.26096 4.49114 1.22259C4.67916 1.14041 4.88201 1.09759 5.0872 1.09676C5.26925 1.08948 5.45086 1.11983 5.62065 1.18592C5.79044 1.25201 5.94478 1.35243 6.07399 1.48089C6.18952 1.60373 6.27668 1.75043 6.32932 1.91064C6.38196 2.07085 6.3988 2.24065 6.37864 2.40808Z" fill="#F8C465"/>
<g style="mix-blend-mode:multiply" opacity="0.55">
<path d="M5.58346 2.81183C4.92118 2.81183 4.37811 2.14955 4.08008 1.6131L4.04697 1.54688C3.91008 1.6552 3.80246 1.79605 3.73393 1.9566C3.66539 2.11715 3.63811 2.29229 3.65456 2.46608C3.67102 2.63987 3.73069 2.80679 3.82815 2.95162C3.92561 3.09645 4.05775 3.21459 4.21254 3.2953C4.4942 3.47041 4.8215 3.558 5.15298 3.54696C5.40718 3.54221 5.65398 3.46057 5.86087 3.31279C6.06776 3.16502 6.22503 2.95803 6.31197 2.71911C6.0743 2.78208 5.82933 2.81326 5.58346 2.81183Z" fill="#F8C465"/>
</g>
<path d="M8.99535 1.85769C8.8882 2.15706 8.67113 2.40444 8.38823 2.54958C8.10532 2.69472 7.77778 2.72676 7.4721 2.63919C7.14274 2.56372 6.84725 2.38224 6.63101 2.1226C6.52154 2.00198 6.43989 1.8588 6.39183 1.70317C6.34376 1.54753 6.33046 1.38324 6.35285 1.2219C6.39795 1.04502 6.47913 0.879364 6.59129 0.73534C6.70345 0.591316 6.84416 0.472031 7.00461 0.384968C7.16505 0.297906 7.34176 0.244945 7.52364 0.229413C7.70552 0.213881 7.88865 0.236113 8.06153 0.29471C8.23786 0.335095 8.40404 0.411167 8.54983 0.518236C8.69563 0.625305 8.81795 0.761098 8.90926 0.917251C8.98842 1.05933 9.03698 1.2164 9.05181 1.37836C9.06664 1.54033 9.04741 1.70361 8.99535 1.85769Z" fill="#F8C465"/>
<g style="mix-blend-mode:multiply" opacity="0.55">
<path d="M8.10734 2.05719C7.78098 1.94262 7.51238 1.70492 7.35897 1.39491C7.18358 1.10578 7.06239 0.787089 7.00133 0.454476C6.99814 0.42808 6.99814 0.401395 7.00133 0.375C6.83753 0.455995 6.69299 0.571173 6.57747 0.712765C6.46719 0.85096 6.39422 1.01515 6.36554 1.18961C6.34315 1.35095 6.35646 1.51524 6.40452 1.67087C6.45258 1.82651 6.53423 1.96969 6.6437 2.09031C6.85995 2.34995 7.15544 2.53143 7.4848 2.60689C7.73761 2.67618 8.00566 2.66565 8.25225 2.57673C8.49884 2.48782 8.71193 2.32486 8.86234 2.11018C8.60944 2.12794 8.35529 2.1101 8.10734 2.05719Z" fill="#F8C465"/>
</g>
<path d="M11.7032 1.85817C11.5444 2.13482 11.2825 2.33725 10.9747 2.42111C10.6582 2.50547 10.3218 2.47254 10.0276 2.32839C9.71925 2.1953 9.46486 1.96192 9.30575 1.66611C9.22823 1.52316 9.18221 1.36527 9.17078 1.20306C9.15936 1.04085 9.1828 0.878068 9.23953 0.725668C9.3208 0.56533 9.43387 0.423216 9.57183 0.307978C9.7098 0.192739 9.86978 0.106789 10.042 0.0553626C10.2143 0.00393574 10.3952 -0.0118945 10.5738 0.00884141C10.7523 0.0295773 10.9248 0.0864466 11.0807 0.175978C11.2354 0.241537 11.375 0.338044 11.491 0.459567C11.607 0.58109 11.6969 0.725061 11.7552 0.882623C11.8136 1.04018 11.839 1.20801 11.8301 1.37578C11.8211 1.54354 11.778 1.70771 11.7032 1.85817Z" fill="#F8C465"/>
<g style="mix-blend-mode:multiply" opacity="0.55">
<path d="M10.7829 1.89269C10.489 1.72398 10.271 1.44904 10.1736 1.12444C10.066 0.802272 10.0144 0.464007 10.0213 0.124397C10.0213 0.124397 10.0213 0.0714131 10.0213 0.0449219C9.84799 0.0876062 9.6868 0.169519 9.55016 0.284344C9.41352 0.399169 9.30507 0.54384 9.23318 0.707203C9.17645 0.859603 9.15301 1.02238 9.16444 1.1846C9.17586 1.34681 9.22188 1.5047 9.29941 1.64765C9.45852 1.94346 9.7129 2.17684 10.0213 2.30993C10.2593 2.43286 10.5299 2.4779 10.795 2.43868C11.06 2.39947 11.306 2.27798 11.4982 2.09137C11.2519 2.05748 11.0114 1.99065 10.7829 1.89269Z" fill="#F8C465"/>
</g>
<path d="M14.3916 2.30799C14.1802 2.55735 13.8816 2.71671 13.5568 2.75362C13.2319 2.79054 12.9052 2.70222 12.6432 2.50667C12.3608 2.31192 12.1493 2.03068 12.0405 1.70531C11.9903 1.55115 11.9738 1.38799 11.9921 1.22689C12.0104 1.06579 12.063 0.910488 12.1465 0.771493C12.253 0.629579 12.387 0.510521 12.5405 0.421389C12.6939 0.332256 12.8637 0.274869 13.0398 0.25263C13.2158 0.230391 13.3946 0.243755 13.5654 0.291931C13.7362 0.340107 13.8955 0.422113 14.034 0.533076C14.1793 0.621463 14.3048 0.738988 14.4024 0.878248C14.5001 1.01751 14.5679 1.17548 14.6015 1.34222C14.6351 1.50896 14.6338 1.68085 14.5976 1.84707C14.5615 2.01328 14.4914 2.17022 14.3916 2.30799Z" fill="#F8C465"/>
<g style="mix-blend-mode:multiply" opacity="0.55">
<path d="M13.4709 2.19634C12.9146 1.79235 12.9014 0.938009 13.014 0.328711V0.255859C12.8372 0.264661 12.665 0.315522 12.5118 0.404215C12.3586 0.492908 12.2288 0.616876 12.1331 0.765819C12.0509 0.906652 12 1.06359 11.984 1.2259C11.968 1.38821 11.9872 1.55207 12.0404 1.70626C12.1461 2.03313 12.3553 2.31674 12.6365 2.51424C12.8679 2.67031 13.1389 2.75756 13.4179 2.76591C13.6821 2.77372 13.9412 2.69203 14.1531 2.53411C13.9101 2.45629 13.6801 2.34243 13.4709 2.19634Z" fill="#F8C465"/>
</g>
<path d="M17.0084 3.12953C16.7645 3.35129 16.4444 3.47027 16.1149 3.46164C15.7854 3.453 15.472 3.3174 15.2401 3.08317C14.9818 2.87037 14.8137 2.56768 14.7694 2.23595C14.7252 1.90423 14.8082 1.56805 15.0017 1.29501C15.125 1.16885 15.2724 1.06861 15.435 1.00017C15.5976 0.931736 15.7723 0.896484 15.9488 0.896484C16.1252 0.896484 16.2999 0.931736 16.4625 1.00017C16.6251 1.06861 16.7725 1.16885 16.8958 1.29501C17.0303 1.40363 17.1408 1.53909 17.2201 1.69274C17.2994 1.84639 17.3458 2.01488 17.3564 2.18746C17.367 2.36004 17.3415 2.53294 17.2816 2.69514C17.2217 2.85733 17.1286 3.00527 17.0084 3.12953Z" fill="#F8C465"/>
<g style="mix-blend-mode:multiply" opacity="0.55">
<path d="M16.1076 2.89035C15.6043 2.42013 15.7169 1.56579 15.9089 0.98298C15.9078 0.95871 15.9078 0.934399 15.9089 0.910129C15.733 0.895444 15.5561 0.922587 15.3926 0.989346C15.2292 1.05611 15.0838 1.16058 14.9685 1.29425C14.775 1.56729 14.692 1.90347 14.7362 2.23519C14.7805 2.56692 14.9486 2.8696 15.2069 3.08241C15.4118 3.27583 15.6703 3.4028 15.9487 3.44666C16.2102 3.4899 16.4787 3.44321 16.7103 3.31421C16.4885 3.20519 16.2852 3.06218 16.1076 2.89035Z" fill="#F8C465"/>
</g>
<path d="M19.4984 4.27523C19.3716 4.37212 19.2262 4.44207 19.0713 4.48079C18.9165 4.51951 18.7553 4.52619 18.5977 4.50041C18.2667 4.44524 17.9661 4.27382 17.75 4.01694C17.5235 3.75504 17.3947 3.42268 17.3858 3.0765C17.379 2.91423 17.4068 2.75238 17.4673 2.60166C17.5278 2.45094 17.6197 2.31481 17.7368 2.20229C17.8765 2.09482 18.0363 2.01633 18.2068 1.97143C18.3773 1.92652 18.555 1.9161 18.7296 1.94077C18.9042 1.96544 19.072 2.02472 19.2234 2.11511C19.3748 2.20551 19.5065 2.32522 19.611 2.46721C19.7279 2.59059 19.8181 2.73669 19.876 2.89643C19.9339 3.05616 19.9584 3.22611 19.9478 3.3957C19.9373 3.56528 19.8919 3.73089 19.8146 3.8822C19.7373 4.03351 19.6297 4.1673 19.4984 4.27523Z" fill="#F8C465"/>
<g style="mix-blend-mode:multiply" opacity="0.55">
<path d="M18.6641 3.93067C18.4991 3.6357 18.4164 3.30186 18.4246 2.96402C18.4328 2.62618 18.5315 2.29672 18.7104 2.01005L18.7502 1.94382C18.5779 1.90981 18.4001 1.91539 18.2303 1.96013C18.0605 2.00488 17.9031 2.08762 17.77 2.20211C17.6529 2.31463 17.561 2.45076 17.5005 2.60148C17.44 2.75219 17.4122 2.91405 17.419 3.07632C17.4279 3.4225 17.5567 3.75486 17.7832 4.01676C17.9547 4.22834 18.1872 4.38192 18.4491 4.45658C18.711 4.53125 18.9896 4.52336 19.2469 4.434C19.0281 4.29686 18.8316 4.12713 18.6641 3.93067Z" fill="#F8C465"/>
</g>
<path d="M21.8357 5.71936C21.545 5.87535 21.2054 5.91353 20.8873 5.826C20.5692 5.73846 20.297 5.53191 20.127 5.24914C20.0155 5.11623 19.9334 4.96114 19.8863 4.79415C19.8392 4.62715 19.8281 4.45206 19.8538 4.28045C19.8794 4.10884 19.9412 3.94464 20.0351 3.79872C20.129 3.65279 20.2528 3.52846 20.3983 3.43396C20.5438 3.33947 20.7077 3.27696 20.8792 3.25058C21.0507 3.22419 21.2259 3.23453 21.3931 3.28091C21.5603 3.3273 21.7157 3.40867 21.8491 3.51963C21.9825 3.63059 22.0908 3.76862 22.1668 3.92458C22.2701 4.06161 22.3438 4.21861 22.3832 4.38562C22.4226 4.55263 22.4269 4.72601 22.3958 4.89476C22.3646 5.06351 22.2988 5.22395 22.2024 5.3659C22.1059 5.50785 21.9811 5.62821 21.8357 5.71936Z" fill="#F8C465"/>
<g style="mix-blend-mode:multiply" opacity="0.55">
<path d="M21.014 5.27573C20.8853 4.96315 20.8432 4.62165 20.8921 4.28717C20.9411 3.95268 21.0793 3.63757 21.2922 3.37498C21.306 3.35183 21.3215 3.3297 21.3385 3.30875C21.1722 3.25451 20.9957 3.23884 20.8225 3.26294C20.6492 3.28704 20.4837 3.35026 20.3385 3.44783C20.1159 3.65231 19.9661 3.92371 19.9115 4.22097C19.857 4.51823 19.9007 4.82516 20.0362 5.09533C20.1716 5.36549 20.3914 5.58418 20.6623 5.7183C20.9331 5.85242 21.2402 5.89468 21.5372 5.83867C21.3344 5.67955 21.1579 5.48959 21.014 5.27573Z" fill="#F8C465"/>
</g>
<path d="M23.9619 7.44129C23.657 7.55872 23.3189 7.55561 23.0162 7.43258C22.7136 7.30955 22.4692 7.07585 22.3327 6.77901C22.1779 6.47213 22.1335 6.12135 22.2069 5.78558C22.2388 5.62417 22.3058 5.47173 22.4031 5.339C22.5003 5.20627 22.6255 5.09647 22.7698 5.01734C22.9224 4.94673 23.0885 4.91016 23.2566 4.91016C23.4247 4.91016 23.5908 4.94673 23.7433 5.01734C24.0877 5.16116 24.3663 5.42791 24.5248 5.76572C24.6068 5.92375 24.6561 6.09669 24.6698 6.2742C24.6835 6.45172 24.6612 6.63016 24.6043 6.79887C24.547 6.9443 24.4604 7.07638 24.3499 7.1869C24.2394 7.29742 24.1073 7.38401 23.9619 7.44129Z" fill="#F8C465"/>
<g style="mix-blend-mode:multiply" opacity="0.55">
<path d="M23.2199 6.89116C22.9218 6.26862 23.3325 5.52024 23.7298 5.03677L23.7828 4.98379C23.6249 4.90706 23.4517 4.86719 23.2762 4.86719C23.1006 4.86719 22.9274 4.90706 22.7695 4.98379C22.6272 5.06296 22.5038 5.17205 22.4078 5.30354C22.3117 5.43503 22.2453 5.58579 22.2132 5.74542C22.1398 6.08119 22.1843 6.43197 22.339 6.73884C22.4531 6.98828 22.6418 7.19615 22.8791 7.33376C23.1163 7.47137 23.3904 7.53193 23.6636 7.50708C23.4846 7.32607 23.3349 7.11827 23.2199 6.89116Z" fill="#F8C465"/>
</g>
<path d="M25.8293 9.42681C25.511 9.49816 25.1775 9.44446 24.8977 9.27682C24.6179 9.10917 24.4132 8.84042 24.3259 8.52611C24.2027 8.21398 24.2025 7.86671 24.3255 7.55446C24.4484 7.24221 24.6853 6.98825 24.9882 6.84391C25.147 6.78947 25.3157 6.77017 25.4826 6.78732C25.6496 6.80447 25.8108 6.85768 25.9552 6.94326C26.2709 7.13977 26.5058 7.44284 26.6174 7.7976C26.6762 7.96683 26.7001 8.14624 26.6876 8.32496C26.6751 8.50368 26.6264 8.678 26.5446 8.83738C26.4755 8.98178 26.3757 9.10935 26.2521 9.21116C26.1286 9.31297 25.9843 9.38657 25.8293 9.42681Z" fill="#F8C465"/>
<g style="mix-blend-mode:multiply" opacity="0.55">
<path d="M25.1737 8.78391C24.9684 8.12163 25.4783 7.45935 25.9353 7.01562L25.9949 6.96926C25.8482 6.87193 25.681 6.80993 25.5063 6.78809C25.3317 6.76626 25.1543 6.7852 24.9882 6.84342C24.6853 6.98776 24.4484 7.24172 24.3255 7.55397C24.2025 7.86622 24.2027 8.21349 24.3259 8.52562C24.405 8.78345 24.5609 9.011 24.7727 9.17787C24.9845 9.34474 25.2423 9.44297 25.5114 9.45944C25.3664 9.25203 25.2525 9.02442 25.1737 8.78391Z" fill="#F8C465"/>
</g>
<path d="M27.3465 11.6789C27.0244 11.6929 26.7089 11.5846 26.4633 11.3758C26.2177 11.167 26.06 10.8732 26.0219 10.553C25.9743 10.385 25.9632 10.2087 25.9894 10.036C26.0155 9.86325 26.0783 9.69813 26.1735 9.55167C26.2687 9.40521 26.3941 9.2808 26.5413 9.18677C26.6885 9.09275 26.8542 9.03129 27.0271 9.00652C27.2 8.98175 27.3762 8.99424 27.5439 9.04315C27.7116 9.09206 27.8669 9.17627 27.9993 9.29011C28.1318 9.40396 28.2384 9.54482 28.312 9.70324C28.3856 9.86166 28.4245 10.034 28.426 10.2087C28.4827 10.5677 28.3946 10.9345 28.1809 11.2286C28.082 11.3589 27.9564 11.4664 27.8125 11.5441C27.6685 11.6218 27.5096 11.6678 27.3465 11.6789Z" fill="#F8C465"/>
<g style="mix-blend-mode:multiply" opacity="0.55">
<path d="M26.8097 10.9373C26.8234 10.5989 26.9269 10.2702 27.1096 9.98506C27.2924 9.69989 27.5477 9.46853 27.8495 9.31475L27.9091 9.28163C27.7813 9.15994 27.6263 9.07059 27.4569 9.02105C27.2876 8.9715 27.1088 8.96321 26.9356 8.99684C26.6135 9.09134 26.3393 9.3046 26.1684 9.59351C25.9975 9.88242 25.9427 10.2254 26.015 10.5532C26.056 10.8148 26.1744 11.0581 26.3551 11.2517C26.5357 11.4453 26.7702 11.5803 27.0283 11.6393C26.9694 11.5231 26.9228 11.401 26.8892 11.2751C26.8515 11.1654 26.8249 11.0523 26.8097 10.9373Z" fill="#F8C465"/>
</g>
<path d="M28.3601 14.1584C28.0512 14.1094 27.772 13.946 27.5782 13.7006C27.3843 13.4551 27.2899 13.1457 27.3137 12.8339C27.3149 12.6628 27.3509 12.4938 27.4196 12.3372C27.4762 12.1807 27.559 12.0351 27.6647 11.9067C27.766 11.7795 27.8936 11.6757 28.0388 11.6026C28.184 11.5294 28.3433 11.4885 28.5058 11.4828C28.6732 11.4782 28.8391 11.5146 28.9892 11.5888C29.1403 11.672 29.2749 11.782 29.3866 11.9133C29.6283 12.209 29.749 12.5852 29.7244 12.9663C29.7169 13.147 29.6725 13.3243 29.5939 13.4872C29.5153 13.65 29.4042 13.7951 29.2674 13.9134C29.1427 14.0172 28.9971 14.0928 28.8405 14.1351C28.6839 14.1774 28.52 14.1854 28.3601 14.1584Z" fill="#F8C465"/>
<g style="mix-blend-mode:multiply" opacity="0.55">
<path d="M28.0021 13.3318C28.0617 12.6696 28.7704 12.1861 29.3267 11.9543H29.3995C29.3024 11.8134 29.1734 11.6974 29.023 11.6158C28.8725 11.5342 28.7049 11.4893 28.5338 11.4848C28.3627 11.4802 28.193 11.5162 28.0384 11.5898C27.8839 11.6633 27.7489 11.7723 27.6445 11.9079C27.5389 12.0364 27.456 12.182 27.3995 12.3384C27.2694 12.6607 27.2653 13.0201 27.388 13.3452C27.5107 13.6704 27.7512 13.9375 28.0617 14.0935C28.0069 13.8435 27.9869 13.5872 28.0021 13.3318Z" fill="#F8C465"/>
</g>
<path d="M28.6452 16.7597C28.5057 16.6875 28.3801 16.591 28.2744 16.4749C28.1767 16.3677 28.0983 16.2445 28.0426 16.1106C27.9389 15.8216 27.9389 15.5056 28.0426 15.2165C28.093 15.0561 28.1715 14.9059 28.2744 14.7728C28.3701 14.6385 28.4863 14.5201 28.6187 14.4218C28.7462 14.3217 28.8942 14.2508 29.0521 14.2141C29.2101 14.1775 29.3741 14.1761 29.5327 14.2099C29.699 14.2506 29.8533 14.33 29.983 14.4417C30.1116 14.564 30.2151 14.7102 30.2877 14.8722C30.434 15.2469 30.434 15.663 30.2877 16.0378C30.2264 16.2249 30.1221 16.395 29.983 16.5345C29.8657 16.661 29.7206 16.7585 29.5592 16.8193C29.411 16.8731 29.2533 16.8956 29.096 16.8854C28.9386 16.8751 28.7852 16.8323 28.6452 16.7597Z" fill="#F8C465"/>
<g style="mix-blend-mode:multiply" opacity="0.55">
<path d="M28.559 15.8855C28.7361 15.6021 28.982 15.3679 29.2737 15.2046C29.5654 15.0414 29.8936 14.9544 30.2279 14.9517H30.3074C30.2327 14.7796 30.1272 14.6225 29.9961 14.4881C29.8649 14.3684 29.7054 14.2841 29.5325 14.2431C29.374 14.2093 29.2099 14.2107 29.052 14.2473C28.894 14.284 28.7461 14.3549 28.6186 14.455C28.4861 14.5533 28.3699 14.6717 28.2742 14.806C28.1713 14.9391 28.0929 15.0893 28.0424 15.2498C27.9507 15.4847 27.9346 15.7424 27.9963 15.987C28.0581 16.2316 28.1946 16.4508 28.3868 16.6141C28.3992 16.4933 28.4214 16.3737 28.453 16.2564C28.4752 16.1294 28.5107 16.0051 28.559 15.8855Z" fill="#F8C465"/>
</g>
<path d="M27.9697 19.23C27.7779 18.9971 27.6747 18.7039 27.6783 18.4022C27.6851 18.1096 27.7981 17.8294 27.9962 17.614C28.1032 17.4926 28.2256 17.3857 28.3605 17.2961C28.5014 17.2092 28.6527 17.1402 28.8108 17.0908C28.965 17.0406 29.1281 17.0241 29.2892 17.0424C29.4503 17.0607 29.6056 17.1133 29.7446 17.1968C29.8884 17.2909 30.0048 17.4211 30.0824 17.5743C30.1649 17.7367 30.2101 17.9154 30.2148 18.0975C30.2261 18.5158 30.0741 18.922 29.791 19.23C29.6686 19.3708 29.5168 19.4829 29.3463 19.5584C29.1757 19.634 28.9907 19.6711 28.8042 19.6671C28.6421 19.6576 28.4838 19.6137 28.34 19.5383C28.1961 19.4629 28.0699 19.3578 27.9697 19.23Z" fill="#F8C465"/>
<g style="mix-blend-mode:multiply" opacity="0.55">
<path d="M28.2348 18.4033C28.483 18.1842 28.7982 18.0558 29.1289 18.039C29.469 18.0133 29.8112 18.0423 30.1421 18.1251H30.215C30.219 17.9322 30.1758 17.7412 30.0892 17.5688C30.0158 17.4054 29.896 17.2673 29.7448 17.1714C29.6058 17.0879 29.4505 17.0353 29.2894 17.017C29.1283 16.9987 28.9651 17.0152 28.811 17.0654C28.6529 17.1148 28.5016 17.1838 28.3606 17.2707C28.2258 17.3603 28.1033 17.4672 27.9964 17.5886C27.9122 17.685 27.841 17.7918 27.7844 17.9065C27.7322 18.0122 27.7007 18.1268 27.6917 18.2443C27.6575 18.4822 27.6968 18.7248 27.8043 18.9397C27.8705 18.8337 27.9367 18.7344 28.003 18.6417C28.0758 18.5754 28.1553 18.4894 28.2348 18.4033Z" fill="#F8C465"/>
</g>
<path d="M38.8635 32.3047C39.4757 34.1884 39.5187 36.2109 38.987 38.1189C38.4553 40.0269 37.3725 41.7356 35.8742 43.0311C34.376 44.3267 32.5288 45.1514 30.5641 45.4022C28.5993 45.6529 26.6042 45.3184 24.8286 44.4406C23.0531 43.5629 21.5759 42.1808 20.582 40.4675C19.5882 38.7541 19.1219 36.7857 19.2415 34.8086C19.3611 32.8315 20.0613 30.9337 21.2544 29.3526C22.4475 27.7716 24.0805 26.5777 25.949 25.9203C27.2161 25.4905 28.5556 25.3147 29.8907 25.4031C31.2258 25.4914 32.5304 25.8421 33.7299 26.435C34.9294 27.028 36.0002 27.8516 36.881 28.8588C37.7619 29.866 38.4356 31.0369 38.8635 32.3047Z" fill="#FBDEA9"/>
<path d="M38.4063 32.469C38.9804 34.2292 39.0222 36.1198 38.5263 37.9036C38.0305 39.6875 37.0192 41.2853 35.6191 42.4968C34.219 43.7083 32.4925 44.4795 30.6559 44.7139C28.8193 44.9483 26.9544 44.6353 25.2949 43.8142C23.6355 42.9932 22.2553 41.7005 21.3274 40.0984C20.3995 38.4962 19.9651 36.6558 20.0788 34.8078C20.1924 32.9598 20.8491 31.1865 21.9663 29.7101C23.0836 28.2337 24.6118 27.12 26.3594 26.5085C28.7474 25.7031 31.3574 25.8785 33.6162 26.9961C35.8749 28.1137 37.5978 30.0821 38.4063 32.469Z" fill="#F8C465"/>
<path d="M37.208 32.8799C37.7104 34.4375 37.7422 36.1086 37.2994 37.6841C36.8567 39.2596 35.959 40.6695 34.7188 41.7373C33.4786 42.8051 31.9509 43.4833 30.3271 43.6871C28.7033 43.8909 27.0555 43.6111 25.5899 42.8829C24.1243 42.1546 22.9061 41.0102 22.0878 39.593C21.2694 38.1757 20.8873 36.5486 20.9893 34.9152C21.0913 33.2818 21.6728 31.7148 22.6611 30.4104C23.6494 29.1059 25.0005 28.122 26.5453 27.5817C27.5933 27.2292 28.7004 27.0867 29.8035 27.1622C30.9066 27.2378 31.984 27.5299 32.9742 28.0219C33.9644 28.5139 34.8479 29.1962 35.5744 30.0297C36.3008 30.8633 36.8559 31.8318 37.208 32.8799Z" fill="#F3A20B"/>
<g style="mix-blend-mode:multiply">
<path d="M22.3135 35.9071C22.3135 35.9071 23.1414 32.1652 21.4194 30.6486C21.4194 30.6486 25.2011 30.5956 27.38 28.973C27.38 28.973 31.4199 29.6353 33.2014 27.6484C33.2014 27.6484 33.3074 30.6155 34.718 32.5361L35.7711 35.5627C35.7711 35.5627 35.3472 38.6556 37.3407 39.9139C35.9802 39.9274 34.6262 40.103 33.3074 40.4371L30.0556 42.1656C30.0556 42.1656 25.6514 42.5299 24.7573 43.8942C24.7573 43.8942 24.1282 39.9669 22.446 38.3906C22.4195 38.4039 23.2076 36.4435 22.3135 35.9071Z" fill="#F9E4B7"/>
</g>
<path d="M22.7235 35.6297C22.7235 35.6297 23.5447 31.8879 21.8228 30.3712C21.8228 30.3712 25.6044 30.3182 27.7833 28.6957C27.7833 28.6957 31.8166 29.3248 33.5981 27.3711C33.5981 27.3711 33.7041 30.3381 35.1214 32.2587L36.1678 35.2854C36.1678 35.2854 35.7505 38.3782 37.7374 39.6365C36.3769 39.6501 35.0229 39.8257 33.7041 40.1597L30.4523 41.8883C30.4523 41.8883 26.0481 42.2526 25.154 43.6168C25.154 43.6168 24.4917 39.6895 22.8493 38.1133C22.8294 38.1332 23.6175 36.1463 22.7235 35.6297Z" fill="#F9D591"/>
<g style="mix-blend-mode:multiply">
<path d="M33.7907 35.3965C33.7986 36.2106 33.5643 37.0086 33.1176 37.6892C32.671 38.3698 32.0321 38.9023 31.2821 39.219C30.5322 39.5357 29.705 39.6223 28.9057 39.4678C28.1064 39.3134 27.371 38.9248 26.7931 38.3515C26.2151 37.7782 25.8206 37.046 25.6597 36.248C25.4987 35.45 25.5786 34.6221 25.8892 33.8696C26.1998 33.1171 26.7271 32.4739 27.4041 32.0218C28.081 31.5696 28.8771 31.3289 29.6912 31.3301C30.2275 31.3275 30.759 31.4307 31.2554 31.6337C31.7518 31.8367 32.2033 32.1356 32.5841 32.5133C32.9649 32.891 33.2674 33.3401 33.4745 33.8348C33.6815 34.3295 33.789 34.8602 33.7907 35.3965Z" fill="#F9ECD1"/>
</g>
<path d="M28.1743 33.9864C28.1743 33.9864 26.3398 28.6418 22.2138 27.3636C22.2138 27.3636 25.7769 26.1053 27.7174 27.6749C27.7174 27.6749 27.9227 24.9529 31.2804 24.582C31.2804 24.582 28.9293 29.112 30.2075 33.1917C30.2075 33.1917 37.7774 30.43 36.8899 27.3371C36.8899 27.3371 39.7046 29.9862 36.9628 32.4698C36.9628 32.4698 40.453 33.099 40.0358 36.6157C40.0358 36.6157 33.9892 33.3639 31.1413 35.4567C31.1413 35.4567 31.9891 42.9537 36.4396 43.5829C36.4396 43.5829 34.4196 45.8479 31.6712 42.9206C31.6712 42.9206 31.1281 46.7949 27.618 46.1658C27.618 46.1658 30.6579 41.1854 28.6114 36.6289C28.6114 36.6289 22.5184 37.3574 21.8429 43.0729C21.8429 43.0729 19.1938 40.7682 21.8429 37.2581C21.8429 37.2581 18.2865 36.8872 18.3395 32.4831C18.3196 32.5162 23.4589 35.4832 28.1743 33.9864Z" fill="#5A5E61"/>
<path d="M28.6579 34.3251C28.6579 34.3251 27.3996 30.623 24.5518 29.7554C24.5518 29.7554 27.0022 28.8811 28.3334 29.9739C28.4187 29.3827 28.7126 28.8415 29.162 28.448C29.6113 28.0545 30.1866 27.8346 30.7839 27.8281C30.7839 27.8281 29.1679 30.9673 30.0487 33.7887C30.0487 33.7887 35.2476 31.8747 34.6383 29.7355C34.6383 29.7355 36.5722 31.5833 34.6847 33.2919C35.3384 33.4059 35.9229 33.7677 36.3164 34.3019C36.71 34.8361 36.8823 35.5015 36.7974 36.1596C36.7974 36.1596 32.6449 33.9079 30.6845 35.3583C30.6845 35.3583 31.2673 40.5505 34.3204 40.9876C34.3204 40.9876 32.9363 42.5573 31.0488 40.5174C31.0488 40.5174 30.6713 43.1997 28.2606 42.7692C28.2606 42.7692 30.3534 39.3187 28.9229 36.1464C28.9229 36.1464 24.7372 36.6563 24.2869 40.6102C24.2869 40.6102 22.4789 39.0141 24.2869 36.5835C24.2869 36.5835 21.8431 36.3252 21.8828 33.2721C21.8894 33.3118 25.4194 35.345 28.6579 34.3251Z" fill="#B1B3B4"/>
<path d="M33.0488 30.2652C33.0541 30.4784 32.9956 30.6884 32.881 30.8683C32.7663 31.0482 32.6007 31.1898 32.4052 31.2751C32.2096 31.3604 31.9931 31.3854 31.7833 31.3471C31.5735 31.3087 31.3798 31.2087 31.2271 31.0598C31.0744 30.9108 30.9696 30.7197 30.926 30.5109C30.8824 30.3021 30.902 30.085 30.9824 29.8874C31.0628 29.6899 31.2002 29.5207 31.3772 29.4016C31.5541 29.2825 31.7626 29.2188 31.9759 29.2188C32.2564 29.217 32.5264 29.3258 32.7272 29.5217C32.928 29.7176 33.0436 29.9847 33.0488 30.2652Z" fill="#F3A20B"/>
<path d="M35.612 38.1332C35.6042 38.3854 35.5223 38.6298 35.3764 38.8358C35.2306 39.0418 35.0273 39.2003 34.792 39.2915C34.5566 39.3827 34.2996 39.4025 34.053 39.3485C33.8065 39.2946 33.5813 39.1692 33.4056 38.988C33.2298 38.8068 33.1113 38.5779 33.0649 38.3298C33.0185 38.0817 33.0461 37.8255 33.1444 37.593C33.2427 37.3605 33.4073 37.1622 33.6177 37.0227C33.828 36.8832 34.0748 36.8087 34.3272 36.8086C34.6715 36.8189 34.9983 36.963 35.2382 37.2103C35.4781 37.4576 35.6122 37.7886 35.612 38.1332Z" fill="#F3A20B"/>
<g style="mix-blend-mode:multiply">
<path d="M32.4989 32.6233C31.7161 33.0853 30.8965 33.4818 30.0485 33.8088C29.8326 33.0835 29.7474 32.3255 29.7968 31.5703H29.6445C28.8928 31.5712 28.154 31.765 27.4987 32.1333C27.976 32.8168 28.3654 33.5578 28.6577 34.3387C27.6653 34.6315 26.6205 34.7016 25.5979 34.544C25.4656 35.032 25.4373 35.5425 25.5149 36.0422C25.5925 36.5419 25.7742 37.0198 26.0483 37.4448C26.8938 36.7931 27.8886 36.3628 28.9425 36.193C29.3729 37.1914 29.5239 38.2879 29.3796 39.3654H29.6445C30.3704 39.3666 31.0851 39.1868 31.724 38.8422C31.1943 37.7507 30.8432 36.5812 30.6843 35.3784C31.4922 34.7824 32.6711 34.8155 33.7904 35.0605C33.6771 34.1161 33.2168 33.2474 32.4989 32.6233Z" fill="#DADADA"/>
</g>
<path d="M25.9491 32.0125C25.9583 32.266 25.8915 32.5166 25.7572 32.7318C25.6229 32.9471 25.4273 33.1173 25.1955 33.2205C24.9638 33.3237 24.7064 33.3552 24.4566 33.3109C24.2068 33.2667 23.9759 33.1487 23.7936 32.9722C23.6114 32.7957 23.4861 32.5687 23.4339 32.3204C23.3817 32.0721 23.405 31.8139 23.5008 31.5789C23.5965 31.344 23.7604 31.143 23.9713 31.002C24.1821 30.8609 24.4304 30.7861 24.6841 30.7873C24.8476 30.7846 25.01 30.8142 25.1621 30.8744C25.3142 30.9346 25.4529 31.0241 25.5704 31.1379C25.6878 31.2516 25.7817 31.3874 25.8467 31.5375C25.9117 31.6876 25.9465 31.849 25.9491 32.0125Z" fill="#F3A20B"/>
<path d="M28.3861 40.0392C28.3861 40.3143 28.3045 40.5832 28.1517 40.8119C27.9989 41.0406 27.7816 41.2189 27.5275 41.3242C27.2734 41.4294 26.9937 41.457 26.724 41.4033C26.4542 41.3496 26.2064 41.2172 26.0118 41.0227C25.8173 40.8282 25.6849 40.5803 25.6312 40.3106C25.5776 40.0408 25.6051 39.7611 25.7104 39.507C25.8156 39.2529 25.9939 39.0356 26.2226 38.8828C26.4513 38.73 26.7202 38.6484 26.9953 38.6484C27.3641 38.6484 27.7179 38.795 27.9787 39.0558C28.2395 39.3166 28.3861 39.6704 28.3861 40.0392Z" fill="#F3A20B"/>
<path d="M33.049 35.4826C33.0942 36.1669 32.9325 36.8489 32.5849 37.44C32.2373 38.0311 31.7199 38.504 31.1 38.7972C30.4801 39.0903 29.7863 39.1902 29.1089 39.0838C28.4314 38.9774 27.8017 38.6697 27.3015 38.2006C26.8012 37.7315 26.4537 37.1228 26.3041 36.4536C26.1544 35.7844 26.2095 35.0856 26.4623 34.4482C26.715 33.8107 27.1537 33.2641 27.7213 32.8792C28.2889 32.4944 28.9591 32.2893 29.6449 32.2904C30.5188 32.2654 31.3671 32.587 32.0048 33.185C32.6425 33.783 33.0179 34.6089 33.049 35.4826Z" fill="#F3A20B"/>
<g style="mix-blend-mode:multiply">
<path d="M29.0756 33.6541C28.6745 33.6668 28.2867 33.8007 27.9632 34.0381C27.6397 34.2755 27.3957 34.6053 27.2632 34.984C27.1308 35.3628 27.1161 35.7728 27.2212 36.1601C27.3262 36.5473 27.5461 36.8937 27.8518 37.1536C28.1575 37.4135 28.5347 37.5748 28.9339 37.6162C29.333 37.6575 29.7353 37.5771 30.0878 37.3854C30.4403 37.1937 30.7266 36.8998 30.9088 36.5423C31.091 36.1848 31.1608 35.7805 31.1088 35.3826C31.0666 34.8845 30.8292 34.4233 30.4483 34.0995C30.0675 33.7757 29.574 33.6156 29.0756 33.6541Z" fill="#F9D591"/>
</g>
<path d="M31.4597 35.1712C31.4666 35.5145 31.3742 35.8525 31.1935 36.1446C31.0128 36.4366 30.7516 36.6702 30.4412 36.8172C30.1309 36.9642 29.7846 37.0184 29.4442 36.9732C29.1038 36.9281 28.7837 36.7855 28.5224 36.5626C28.2611 36.3398 28.0698 36.0462 27.9715 35.7171C27.8732 35.3881 27.8721 35.0376 27.9683 34.708C28.0646 34.3783 28.254 34.0835 28.5139 33.859C28.7738 33.6345 29.093 33.4899 29.4331 33.4426C29.9304 33.406 30.4221 33.5669 30.8016 33.8905C31.181 34.2141 31.4174 34.6743 31.4597 35.1712Z" fill="#F8C465"/>
<path d="M31.0029 34.9202C31.005 35.0921 30.9575 35.261 30.8661 35.4066C30.7747 35.5522 30.6432 35.6683 30.4875 35.7411C30.3317 35.8139 30.1583 35.8403 29.988 35.817C29.8176 35.7937 29.6576 35.7219 29.5271 35.61C29.3965 35.4981 29.301 35.351 29.252 35.1862C29.2029 35.0214 29.2025 34.846 29.2506 34.6809C29.2987 34.5159 29.3934 34.3682 29.5233 34.2556C29.6532 34.143 29.8128 34.0702 29.983 34.046C30.1075 34.036 30.2326 34.0508 30.3514 34.0894C30.4701 34.128 30.58 34.1897 30.6748 34.271C30.7696 34.3522 30.8474 34.4514 30.9037 34.5628C30.96 34.6742 30.9937 34.7957 31.0029 34.9202Z" fill="#F9D591"/>
<path d="M26.2068 23.5991C25.2001 23.5991 24.3789 24.2614 24.3789 25.023C24.3789 25.7846 25.2001 26.4469 26.2068 26.4469C26.424 26.5028 26.6511 26.5082 26.8707 26.4628C27.0904 26.4174 27.2967 26.3224 27.474 26.1849C27.6512 26.0475 27.7947 25.8714 27.8934 25.67C27.9921 25.4686 28.0434 25.2473 28.0434 25.023C28.0434 24.7987 27.9921 24.5774 27.8934 24.376C27.7947 24.1746 27.6512 23.9985 27.474 23.8611C27.2967 23.7236 27.0904 23.6286 26.8707 23.5832C26.6511 23.5378 26.424 23.5432 26.2068 23.5991ZM26.2068 25.9171C26.0397 25.8749 25.8878 25.7867 25.7684 25.6625C25.6489 25.5383 25.5668 25.383 25.5312 25.2144C25.4957 25.0457 25.5082 24.8705 25.5673 24.7086C25.6264 24.5468 25.7298 24.4047 25.8656 24.2987C26.0015 24.1927 26.1644 24.127 26.3358 24.1089C26.5072 24.0909 26.6802 24.1214 26.8351 24.1969C26.99 24.2723 27.1207 24.3898 27.2122 24.5358C27.3036 24.6819 27.3523 24.8507 27.3525 25.023C27.3146 25.2914 27.1739 25.5346 26.9602 25.7014C26.7465 25.8682 26.4764 25.9455 26.2068 25.9171Z" fill="#F3A20B"/>
<path d="M26.3795 23.4819C26.1623 23.426 25.9352 23.4206 25.7156 23.466C25.4959 23.5114 25.2896 23.6064 25.1124 23.7439C24.9351 23.8813 24.7917 24.0574 24.693 24.2588C24.5943 24.4602 24.543 24.6815 24.543 24.9058C24.543 25.1301 24.5943 25.3514 24.693 25.5528C24.7917 25.7542 24.9351 25.9303 25.1124 26.0678C25.2896 26.2052 25.4959 26.3002 25.7156 26.3456C25.9352 26.391 26.1623 26.3856 26.3795 26.3297C27.3862 26.3297 28.2074 25.6674 28.2074 24.9058C28.2074 24.1442 27.3862 23.4819 26.3795 23.4819ZM26.3795 25.8065C26.2119 25.7645 26.0594 25.6765 25.9391 25.5524C25.8189 25.4283 25.7357 25.2731 25.6989 25.1043C25.6622 24.9354 25.6734 24.7597 25.7312 24.5968C25.7891 24.434 25.8912 24.2906 26.0262 24.1827C26.1612 24.0749 26.3237 24.0069 26.4953 23.9865C26.6669 23.966 26.8407 23.9939 26.9973 24.0671C27.1539 24.1402 27.2869 24.2556 27.3813 24.4003C27.4758 24.545 27.5279 24.7132 27.5319 24.8859C27.5003 25.1604 27.3614 25.4113 27.1455 25.5838C26.9296 25.7562 26.6542 25.8363 26.3795 25.8065Z" fill="#F8C465"/>
<path d="M25.7238 24.733L26.7371 24.4482C26.7371 24.4482 27.6577 20.7725 25.9689 20.958C24.28 21.1434 21.929 22.2362 25.7238 24.733Z" fill="#F8C465"/>
<path d="M26.0681 23.6927L26.7304 23.5139C26.7304 23.5139 27.2999 21.229 26.2535 21.3483C25.2071 21.4675 23.7104 22.1165 26.0681 23.6927Z" fill="#F9D591"/>
</svg>
