<svg width="52" height="32" viewBox="0 0 52 32" fill="none" xmlns="http://www.w3.org/2000/svg">
<path d="M36.8719 26.4473C36.6273 25.8223 35.6966 25.8902 35.1871 25.4555C34.6776 25.0207 34.7523 24.1715 34.7388 23.465C34.7264 22.6856 34.5226 21.9212 34.1454 21.2391C33.7681 20.5569 33.229 19.978 32.5754 19.5532C31.9218 19.1284 31.1737 18.8709 30.3972 18.8031C29.6206 18.7354 28.8393 18.8596 28.1221 19.1648C28.291 19.5187 28.5297 19.8347 28.8239 20.0938C29.1181 20.353 29.4617 20.55 29.834 20.673C30.5804 20.9134 31.2615 21.3225 31.8244 21.8686C32.8231 23.0642 32.2932 25.0071 33.1831 26.2707C33.6184 26.7967 34.1963 27.186 34.8475 27.3916C35.2732 27.5845 35.7506 27.6322 36.2061 27.5274C36.3208 27.5003 36.429 27.4508 36.5245 27.3818C36.62 27.3128 36.701 27.2256 36.7629 27.1253C36.8247 27.025 36.8661 26.9135 36.8848 26.7972C36.9035 26.6808 36.8991 26.5619 36.8719 26.4473Z" fill="#FBD6A2"/>
<path d="M35.4657 26.5159C35.3732 26.6881 35.3457 26.8878 35.3881 27.0785C35.4305 27.2693 35.54 27.4385 35.6967 27.5553C35.9251 27.6182 36.169 27.589 36.376 27.4738C36.6209 27.3364 36.807 27.1141 36.8991 26.8488C36.9277 26.683 36.9006 26.5124 36.8219 26.3636C36.7432 26.2149 36.6175 26.0965 36.4643 26.0268C36.2537 25.9045 35.6627 26.2238 35.4657 26.5159Z" fill="#FDE9CD"/>
<path d="M32.0215 22.1399C32.156 22.3728 32.261 22.6215 32.334 22.8804C33.0018 22.1848 33.4014 21.2749 33.4617 20.3125C33.2469 20.0793 33.0078 19.8697 32.7484 19.6875C32.8045 20.5653 32.5469 21.4345 32.0215 22.1399Z" fill="#D4B289"/>
<path d="M32.7345 25.1495C33.6035 24.822 34.3151 24.1759 34.7249 23.3425C34.7043 22.8494 34.6033 22.363 34.426 21.9023C34.3685 22.4447 34.1694 22.9624 33.8486 23.4036C33.5279 23.8447 33.0968 24.1938 32.5986 24.4159C32.6301 24.6628 32.6755 24.9077 32.7345 25.1495Z" fill="#D4B289"/>
<path d="M34.1678 27.072C34.7742 26.7546 35.2888 26.2867 35.6624 25.7133C35.4892 25.6575 35.328 25.5699 35.1868 25.4552C35.1403 25.4109 35.0972 25.3632 35.0578 25.3125C34.7549 25.7846 34.3332 26.1688 33.835 26.4266C33.7122 26.4836 33.5817 26.5225 33.4478 26.5421C33.6608 26.7528 33.9034 26.9313 34.1678 27.072Z" fill="#D4B289"/>
<path d="M30.1465 29.1166C29.9589 28.8686 29.8374 28.5771 29.7934 28.2693C29.7495 27.9615 29.7844 27.6477 29.8951 27.3571C30.0717 26.7661 30.3978 26.2226 30.5744 25.6316C31.1247 23.9129 30.4182 22.0176 29.3313 20.5706C29.0632 20.1463 28.6653 19.8199 28.1968 19.6399C28.0795 19.6023 27.9559 19.5885 27.8332 19.5993C27.7105 19.6101 27.5912 19.6454 27.4824 19.703C27.3735 19.7606 27.2773 19.8393 27.1993 19.9347C27.1213 20.03 27.0632 20.14 27.0283 20.2581C27.8639 21.3246 28.747 22.5542 28.5568 23.8993C28.3613 24.6413 28.0999 25.3642 27.7756 26.0596C27.4893 27.0303 27.5528 28.0706 27.955 28.9993C28.3573 29.9279 29.0727 30.6859 29.9766 31.141C30.278 31.3033 30.621 31.3719 30.9617 31.338C31.1311 31.3189 31.2905 31.2479 31.4182 31.1349C31.5458 31.0218 31.6355 30.8721 31.675 30.7062C31.689 30.5929 31.6717 30.4779 31.625 30.3737C31.5783 30.2695 31.504 30.1801 31.41 30.1152C30.9574 29.8242 30.5342 29.4897 30.1465 29.1166Z" fill="#FBD6A2"/>
<path d="M30.6354 31.3182C30.8066 31.3689 30.9888 31.369 31.16 31.3183C31.3312 31.2677 31.484 31.1686 31.6001 31.0329C31.6537 30.9628 31.6919 30.8822 31.7122 30.7964C31.7324 30.7105 31.7342 30.6213 31.7176 30.5347C31.7009 30.4481 31.6661 30.3659 31.6154 30.2937C31.5647 30.2215 31.4992 30.1609 31.4234 30.1158C31.2778 30.0687 31.1222 30.0615 30.9729 30.0949C30.8235 30.1284 30.6859 30.2013 30.5743 30.306C30.3297 30.4962 30.1123 30.8495 30.289 31.1076C30.3739 31.2188 30.4976 31.294 30.6354 31.3182Z" fill="#FDE9CD"/>
<path d="M29.7865 24.8976C30.1379 24.8832 30.4785 24.7728 30.7715 24.5783C30.7862 24.274 30.7703 23.969 30.724 23.668C30.4812 23.9572 30.135 24.14 29.7593 24.1775C29.3323 24.1664 28.9212 24.0134 28.5909 23.7427C28.5946 23.7947 28.5946 23.8469 28.5909 23.8989C28.5619 24.1051 28.5119 24.3077 28.4414 24.5036C28.8226 24.7511 29.2643 24.8897 29.7186 24.9044L29.7865 24.8976Z" fill="#D4B289"/>
<path d="M30.4651 25.9648C29.6771 26.3928 28.5426 26.8616 27.8768 26.6442C27.8033 26.6165 27.7345 26.5776 27.673 26.5287C27.6232 26.786 27.6004 27.0479 27.6051 27.3099H27.6391C27.8473 27.3784 28.0652 27.4128 28.2844 27.4118C28.886 27.3806 29.4762 27.2354 30.0235 26.9838C30.1594 26.6442 30.3496 26.3113 30.4651 25.9648Z" fill="#D4B289"/>
<path d="M30.4452 29.396C30.3381 29.3115 30.2382 29.2183 30.1463 29.1174C30.0692 29.0387 30.0071 28.9466 29.9629 28.8457C29.7819 29.1011 29.5505 29.3166 29.2829 29.4791C29.0153 29.6415 28.7173 29.7473 28.4072 29.79C28.5702 30.0175 28.7545 30.229 28.9575 30.4217C29.5369 30.2204 30.051 29.866 30.4452 29.396Z" fill="#D4B289"/>
<g style="mix-blend-mode:multiply" opacity="0.65">
<path d="M28.8693 22.8386C29.3979 22.8216 29.913 22.667 30.3638 22.3902C30.1095 21.7394 29.7666 21.1267 29.3448 20.5696L29.1342 20.3047C29.3507 20.4446 29.5778 20.5673 29.8135 20.6715C30.4476 20.8991 31.0432 21.2221 31.5798 21.6294C32.1106 21.061 32.4708 20.3548 32.6192 19.5914L32.558 19.5438C31.901 19.1263 31.1533 18.8726 30.3778 18.8041C29.6024 18.7355 28.8217 18.8541 28.1016 19.1498C28.1783 19.3616 28.2934 19.5573 28.4413 19.7272C28.3605 19.6863 28.2764 19.6522 28.1899 19.6253C28.0727 19.5877 27.9491 19.5739 27.8264 19.5847C27.7037 19.5955 27.5844 19.6308 27.4755 19.6884C27.3667 19.746 27.2704 19.8248 27.1924 19.9201C27.1145 20.0155 27.0563 20.1254 27.0215 20.2435C27.6869 20.9963 28.1868 21.8804 28.4888 22.8386H28.8693Z" fill="#D4B289"/>
</g>
<path d="M1.74383 10.7807C1.23508 10.9527 0.770984 11.2358 0.385166 11.6094C0.204321 11.7795 0.0794965 12.0005 0.0273181 12.2432C-0.0248603 12.4859 -0.00193645 12.7387 0.0930372 12.9681C0.371563 13.498 1.07807 13.6474 1.4517 14.1094C1.9612 14.7887 1.62154 15.7058 1.20715 16.4191C0.792759 17.1324 0.290053 17.9272 0.527819 18.7152C0.806318 18.5999 1.11143 18.5644 1.40897 18.6126C1.70652 18.6609 1.98474 18.7911 2.21251 18.9885C2.44028 19.1859 2.60859 19.4429 2.69858 19.7306C2.78857 20.0183 2.79669 20.3253 2.72205 20.6174C2.58349 21.0067 2.41779 21.3858 2.22615 21.7519C2.13393 21.9379 2.09585 22.146 2.11627 22.3526C2.13669 22.5593 2.21477 22.756 2.34162 22.9203C2.75602 23.3415 3.47612 23.0833 4.05355 23.2124C4.78044 23.3755 5.20162 24.1159 5.57525 24.7613C5.94888 25.4067 6.50594 26.12 7.2532 26.052C9.65417 24.0182 12.2195 22.1868 14.9229 20.5766C16.0438 19.8973 17.2937 19.1432 17.6402 17.8593C17.8032 17.18 17.6877 16.5006 17.8236 15.8213C18.0342 14.7412 18.8562 13.9056 19.5899 13.104C20.3235 12.3024 21.0504 11.3173 21.0029 10.2236C14.5832 11.3377 7.93254 8.797 1.74383 10.7807Z" fill="#DB9B54"/>
<g style="mix-blend-mode:multiply" opacity="0.34">
<path d="M16.3626 16.7724C16.3287 16.6705 16.2879 16.5618 16.2471 16.4599C15.5182 15.9074 14.7214 15.4508 13.8763 15.1012C12.3149 14.6516 10.6982 14.4229 9.07339 14.4219H8.7541C8.50527 14.5345 8.23099 14.5791 7.95929 14.5509C7.40903 14.4898 6.85876 14.4558 6.3085 14.4423C4.71481 14.4804 3.13635 14.7622 1.62792 15.2778C1.53725 15.666 1.38594 16.0374 1.17955 16.3783C0.765162 17.0577 0.262457 17.8865 0.500223 18.6745C0.778721 18.5592 1.08383 18.5236 1.38138 18.5719C1.67892 18.6202 1.95716 18.7503 2.18493 18.9477C2.4127 19.1452 2.58099 19.4021 2.67098 19.6898C2.76098 19.9775 2.76912 20.2846 2.69447 20.5766C2.55591 20.9659 2.39019 21.345 2.19855 21.7111C2.10633 21.8971 2.06825 22.1053 2.08868 22.3119C2.1091 22.5185 2.1872 22.7152 2.31405 22.8796C2.72844 23.3007 3.44852 23.0426 4.02596 23.1717C4.34986 23.2557 4.63955 23.4385 4.85474 23.6948C5.35065 23.6472 5.82618 23.5996 6.26774 23.5317C6.94707 23.4298 7.66039 23.2872 8.38727 23.1717H8.48917L8.91715 23.1037H9.1549C9.82919 23.0022 10.5115 22.9636 11.1929 22.9882C12.3885 22.1413 13.6181 21.3397 14.8817 20.5834C15.2349 20.3728 15.6018 20.1486 15.9482 19.9041C16.2793 19.4611 16.4913 18.9406 16.5639 18.3923C16.6364 17.844 16.5671 17.2862 16.3626 16.7724Z" fill="#DEA64A"/>
</g>
<path d="M3.29306 5.65204C3.29306 5.65204 11.2005 11.2022 25.1743 8.62752C39.1482 6.05285 41.7161 0 41.7161 0C42.0075 0.784476 42.0075 1.64753 41.7161 2.43201L44.9429 3.42383L23.4556 10.8082C23.4556 10.8082 5.66393 12.3706 2.76318 10.5296C2.76318 10.5296 5.00496 8.96039 4.8691 8.36937C4.0703 7.65249 3.51866 6.70137 3.29306 5.65204Z" fill="#CC934D"/>
<g style="mix-blend-mode:multiply" opacity="0.45">
<path d="M40.065 4.06956C38.3055 4.9391 36.4713 5.55729 34.6304 6.29777C30.943 7.78434 27.1015 8.85523 23.1768 9.49062C18.9242 10.17 14.8618 9.314 10.616 9.36155C9.89591 9.36155 9.1758 9.36155 8.45571 9.36155C7.43792 9.28958 6.41689 9.44506 5.46665 9.8167C4.86446 10.0555 4.31681 10.4137 3.85664 10.8697L3.80908 10.924C8.5644 12.1196 23.5097 10.8085 23.5097 10.8085L42.959 4.1239C42.0075 3.91361 41.0237 3.89514 40.065 4.06956Z" fill="#D19334"/>
</g>
<g style="mix-blend-mode:multiply" opacity="0.55">
<path d="M10.1338 21.0118C10.1689 19.534 9.77991 18.0771 9.01293 16.8135C8.24561 15.559 7.3632 14.3787 6.37712 13.2878C5.9341 12.6375 5.28215 12.1581 4.52934 11.9291C3.42882 11.7253 2.37587 12.6084 1.26855 12.4997C1.68233 12.7861 1.99551 13.1955 2.16376 13.6697C2.33201 14.144 2.34681 14.6592 2.20604 15.1423C2.07017 15.5635 1.8188 15.9439 1.7237 16.3719C1.65408 16.5824 1.65857 16.8104 1.73642 17.018C1.81428 17.2256 1.96081 17.4004 2.15168 17.5132C2.5389 17.6762 3.04161 17.4521 3.38807 17.6966C3.73453 17.9412 3.5647 18.6952 3.61226 19.2319C3.68745 19.6322 3.8601 20.0079 4.11496 20.3256C4.37229 20.6421 4.53897 21.0224 4.59728 21.4262C4.61893 21.6324 4.5605 21.8391 4.43406 22.0034C4.30762 22.1678 4.12284 22.2773 3.91794 22.3093C6.04819 22.2299 8.14972 21.7912 10.1338 21.0118Z" fill="#CDB69A"/>
</g>
<path d="M4.62379 18.206C4.98383 18.4913 5.62239 18.0837 5.92809 18.4166C6.23379 18.7495 5.97565 19.0484 5.73788 19.259C5.50011 19.4696 5.18083 19.6258 5.05855 19.9383C4.80719 20.4614 5.26236 21.0388 5.68354 21.4396C6.10473 21.8404 6.58705 22.3907 6.36287 22.9342C6.2338 23.2535 5.87376 23.464 5.81942 23.8037C5.76507 24.1434 6.19304 24.5713 6.61422 24.5713C7.03642 24.5351 7.43837 24.3743 7.76909 24.1094L13.6046 20.3255C13.4415 18.004 12.7013 15.76 11.4511 13.7972C11.1865 13.2833 10.8009 12.8416 10.3275 12.5102C9.85406 12.1788 9.30705 11.9677 8.73373 11.895C6.18542 11.3412 3.53209 11.525 1.08447 12.4249C1.54447 12.4514 1.98559 12.6169 2.34949 12.8995C2.71339 13.1822 2.98294 13.5686 3.12247 14.0077C3.17134 14.4497 3.32504 14.8736 3.57081 15.2441C4.01237 15.6993 4.92947 15.6857 5.05855 16.3039C5.13327 16.6503 4.87514 16.9832 4.68492 17.2685C4.49471 17.5539 4.33847 17.9954 4.62379 18.206Z" fill="#ECB15C"/>
<g style="mix-blend-mode:multiply" opacity="0.34">
<path d="M11.4311 13.7764C11.1666 13.2626 10.781 12.8209 10.3076 12.4895C9.83412 12.1581 9.28711 11.947 8.71379 11.8743C6.9435 11.4907 5.1146 11.463 3.3335 11.7928C3.89302 12.3386 4.3427 12.9866 4.65818 13.7017C5.03181 14.5033 5.62964 15.4951 5.58208 16.419C5.58208 16.5413 5.58208 16.6704 5.58208 16.7995C5.88898 17.0348 6.14092 17.3341 6.32042 17.6767C6.49991 18.0193 6.60265 18.3968 6.62146 18.7831C6.63575 19.2751 6.52097 19.7622 6.28857 20.1961V20.4067C6.35651 20.529 6.42446 20.6513 6.49918 20.7735C6.74304 21.081 6.91063 21.4418 6.98828 21.8265C7.09508 22.114 7.15473 22.4168 7.16492 22.7232C7.16492 22.9814 6.89998 24.0004 6.80487 24.5031C7.15197 24.4197 7.47959 24.2697 7.76953 24.0615L13.605 20.2776C13.4314 17.9637 12.6843 15.7294 11.4311 13.7764Z" fill="#DA9C36"/>
</g>
<path d="M7.89166 16.8886C8.07291 17.1256 8.1711 17.4157 8.1711 17.714C8.1711 18.0124 8.07291 18.3024 7.89166 18.5394C7.52334 19.0098 7.26143 19.5544 7.12401 20.1358C7.16591 20.7438 7.35221 21.333 7.66747 21.8545C7.94216 22.528 8.05395 23.2568 7.99375 23.9816C7.93354 24.7064 7.70306 25.4067 7.32103 26.0256C13.5235 21.7062 20.5437 18.7006 27.9503 17.1935C35.3569 15.6865 42.9934 15.7099 50.3907 17.2623C51.0021 16.2229 51.6406 15.0476 51.4029 13.8656C51.2602 13.1863 50.839 12.4458 50.7575 11.7868C50.7365 11.6062 50.6598 11.4366 50.5381 11.3015C50.4164 11.1663 50.2556 11.0725 50.0782 11.0328C49.7963 10.9696 49.5353 10.8353 49.3201 10.6426C49.1048 10.45 48.9425 10.2054 48.8486 9.93227C48.7191 9.54192 48.7191 9.12019 48.8486 8.72985C48.9084 8.57701 48.9342 8.41301 48.9245 8.24918C48.9147 8.08535 48.8695 7.9256 48.792 7.78093C48.7145 7.63626 48.6066 7.51013 48.4756 7.41125C48.3446 7.31236 48.1937 7.24306 48.0334 7.20814C47.9776 7.19887 47.9244 7.17769 47.8775 7.14604C47.8306 7.11439 47.7911 7.07301 47.7616 7.02473C47.4305 6.43879 47.2617 5.77515 47.2725 5.10222C47.2826 4.42776 47.0806 3.76717 46.6951 3.21367C46.4209 2.93874 46.0811 2.73831 45.7078 2.63132C45.3346 2.52433 44.9402 2.51434 44.562 2.60228C43.8102 2.7866 43.0925 3.08928 42.4357 3.49899C37.7513 6.03063 32.7406 7.90508 27.5447 9.06952C23.3777 10.0438 19.1064 10.5001 14.8276 10.4282C10.4256 10.3195 5.90802 9.5858 1.67578 10.8222C2.7764 11.0229 3.8267 11.4384 4.76673 12.045C5.23127 12.3568 5.59493 12.7972 5.81328 13.3123C6.03164 13.8275 6.09524 14.395 5.99632 14.9457C5.8381 15.275 5.78589 15.6453 5.84687 16.0055C6.11181 16.712 7.32102 16.3519 7.89166 16.8886Z" fill="#F8C465"/>
<g style="mix-blend-mode:screen" opacity="0.25">
<path d="M5.98261 14.9254C5.82439 15.2546 5.77218 15.6249 5.83316 15.9851C6.11169 16.712 7.3209 16.3519 7.87116 16.8886C8.04754 17.1238 8.14288 17.4098 8.14288 17.7038C8.14288 17.9978 8.04754 18.2838 7.87116 18.519C9.29096 17.2623 11.2678 16.5422 13.4213 16.0327C19.182 14.674 25.1873 14.4362 30.9005 12.8874C36.0906 11.4811 41.2807 11.4743 46.6066 10.992C47.4558 10.9173 48.468 10.8222 49.5074 10.8154C49.1839 10.6104 48.9433 10.2976 48.8281 9.93227C48.6985 9.54192 48.6985 9.12019 48.8281 8.72985C48.8878 8.577 48.9137 8.41301 48.904 8.24918C48.8942 8.08535 48.849 7.9256 48.7715 7.78093C48.694 7.63626 48.5861 7.51013 48.4551 7.41125C48.3241 7.31236 48.1732 7.24306 48.0129 7.20814C47.9571 7.19887 47.9039 7.17769 47.857 7.14604C47.8101 7.11439 47.7706 7.07301 47.7411 7.02473C47.41 6.43879 47.2412 5.77515 47.252 5.10222C47.2621 4.42776 47.0601 3.76717 46.6746 3.21367C46.4004 2.93874 46.0606 2.73831 45.6873 2.63132C45.3141 2.52433 44.9197 2.51434 44.5415 2.60228C43.7897 2.7866 43.0719 3.08928 42.4152 3.49899C37.7308 6.03063 32.7201 7.90508 27.5242 9.06952C23.3572 10.0438 19.0859 10.5001 14.8071 10.4282C10.4051 10.3195 5.88751 9.5858 1.65527 10.8222C2.75589 11.0229 3.80619 11.4384 4.74622 12.045C5.20842 12.3545 5.57113 12.7911 5.79054 13.3023C6.00994 13.8134 6.07665 14.3771 5.98261 14.9254Z" fill="#FCE5C4"/>
</g>
<g style="mix-blend-mode:multiply" opacity="0.34">
<path d="M7.98011 23.1647C8.07365 24.1667 7.83494 25.1717 7.30078 26.0246C13.5033 21.7052 20.5235 18.6996 27.9301 17.1926C35.3367 15.6855 42.9732 15.7089 50.3704 17.2613C50.6222 16.8378 50.849 16.4 51.0497 15.9502C43.7265 14.1092 34.7458 12.9951 27.1033 14.2926C19.848 15.529 13.9175 19.0547 7.98011 23.1647Z" fill="#CC9A5C"/>
</g>
<g style="mix-blend-mode:multiply" opacity="0.65">
<path d="M26.2128 17.1195C26.2095 17.0992 26.2095 17.0786 26.2128 17.0583C26.146 16.4774 26.2499 15.8896 26.5117 15.3668C26.7853 14.839 26.9603 14.2658 27.028 13.6752C27.0301 13.111 26.8671 12.5585 26.5593 12.0856C26.4642 11.9362 26.369 11.7867 26.2671 11.644C26.2468 11.6208 26.2287 11.5958 26.2128 11.5693L25.9071 11.1685L25.5946 10.7337L25.3501 10.4212C25.2482 10.2854 25.153 10.1427 25.0579 10.0001C24.9629 9.85831 24.8767 9.71084 24.7998 9.55849C24.6707 9.30633 24.5726 9.03944 24.5077 8.76367C23.2034 8.98785 21.9466 9.13051 20.751 9.21882C20.8258 9.6408 20.9846 10.0434 21.218 10.4029C21.4514 10.7623 21.7546 11.0712 22.1096 11.3112C22.3474 11.5082 22.5852 11.712 22.789 11.9226L23.0675 12.2079C23.1558 12.3098 23.2441 12.4117 23.3188 12.5136C23.5545 12.8128 23.7068 13.1691 23.7604 13.5462C23.7847 13.7736 23.7686 14.0036 23.7129 14.2255C23.716 14.2685 23.716 14.3116 23.7129 14.3546C23.7129 14.4157 23.6789 14.4769 23.6585 14.538C23.6381 14.5991 23.577 14.7826 23.5294 14.9048C23.2924 15.3974 23.1102 15.9146 22.986 16.4469C22.922 16.8338 22.9546 17.2306 23.0811 17.6018C23.1683 17.8441 23.2895 18.0729 23.4411 18.2811C24.4262 17.989 25.418 17.7308 26.4166 17.4931C26.3289 17.3804 26.2601 17.2542 26.2128 17.1195Z" fill="#D4B289"/>
</g>
<path d="M21.9402 8.50515C21.7568 9.44943 22.504 10.3054 23.2377 10.9236C23.9714 11.5418 24.8206 12.2143 24.9361 13.1722C25.0515 14.13 24.3043 15.0811 24.1344 16.0797C24.0458 16.7383 24.2054 17.4063 24.5821 17.9538C24.9588 18.5012 25.5257 18.889 26.1724 19.0416L28.6724 17.6829C28.3736 17.7228 28.0708 17.6463 27.8268 17.4693C27.5828 17.2923 27.4161 17.0283 27.3613 16.7319C27.2751 16.1293 27.3771 15.5148 27.6534 14.9724C27.9344 14.437 28.1141 13.8543 28.1833 13.2537C28.2308 12.1396 27.4292 11.2157 26.7227 10.3326C26.0162 9.44943 25.364 8.36929 25.6561 7.30273C24.522 7.97417 23.2527 8.3849 21.9402 8.50515Z" fill="#FBD6A2"/>
<path d="M25.9613 9.17188C25.8412 9.70349 25.5926 10.1976 25.2373 10.6109C24.882 11.0242 24.4309 11.3441 23.9233 11.5427C24.1261 11.7258 24.3104 11.9283 24.4736 12.1474C25.3893 11.724 26.1154 10.976 26.5116 10.0482C26.3053 9.7711 26.1213 9.47807 25.9613 9.17188Z" fill="#D4B289"/>
<path d="M27.7482 11.6905C27.5405 11.3713 27.3137 11.0651 27.0688 10.7734C26.9835 11.385 26.7399 11.9637 26.3622 12.4522C25.9845 12.9407 25.4857 13.3221 24.9153 13.5587C24.8735 13.8956 24.7843 14.2249 24.6504 14.5369C25.3567 14.3446 26.0066 13.9858 26.5455 13.4906C27.0845 12.9953 27.4969 12.3781 27.7482 11.6905Z" fill="#D4B289"/>
<path d="M27.3882 16.6915C27.3221 16.1106 27.4259 15.5231 27.687 15C27.3146 15.6005 26.7845 16.0873 26.1543 16.4071C25.5242 16.727 24.8184 16.8677 24.1138 16.8138C24.1563 17.1214 24.2553 17.4185 24.4059 17.6902C25.4821 17.6907 26.5292 17.34 27.3882 16.6915Z" fill="#D4B289"/>
<g style="mix-blend-mode:multiply" opacity="0.65">
<path d="M27.4019 16.7801C26.7015 16.7631 26.0194 17.005 25.4862 17.4595C25.262 17.7108 25.0514 17.9758 24.8408 18.2407C25.1976 18.6408 25.6742 18.9148 26.1995 19.0219L28.6994 17.6633C28.4121 17.7034 28.1201 17.6352 27.8803 17.472C27.6405 17.3088 27.4699 17.0622 27.4019 16.7801Z" fill="#D4B289"/>
</g>
<path d="M32.2723 19.0628C32.5916 20.5505 31.2397 22.1062 29.2493 22.541C27.2588 22.9757 25.3839 22.1198 25.0578 20.6388C24.7317 19.1579 26.0836 17.5954 28.074 17.1606C30.0645 16.7259 31.9462 17.575 32.2723 19.0628Z" fill="#EA5829"/>
<path d="M30.859 19.3688C31.0561 20.2724 30.2341 21.2234 29.0181 21.4884C27.8021 21.7533 26.6676 21.237 26.4706 20.3267C26.2736 19.4164 27.0955 18.4789 28.3048 18.214C29.514 17.949 30.662 18.4653 30.859 19.3688Z" fill="#8B3700"/>
<path d="M30.3502 19.4844C30.5106 19.8719 30.5476 20.2995 30.4561 20.7088C30.3645 21.1182 30.1489 21.4893 29.8386 21.7715C29.5284 22.0538 29.1386 22.2334 28.7224 22.286C28.3063 22.3385 27.8841 22.2614 27.5134 22.0651C27.1427 21.8688 26.8416 21.5629 26.6513 21.1891C26.4609 20.8154 26.3904 20.392 26.4496 19.9767C26.5087 19.5615 26.6945 19.1746 26.9816 18.8688C27.2688 18.5631 27.6433 18.3534 28.054 18.2684C28.5197 18.1298 29.0212 18.1797 29.4506 18.4071C29.88 18.6345 30.203 19.0213 30.3502 19.4844Z" fill="#B74410"/>
<g style="mix-blend-mode:multiply" opacity="0.75">
<path d="M28.9912 20.8564C27.7544 20.2836 26.7622 19.2889 26.1924 18.0508C25.7826 18.3343 25.4608 18.7273 25.2638 19.185C25.0668 19.6427 25.0025 20.1465 25.0782 20.639C25.4043 22.12 27.2793 22.9759 29.2697 22.5412C30.0904 22.3704 30.8476 21.9753 31.4572 21.3999C30.6058 21.3974 29.7648 21.2121 28.9912 20.8564Z" fill="#B74410"/>
</g>
</svg>
