<svg width="20" height="20" viewBox="0 0 20 20" fill="none" xmlns="http://www.w3.org/2000/svg">
<g clip-path="url(#clip0_854_17)">
<path d="M18.6778 10.7391C16.8056 7.27804 13.5222 5.18359 9.8889 5.18359C6.25557 5.18359 2.96668 7.27804 1.11112 10.7391L0.955566 11.0003L1.10001 11.2669C2.97223 14.728 6.25557 16.8225 9.8889 16.8225C13.5222 16.8225 16.8111 14.7558 18.6778 11.2669L18.8222 11.0003L18.6778 10.7391ZM9.8889 15.6836C6.76112 15.6836 3.8889 13.9391 2.22223 11.0003C3.8889 8.06137 6.76112 6.31693 9.8889 6.31693C13.0167 6.31693 15.8556 8.06693 17.55 11.0003C15.8556 13.9391 13.0111 15.6836 9.8889 15.6836Z" fill="#666B8A"/>
<path d="M10.0504 7.20518C9.29712 7.21068 8.56238 7.43928 7.93896 7.86211C7.31554 8.28495 6.8314 8.88305 6.5477 9.58087C6.264 10.2787 6.19347 11.0449 6.345 11.7828C6.49653 12.5207 6.86333 13.1972 7.39908 13.7267C7.93482 14.2562 8.61548 14.6151 9.35509 14.7581C10.0947 14.901 10.8601 14.8215 11.5545 14.5297C12.249 14.2379 12.8414 13.7469 13.257 13.1186C13.6725 12.4903 13.8926 11.7529 13.8893 10.9996C13.8871 10.4982 13.786 10.0021 13.5917 9.53986C13.3975 9.07758 13.114 8.65818 12.7573 8.30568C12.4007 7.95319 11.978 7.67453 11.5135 7.48569C11.049 7.29684 10.5518 7.20152 10.0504 7.20518ZM10.0504 13.7163C9.51831 13.7108 8.99971 13.5482 8.55973 13.249C8.11975 12.9497 7.778 12.5271 7.57741 12.0343C7.37682 11.5414 7.32633 11.0003 7.43228 10.4788C7.53824 9.95736 7.79591 9.47884 8.17293 9.10335C8.54996 8.72786 9.02952 8.47215 9.55141 8.36833C10.0733 8.2645 10.6142 8.3172 11.1062 8.5198C11.5983 8.7224 12.0195 9.06587 12.3169 9.50707C12.6144 9.94827 12.7749 10.4675 12.7782 10.9996C12.7796 11.3577 12.71 11.7126 12.5733 12.0436C12.4366 12.3746 12.2356 12.6751 11.9818 12.9278C11.7281 13.1806 11.4267 13.3804 11.0952 13.5157C10.7636 13.6511 10.4085 13.7192 10.0504 13.7163Z" fill="#666B8A"/>
</g>
<defs>
<clipPath id="clip0_854_17">
<rect width="20" height="20" fill="white"/>
</clipPath>
</defs>
</svg>
