<svg width="44" height="40" viewBox="0 0 44 40" fill="none" xmlns="http://www.w3.org/2000/svg">
<path d="M41.1263 9.69511C40.2204 8.1561 39.0575 6.78007 37.6871 5.62542L36.7155 6.28675L36.4893 6.43936L36.1295 6.68863L35.8776 6.86159L35.5023 7.11086L35.2658 7.27365L35.0088 7.45169L34.7671 7.6094L34.5718 7.74675L34.6849 7.55344L34.8186 7.31434L34.9625 7.06507L35.0962 6.82598L35.2812 6.5004L35.4252 6.25114L35.6668 5.8289L35.8056 5.58981L36.3556 4.62326C36.3877 4.18634 36.3877 3.7477 36.3556 3.31078C30.3718 -0.626647 22.0231 -0.372291 16.8207 0.858791C16.7898 0.858791 16.8566 2.16109 16.8207 2.17127L17.016 3.44305L17.0674 3.76862L17.124 4.16542L17.1702 4.48591L17.2165 4.78096L17.2628 5.10653L17.0828 4.81657L16.9646 4.57747L16.795 4.29768L16.5688 3.9365L16.394 3.65671L15.6434 2.48667C14.9648 2.69015 14.3582 2.89873 13.8339 3.11238C11.5429 4.09632 9.47526 5.52615 7.754 7.31683C6.03275 9.10751 4.693 11.2225 3.81446 13.5359C3.48835 14.427 3.06426 15.28 2.54983 16.0794C1.99463 17.0155 0 16.9086 0 16.9086V18.2211L1.43942 18.8519C1.70735 18.9542 1.93644 19.1366 2.09489 19.3736C2.25334 19.6106 2.33329 19.8905 2.32364 20.1746C2.24787 22.0198 2.46647 23.8653 2.97138 25.6432L4.47763 25.516H4.54446L5.01227 25.4754H5.12022L5.69085 25.4347L5.22304 25.7908L5.14079 25.8416L4.70896 26.1774L3.46489 25.8213V27.1338C6.37972 34.8967 14.6718 40.7316 25.5086 39.9228C27.4676 39.7899 29.402 39.4139 31.2663 38.8036V37.4911L30.9064 37.2978L30.7573 36.6772L30.6802 36.3669L30.5928 35.9955L31.0349 35.8429L31.2457 36.1481L31.4256 36.4127L31.7958 36.9214L31.9706 37.1808L32.387 37.7913L32.9782 37.6132L33.5385 37.8981C44.6066 32.6431 46.4676 18.7146 41.1263 9.69511Z" fill="#6C3B17"/>
<path d="M41.1263 8.38314C40.2204 6.84412 39.0575 5.46809 37.6871 4.31344L36.7155 4.97477L36.4893 5.12738L36.1295 5.37665L35.8776 5.54961L35.5023 5.80397L35.2658 5.96167L35.0088 6.13972L34.7671 6.29742L34.5718 6.43477L34.6849 6.24146L34.8186 6.00237L34.9625 5.7531L35.0962 5.514L35.2812 5.18843L35.4252 4.93916L35.6668 4.51693L35.8056 4.27783L36.3556 3.31128C30.3306 -0.768588 22.1054 -0.407402 16.8412 0.85929L17.0366 2.13107L17.088 2.45664L17.1445 2.85344L17.1908 3.17393L17.2371 3.46898L17.2833 3.79456L17.1034 3.50459L16.9646 3.25024L16.795 2.97044L16.5688 2.60926L16.394 2.32947L15.6434 1.17469C14.9648 1.37818 14.3582 1.58675 13.8339 1.80041C11.5443 2.78262 9.47764 4.2101 7.75646 5.99807C6.03529 7.78604 4.69476 9.89804 3.81446 12.2086C3.49488 13.0989 3.0777 13.9519 2.57039 14.7522C2.01519 15.6832 0 15.8358 0 15.8358V16.8888L1.43942 17.5196C1.70735 17.6219 1.93644 17.8042 2.09489 18.0413C2.25334 18.2783 2.33329 18.5582 2.32364 18.8423C2.2457 20.6943 2.46431 22.5468 2.97138 24.3313L4.47763 24.2041H4.54446L5.01227 24.1634H5.12022L5.69085 24.1176L5.22304 24.4737L5.13565 24.5398L4.70382 24.8756L4.62671 24.9264L3.45975 25.8218C6.37972 33.5745 14.6718 39.4196 25.5086 38.6108C27.4676 38.4779 29.402 38.1019 31.2663 37.4916L30.9784 36.2911L30.9064 35.9858L30.7573 35.3652L30.6802 35.0549L30.5928 34.6835L31.0349 34.5309L31.2457 34.8412L31.4256 35.1007L31.7958 35.6094L31.9706 35.8688L32.387 36.4793L32.9782 36.3012L33.5385 36.5861C44.6066 31.3311 46.4676 17.4026 41.1263 8.38314Z" fill="#BA774A"/>
<g style="mix-blend-mode:screen" opacity="0.5">
<path d="M30.9063 35.9867L30.7572 35.3661C26.4955 36.9329 22.0179 36.7192 17.9053 35.8748C11.1194 34.4707 9.47952 32.853 6.3899 27.3284C5.89115 26.434 5.47312 25.4977 5.14069 24.5305L4.70886 24.8663L4.62661 24.9273C6.03005 30.7419 10.0347 34.425 15.741 35.9257C21.0771 37.3297 26.4184 37.9249 30.9732 36.297L30.9063 35.9867ZM4.36443 19.9776C4.35488 19.2319 4.4518 18.4886 4.65231 17.7697C6.07631 9.77788 10.7596 5.13843 16.9645 3.25111L16.7949 2.97132L16.5687 2.61013C14.6339 3.14369 12.8383 4.08417 11.3045 5.36735C11.3045 5.36735 4.2976 10.312 4.11253 19.3773C4.11253 19.5197 4.11253 19.6672 4.11253 19.8046C4.09139 21.2809 4.22404 22.7555 4.50837 24.2049H4.5752L5.04301 24.1642C4.59076 22.8139 4.36162 21.4001 4.36443 19.9776ZM36.4995 5.12825L36.1396 5.37752L35.8877 5.55048C38.2217 7.02575 39.8359 8.87237 40.2677 10.8055C40.8589 13.4508 42.1698 16.7523 42.2006 20.3743C42.2366 23.3452 41.4038 26.5399 38.6021 29.7703C36.6713 32.0857 34.2114 33.9132 31.4255 35.1015L31.7957 35.6103L31.9705 35.8697C33.353 35.2542 34.6256 34.4209 35.7387 33.4025C41.0337 28.6002 42.725 24.9273 42.725 18.8889V18.7719C42.6941 13.9188 40.6121 8.40944 36.4995 5.12825ZM35.4354 4.94003L35.677 4.5178C34.8967 3.98184 34.0588 3.53313 33.1785 3.17989C28.7883 1.40957 22.2852 1.0433 17.0879 2.45752L17.1444 2.85431L17.1907 3.1748C18.7809 2.71516 20.4166 2.42692 22.0693 2.31508C26.6627 1.97096 31.2571 2.97045 35.2811 5.1893L35.4354 4.94003Z" fill="#994F26"/>
<path d="M37.2966 7.83898C36.6913 7.13239 36.0007 6.50197 35.2402 5.96183L34.9832 6.13988L34.7416 6.29758C34.9112 6.41459 35.0706 6.52142 35.2094 6.63333C37.5279 8.40365 40.7152 13.5416 40.7666 19.1426C40.7982 20.93 40.4769 22.7065 39.8207 24.3721C36.8956 31.7281 33.0708 34.3734 23.4061 34.8363C13.7415 35.2992 11.2533 30.9904 11.2533 30.9904C7.83984 27.0378 6.23077 22.9375 6.2719 19.0662C6.31303 14.3505 8.80117 9.97048 13.4176 6.61298C21.3807 0.864542 31.1019 3.91681 34.685 6.22128L34.8187 5.98218L34.9626 5.73291C30.0275 2.38559 22.4911 2.40594 17.2835 3.77437C17.0007 3.85068 16.718 3.92699 16.4507 4.00838C10.3897 5.88553 5.89148 12.5293 5.69613 18.1862C5.69613 18.3846 5.69613 18.5779 5.69613 18.7712C5.66529 24.1432 7.79871 28.4367 10.1583 30.6038C10.1583 30.6038 13.2891 35.1466 21.3344 35.7571C29.3797 36.3675 36.6488 32.2571 39.3529 27.5312C40.5301 25.4353 41.1984 22.495 41.1676 19.3308C41.1264 15.3323 39.9646 11.0083 37.2966 7.83898Z" fill="#994F26"/>
<path d="M39.872 17.0576C39.5603 13.9049 38.1872 10.9472 35.973 8.65936C33.7589 6.37148 30.8322 4.88609 27.6626 4.44159C19.1649 3.08333 12.6001 5.89651 9.70073 11.0548C7.90659 14.2546 7.08921 16.493 7.05322 18.9246C7.06567 20.6179 7.3254 22.3005 7.82434 23.9202C7.82434 23.9202 9.25348 32.1308 18.1985 33.5348C27.1434 34.9389 32.6903 33.6773 36.2992 29.2311C39.2757 25.5684 39.9954 22.6179 39.9697 19.2756C39.9697 18.5583 39.9286 17.8054 39.872 17.0576ZM8.9656 13.339C11.2532 5.64724 21.9101 3.89219 27.714 4.79261C33.518 5.69303 39.07 11.5839 39.3117 17.2103C39.3117 17.368 39.3117 17.5257 39.3117 17.6834C39.3734 23.0859 36.3197 27.3489 34.4382 29.2159C32.5567 31.0828 27.6318 34.4047 19.6173 33.1838C11.6028 31.9629 9.90122 27.354 9.90122 27.354C8.93989 25.4209 7.8449 23.2487 7.87575 19.7233C7.93944 17.5556 8.30621 15.4071 8.9656 13.339Z" fill="#994F26"/>
<path d="M15.3814 19.8408C15.5499 21.3072 16.2092 22.6757 17.2544 23.7284C18.2997 24.7812 19.6707 25.4577 21.1493 25.6503C25.1592 26.276 28.6549 25.4112 30.0275 23.0203C31.4001 20.6293 31.1687 18.9506 30.5416 16.641C30.2798 15.4914 29.6667 14.4495 28.7855 13.6567C27.9044 12.864 26.798 12.3589 25.6167 12.2102C21.391 11.559 18.7743 12.144 17.0676 14.1992C15.3608 16.2544 15.222 17.806 15.3814 19.8408ZM18.0957 14.245C19.0108 13.3598 21.1802 11.8235 24.9432 12.3882C28.7063 12.9529 28.7937 14.5553 29.2255 15.8525C29.6985 17.2769 31.2818 18.2028 30.2228 21.7587C29.1638 25.3146 23.8637 25.9199 21.1236 25.5028C18.3836 25.0856 15.7669 22.3488 15.6436 19.7493C15.5202 17.1497 17.1858 15.1098 18.0957 14.245Z" fill="#994F26"/>
<path d="M30.8911 29.699C27.7603 31.8509 24.4394 32.558 18.2962 31.5405C13.0268 30.6605 11.7468 27.7201 11.4898 26.9011C11.436 26.726 11.3672 26.5559 11.2841 26.3924C9.92695 23.4317 8.61605 17.7748 10.4616 12.9064C12.374 7.8651 16.6305 6.03374 23.915 6.23214C31.1995 6.43054 33.554 9.42176 35.2762 11.4261C36.9983 13.4304 37.7129 18.2123 37.1526 21.2798C36.5922 24.3474 34.0013 27.5472 30.8911 29.699ZM35.2762 10.2459C30.6546 4.42113 21.0773 4.77722 15.9674 6.80698C11.4383 8.62817 9.13527 12.9115 9.0376 17.4238C9.0376 17.6375 9.0376 17.846 9.0376 18.0495C9.0376 23.7267 10.3948 26.2245 10.3948 26.2245C10.3948 26.2245 12.2403 31.9221 21.2315 32.558C30.6906 33.2244 34.5256 27.8575 36.1398 24.6933C37.0138 22.8924 38.1036 20.4099 38.0419 17.5205C37.9717 14.8571 36.9974 12.2946 35.2762 10.2459Z" fill="#994F26"/>
<path d="M35.6513 16.1214C35.3085 13.9979 34.3334 12.0238 32.8508 10.4515C31.3682 8.87931 29.4454 7.78037 27.3283 7.29524C22.4189 6.17098 15.4223 6.61356 12.9341 10.8918C10.446 15.1701 9.59262 20.7354 12.0705 25.5071C12.0705 25.5071 13.5048 30.0346 20.0901 31.1843C22.5048 31.6019 24.988 31.3847 27.2912 30.5545C29.5945 29.7242 31.637 28.31 33.2145 26.4533C35.8415 23.3553 36.1756 19.7587 35.6513 16.1214ZM33.0295 25.7869C31.9745 27.1885 30.6361 28.3574 29.0997 29.2192C27.5632 30.081 25.8622 30.6169 24.1051 30.7926C20.8715 31.0673 16.7949 30.5688 13.6487 26.9315C10.5025 23.2942 11.032 17.9578 11.032 17.9578C11.1092 16.3656 12.3738 13.1709 12.9341 12.0975C13.4945 11.0241 15.1807 7.97691 21.1594 7.60555C27.1381 7.23419 28.0223 8.11426 30.4539 9.23851C32.8855 10.3628 35.1423 14.9157 35.3634 16.3605C35.5844 17.8052 35.2657 22.8059 33.0295 25.8073V25.7869Z" fill="#994F26"/>
<path d="M25.8939 18.0897C25.7942 17.595 25.5517 17.1396 25.1959 16.7785C24.8401 16.4174 24.3862 16.166 23.889 16.0548C22.7632 15.8056 21.2621 15.9683 20.5886 16.8586C19.6633 18.0795 19.8175 19.0664 20.3881 20.1347C20.3881 20.1347 20.7171 21.1521 22.2285 21.4065C22.8021 21.5093 23.3922 21.4728 23.9483 21.3C24.5044 21.1272 25.0098 20.8233 25.421 20.4145C26.0276 19.7277 26.0121 18.8985 25.8939 18.0897ZM25.1896 20.2008C24.9435 20.5177 24.6338 20.7808 24.2799 20.9734C23.926 21.166 23.5356 21.284 23.1333 21.32C22.6921 21.3819 22.2424 21.3354 21.8237 21.1846C21.405 21.0337 21.0303 20.7832 20.7326 20.4552C20.5207 20.1748 20.3744 19.8514 20.3042 19.5084C20.234 19.1653 20.2416 18.811 20.3264 18.4712C20.3925 18.0152 20.5259 17.5713 20.7223 17.1536C20.8508 16.9145 21.0873 16.2125 22.4547 16.1362C23.1867 16.0105 23.94 16.1381 24.5881 16.4974C25.1414 16.8824 25.54 17.448 25.714 18.0948C25.7764 18.8346 25.5922 19.5743 25.1896 20.2008Z" fill="#994F26"/>
<path d="M31.5281 11.4103C28.3768 8.62763 21.9971 6.32316 16.5581 10.052C9.94195 14.5694 11.1706 22.022 14.435 26.285C15.4905 27.5512 16.8303 28.5559 18.3475 29.2192C19.8648 29.8825 21.5176 30.186 23.1743 30.1054C28.8858 29.8562 32.1759 26.3257 33.3428 23.5431C34.5098 20.7604 34.6743 14.1929 31.5281 11.4103ZM33.2143 20.8571C33.0292 22.9733 30.5874 29.2813 24.0329 29.4645C18.378 29.6272 16.5839 27.8213 16.1777 27.3024C16.094 27.1931 16.0029 27.0895 15.9053 26.9921C13.9775 25.0641 12.3684 22.2153 12.2245 19.1987C12.0702 16.0904 13.6844 11.2882 18.2546 9.53313C22.8248 7.77808 25.4157 8.97864 29.6517 10.7235C33.8877 12.4684 33.4148 18.7561 33.2143 20.8571Z" fill="#994F26"/>
<path d="M29.5387 11.5987C26.7679 10.1133 20.491 7.16786 15.782 12.3771C11.073 17.5863 12.9854 25.0593 18.666 27.4705C18.666 27.4705 22.1926 29.2154 26.8398 27.4705C31.4871 25.7257 32.8031 22.8921 32.726 20.0891C32.6489 17.2861 32.3148 13.0842 29.5387 11.5987ZM25.9402 27.1755C21.0667 28.549 18.0337 26.5091 18.0337 26.5091C13.9467 24.1334 11.9624 18.9801 14.7333 14.4882C17.5042 9.9963 22.83 9.42654 27.0712 11.0035C31.3123 12.5806 32.5512 17.4438 32.3559 20.1604C32.1605 22.8769 30.8137 25.8071 25.9402 27.1755Z" fill="#994F26"/>
<path d="M25.4879 15.8877C24.4135 15.3129 21.9922 14.1734 20.1724 16.1879C19.7628 16.6053 19.4607 17.114 19.2916 17.6712C19.1225 18.2284 19.0913 18.8177 19.2007 19.3894C19.3101 19.961 19.5568 20.4982 19.9201 20.9556C20.2834 21.4131 20.7525 21.7773 21.2879 22.0177C22.2996 22.426 23.4327 22.426 24.4444 22.0177C26.2179 21.3665 26.9274 20.2677 26.8965 19.1943C26.8657 18.121 26.5572 16.4575 25.4879 15.8877ZM24.0948 21.9058C23.5954 22.0744 23.0661 22.1385 22.5404 22.0938C22.0147 22.0492 21.5041 21.8968 21.0412 21.6463C20.6493 21.4263 20.3071 21.1293 20.0357 20.7734C19.7642 20.4176 19.5693 20.0105 19.4628 19.5773C19.3564 19.1441 19.3407 18.6939 19.4168 18.2544C19.4928 17.815 19.659 17.3956 19.905 17.0221C20.9743 15.2925 22.8918 15.0483 24.5318 15.6537C26.1717 16.2591 26.6498 18.1413 26.5881 19.2147C26.5264 20.2881 25.9815 21.3665 24.0948 21.9058Z" fill="#994F26"/>
<path d="M26.0946 15.2924C24.7889 14.5904 21.8278 13.1965 19.6018 15.6587C17.3758 18.1208 18.2858 21.6462 20.9641 22.7806C22.2014 23.2808 23.5875 23.2808 24.8248 22.7806C27.0148 21.9565 27.8785 20.6186 27.8476 19.301C27.8168 17.9835 27.4055 15.9893 26.0946 15.2924ZM24.3982 22.6433C22.1002 23.2893 20.6659 22.3279 20.6659 22.3279C20.1798 22.064 19.7526 21.7055 19.4101 21.2741C19.0675 20.8426 18.8167 20.3471 18.6726 19.8172C18.5286 19.2874 18.4943 18.7342 18.5718 18.1909C18.6493 17.6476 18.837 17.1254 19.1237 16.6557C20.4346 14.5344 22.9433 14.2648 24.9431 15.0075C26.9428 15.7502 27.5135 18.0598 27.4364 19.3316C27.3592 20.6033 26.7012 21.9972 24.3982 22.6433Z" fill="#994F26"/>
<path d="M27.5136 11.7466C24.3263 10.7292 19.6585 9.75249 15.9674 13.7103C12.2763 17.668 14.3943 22.1345 15.9674 24.0218C15.9674 24.0218 18.2962 27.2522 23.8431 26.8808C29.39 26.5094 31.3383 22.8111 31.7907 20.4253C32.2431 18.0394 30.7009 12.7437 27.5136 11.7466ZM23.1593 26.4535C17.5045 26.3161 16.1987 23.7471 16.1987 23.7471C15.3552 22.616 14.8237 21.2871 14.6565 19.8911C14.4714 18.2225 14.3737 15.1499 18.2191 12.7691C22.0644 10.3884 25.8685 11.6602 28.3413 12.9218C30.814 14.1834 31.3589 17.5663 31.4874 20.1302C31.6159 22.6941 28.7885 26.5705 23.1593 26.4535Z" fill="#994F26"/>
<path d="M25.7038 13.0993C22.8249 12.3667 19.2469 12.9162 17.2472 16.0498C16.5283 17.0697 16.1896 18.305 16.289 19.5446C16.3884 20.7842 16.9197 21.9512 17.7921 22.8462C17.7921 22.8462 19.3343 25.0438 23.4881 25.0286C27.6418 25.0133 29.765 22.0272 29.8421 19.4684C29.9192 16.9095 28.598 13.8318 25.7038 13.0993ZM22.9432 24.7081C19.4783 24.5962 18.3679 22.9327 18.3679 22.9327C17.2574 22.0068 16.1008 19.6261 16.9233 17.4539C17.7458 15.2817 19.432 13.2265 22.9277 13.0637C26.4235 12.9009 27.6624 14.4321 28.6392 15.9379C29.146 16.7516 29.4417 17.6766 29.5 18.6307C29.5583 19.5848 29.3773 20.5384 28.9733 21.4066C28.1199 23.2277 26.4132 24.82 22.9432 24.7081Z" fill="#994F26"/>
<path d="M28.3616 27.3789C27.769 27.7063 27.1479 27.9804 26.5058 28.198C25.344 28.4983 24.1422 28.6184 22.9432 28.5541C21.855 28.4668 20.7722 28.3224 19.6994 28.1216C18.7895 27.9792 20.8972 28.7016 22.9072 28.7931C24.2721 28.8847 25.6407 28.6798 26.917 28.1929C27.7771 27.9341 28.5845 27.5277 29.3024 26.9923C30.0169 26.4836 30.3717 25.8324 30.2688 25.7714C30.166 25.7104 29.9912 26.3869 28.3616 27.3789Z" fill="#994F26"/>
<path d="M28.8755 18.6545C28.7521 17.225 27.7291 14.3508 25.6265 13.7811C23.5239 13.2113 19.8586 13.3385 18.0798 16.406C16.3011 19.4735 17.8588 21.7984 19.3034 22.8361C19.3034 22.8361 20.5886 24.2961 24.2282 23.8993C25.5234 23.754 26.7173 23.136 27.5767 22.1661C28.4361 21.1963 28.8992 19.9442 28.8755 18.6545ZM23.5394 23.6297C19.3599 23.6297 18.8818 21.895 18.8818 21.895C17.7097 20.2366 17.4064 19.3311 18.1313 17.2963C18.8561 15.2614 20.2904 13.6793 24.2539 14.0558C28.2175 14.4322 28.6442 17.5048 28.6493 18.7664C28.6544 20.028 27.724 23.6297 23.5394 23.6297Z" fill="#994F26"/>
<path d="M36.1243 15.232C36.3094 16.1523 36.4143 17.0867 36.4379 18.0248C36.4884 19.3965 36.3325 20.7681 35.9752 22.0945C35.7134 22.9611 35.3255 23.7854 34.8237 24.5414C34.5769 24.9738 35.5485 24.2107 36.0266 22.5625C36.4492 21.1871 36.6843 19.7619 36.7258 18.3249C36.7566 16.9873 36.5655 15.6538 36.1603 14.3773C35.8675 13.4846 35.5137 12.6127 35.1013 11.7676C34.9573 11.7575 35.6873 13.2785 36.1243 15.232Z" fill="#994F26"/>
<path d="M24.6755 17.6067C23.9867 17.0268 23.1898 16.7012 21.8018 17.3473C20.4138 17.9933 20.7737 19.5602 21.5499 20.3131C21.5499 20.3131 22.2234 21.0558 23.7862 20.7862C25.349 20.5166 25.3644 18.1867 24.6755 17.6067ZM23.4417 20.5878C21.6527 20.6285 21.627 20.018 21.627 20.018C21.1387 18.9548 21.2004 18.0391 22.4341 17.5813C23.6679 17.1234 24.6601 17.7441 24.7989 18.0646C24.9377 18.3851 25.2359 20.5471 23.4469 20.5878H23.4417Z" fill="#994F26"/>
<path d="M24.1614 18.1458C23.452 17.6066 21.6578 18.1458 22.2285 19.3973C22.333 19.5838 22.4806 19.7433 22.6593 19.8627C22.838 19.982 23.0427 20.0579 23.2566 20.084C23.9661 20.1298 24.8811 18.6851 24.1614 18.1458ZM23.2618 19.7585C23.084 19.7789 22.9045 19.7399 22.7517 19.6477C22.5989 19.5555 22.4817 19.4155 22.4187 19.2497C22.3758 19.1597 22.3528 19.0616 22.3511 18.9621C22.3495 18.8625 22.3692 18.7638 22.4091 18.6724C22.449 18.5809 22.508 18.499 22.5823 18.4319C22.6567 18.3648 22.7446 18.3141 22.8402 18.2832C23.4109 18.0848 23.9712 18.1153 24.2231 18.6189C24.475 19.1226 23.9661 19.733 23.2823 19.7585H23.2618Z" fill="#994F26"/>
<path d="M12.4715 10.1244C11.9501 10.9187 11.506 11.7602 11.1451 12.6374C10.7433 13.7144 10.4539 14.8292 10.2815 15.9644C10.153 16.8394 10.0656 17.2871 10.1787 17.3074C10.2918 17.3278 10.518 15.0742 10.9189 13.8227C11.2124 12.8402 11.6267 11.8971 12.1527 11.0146C12.4697 10.4998 12.758 9.96827 13.0164 9.42237C13.0729 9.26976 12.6925 9.77847 12.4715 10.1244Z" fill="#994F26"/>
</g>
<path d="M30.7575 35.3656L30.6804 35.0553C26.4444 36.5814 21.9976 36.383 17.9107 35.5335C11.1249 34.1294 9.48495 32.5117 6.39534 26.9922C5.94023 26.1749 5.54841 25.3246 5.22324 24.4487L5.13584 24.5148L4.70402 24.8505C6.16914 30.5227 10.1327 34.1142 15.7464 35.6098C21.0569 37.0088 26.3673 37.609 30.9066 36.0117L30.7575 35.3656ZM5.14098 24.1536C4.66754 22.8097 4.41248 21.4 4.38529 19.9771C4.35176 19.1197 4.44881 18.2623 4.67317 17.4335C6.06633 9.51798 10.6725 4.89379 16.7694 2.97086L16.5433 2.60967L16.3685 2.32988C14.4993 2.86444 12.7651 3.78316 11.2791 5.02605C11.2791 5.02605 4.2979 9.97582 4.11283 19.0411C4.11283 19.2954 4.11283 19.5498 4.11283 19.8041C4.11016 21.2829 4.26524 22.7579 4.5755 24.2045L5.04331 24.1638L5.14098 24.1536ZM36.7157 4.97518L36.4895 5.12779L36.1297 5.37706C38.3299 6.82689 39.8413 8.60738 40.2423 10.4642C40.8695 13.2265 42.2369 16.6196 42.1906 20.3739C42.1479 23.7256 40.868 26.9462 38.5921 29.429C36.6269 31.7999 34.1046 33.6583 31.2459 34.8416L31.4258 35.1011L31.796 35.6098C33.2476 34.9913 34.5813 34.131 35.7389 33.0662C40.9311 28.3556 42.6687 24.7386 42.7253 18.8884V18.5476C42.7253 13.7606 40.6947 8.30216 36.7157 4.97518ZM35.6875 4.51734L35.8263 4.27825C35.0084 3.69748 34.123 3.21585 33.1891 2.84368C28.7526 1.06828 22.2444 0.702003 17.0368 2.13148L17.0882 2.45706L17.1447 2.85385C18.7495 2.38685 20.4008 2.09347 22.0696 1.97887C26.7233 1.62952 31.3766 2.66028 35.4356 4.93957L35.6875 4.51734Z" fill="#994F26"/>
<path d="M37.2967 7.50302C36.7674 6.86959 36.1653 6.29937 35.5026 5.80392L35.2661 5.96162L35.0091 6.13967C35.0913 6.19054 35.1633 6.2465 35.2353 6.29737C37.5846 8.10329 40.8439 13.4193 40.7667 19.1423C40.7597 20.8191 40.439 22.48 39.8208 24.0412C36.8957 31.3921 33.071 34.0374 23.4063 34.4953C13.7416 34.9531 11.2535 30.6545 11.2535 30.6545C7.93767 26.8188 6.32347 22.8407 6.27206 19.066C6.19495 14.2231 8.68823 9.721 13.4178 6.29737C21.4888 0.477707 31.3591 3.68768 34.8188 6.00232L34.9628 5.75305L35.0964 5.51395C30.151 2.0598 22.4861 2.08015 17.2374 3.47911L17.2836 3.80468L17.1037 3.51472C16.8826 3.57576 16.6616 3.63681 16.4508 3.70294C10.3898 5.55465 5.89164 12.2086 5.69629 17.8502C5.69629 18.1605 5.69629 18.4708 5.69629 18.771C5.75798 23.9904 7.85028 28.1364 10.1585 30.2679C10.1585 30.2679 13.2892 34.8056 21.3346 35.4262C29.3799 36.0468 36.649 31.9212 39.353 27.1902C40.4943 25.1909 41.1523 22.3828 41.1677 19.3306C41.1986 15.2609 40.0368 10.7639 37.2967 7.50302Z" fill="#994F26"/>
<path d="M39.8722 16.7154C39.5609 13.5636 38.1877 10.6068 35.9733 8.32048C33.7589 6.03415 30.8319 4.55104 27.6628 4.10956C19.1651 2.7513 12.6003 5.56448 9.7009 10.7228C7.82451 14.0651 7.01741 16.3593 7.0534 18.9232C7.10882 20.5027 7.36796 22.0686 7.82451 23.583C7.82451 23.583 9.25365 31.7937 18.1986 33.1977C27.1436 34.6017 32.6905 33.3452 36.2993 28.894C39.1782 25.3584 39.9493 22.4944 39.9699 19.2743C39.9801 18.4552 39.939 17.6057 39.8722 16.7154ZM34.4435 28.8787C32.5209 30.7915 27.6423 34.0829 19.6278 32.8467C11.6133 31.6105 9.90139 27.0219 9.90139 27.0219C8.97605 25.1448 7.89648 23.054 7.87592 19.727C7.90103 17.4443 8.26831 15.1779 8.96577 13.0018C11.2534 5.31521 21.9103 3.56015 27.7142 4.46057C33.5182 5.36099 39.0702 11.2468 39.3118 16.8681C39.3118 17.1478 39.3118 17.4175 39.3118 17.682C39.2553 22.9217 36.2891 27.0677 34.4435 28.8787Z" fill="#994F26"/>
<path d="M15.3814 19.4896C15.5415 20.9607 16.1977 22.3355 17.2441 23.3923C18.2906 24.4491 19.6664 25.1262 21.1494 25.3144C25.1592 25.9401 28.655 25.0804 30.0275 22.6894C31.4001 20.2985 31.1688 18.6197 30.5416 16.3102C30.2813 15.1629 29.6715 14.1223 28.7944 13.329C27.9173 12.5357 26.8154 12.0279 25.6373 11.8742C21.4116 11.2231 18.7949 11.8081 17.0882 13.8633C15.3814 15.9185 15.2221 17.4802 15.3814 19.4896ZM18.0958 13.8938C19.0108 13.0086 21.1802 11.4723 24.9433 12.037C28.7064 12.6017 28.7938 14.2041 29.2256 15.5013C29.6985 16.9257 31.2819 17.8567 30.2229 21.4075C29.1639 24.9583 23.8637 25.5687 21.1237 25.1516C18.3837 24.7344 15.767 22.0179 15.6436 19.4184C15.5202 16.8189 17.1859 14.7535 18.0958 13.8938Z" fill="#994F26"/>
<path d="M30.8911 29.3638C27.7603 31.5411 24.4394 32.2075 18.2962 31.1799C13.0268 30.3049 11.7468 27.3645 11.4898 26.5404C11.4365 26.357 11.3677 26.1783 11.2841 26.0063C9.92695 23.0456 8.61605 17.3887 10.4616 12.5254C12.374 7.47899 16.6305 5.64763 23.915 5.84603C31.1995 6.04443 33.554 9.03565 35.2762 11.04C36.9983 13.0443 37.7129 17.8058 37.1526 20.8937C36.5922 23.9816 34.0013 27.217 30.8911 29.3638ZM35.2762 9.91572C30.6546 4.07062 21.0773 4.44707 15.9674 6.47683C11.4383 8.29293 9.13527 12.5814 9.0376 17.0886C9.0376 17.4192 9.0376 17.7397 9.0376 18.05C9.06844 23.4932 10.3948 25.8893 10.3948 25.8893C10.3948 25.8893 12.2506 31.5868 21.2418 32.2227C30.7009 32.879 34.5359 27.5222 36.1501 24.358C37.0138 22.6488 38.0419 20.268 38.0419 17.521C38.056 14.7423 37.0763 12.0483 35.2762 9.91572Z" fill="#994F26"/>
<path d="M35.6517 15.7692C35.3054 13.6487 34.3289 11.6783 32.8466 10.1091C31.3643 8.53992 29.4434 7.44305 27.3287 6.95831C22.4193 5.83406 15.4432 6.2919 12.9345 10.56C10.4258 14.8281 9.59301 20.4036 12.0709 25.1702C12.0709 25.1702 13.5051 29.6977 20.0905 30.8474C22.507 31.2637 24.9917 31.0438 27.2953 30.2099C29.5989 29.3759 31.6403 27.9572 33.2149 26.096C35.8419 23.0234 36.176 19.4218 35.6517 15.7692ZM33.0299 25.4347C31.9755 26.837 30.6374 28.0064 29.1008 28.8683C27.5642 29.7302 25.8629 30.2656 24.1055 30.4404C20.8719 30.7202 16.7953 30.2166 13.6491 26.5793C10.5029 22.942 11.0324 17.6056 11.0324 17.6056C11.1095 16.0134 12.3742 12.8187 12.9345 11.7453C13.4949 10.6719 15.181 7.62981 21.1598 7.25337C27.1385 6.87692 28.0227 7.76208 30.4543 8.88633C32.8859 10.0106 35.1427 14.5636 35.3638 16.0083C35.5848 17.453 35.2661 22.4689 33.0299 25.4703V25.4347Z" fill="#994F26"/>
<path d="M25.9305 17.9989C25.83 17.5055 25.5879 17.0511 25.2332 16.6903C24.8786 16.3294 24.4264 16.0773 23.9308 15.9641C22.7998 15.7148 21.2987 15.8827 20.6252 16.7729C19.6999 17.9887 19.8593 18.9756 20.4247 20.0439C20.4247 20.0439 20.7538 21.0613 22.2703 21.3157C22.8417 21.4218 23.4306 21.3893 23.9866 21.2209C24.5426 21.0526 25.0491 20.7535 25.4627 20.3491C25.7177 20.0192 25.8926 19.6356 25.9737 19.228C26.0548 18.8205 26.04 18.3999 25.9305 17.9989ZM25.2365 20.1101C24.9904 20.427 24.6807 20.69 24.3268 20.8826C23.9729 21.0753 23.5825 21.1933 23.1802 21.2292C22.7393 21.2884 22.2905 21.2391 21.8735 21.0856C21.4565 20.9321 21.0843 20.6791 20.7897 20.3491C20.5766 20.0695 20.4295 19.7461 20.3592 19.4028C20.2889 19.0594 20.2973 18.7049 20.3836 18.3652C20.4456 17.9089 20.5774 17.4647 20.7743 17.0476C20.9028 16.8085 21.1393 16.1065 22.5068 16.0302C23.8742 15.9539 24.085 16.1472 24.6453 16.3965C25.1976 16.7802 25.5961 17.3438 25.7712 17.9887C25.8305 18.7345 25.6428 19.4792 25.2365 20.1101Z" fill="#994F26"/>
<path d="M31.5286 11.0795C28.3773 8.29685 21.9976 5.99239 16.5586 9.71616C9.94244 14.2437 11.1711 21.6912 14.4355 25.9441C15.4902 27.2112 16.8298 28.2166 18.3473 28.8799C19.8647 29.5433 21.518 29.8462 23.1748 29.7645C28.8862 29.5203 32.1763 25.9848 33.3433 23.2021C34.5103 20.4195 34.6748 13.8571 31.5286 11.0795ZM33.2148 20.5365C33.0297 22.6476 30.5878 28.9556 24.0333 29.1388C18.3785 29.3016 16.5843 27.4956 16.1782 26.9767C16.0944 26.8675 16.0034 26.7638 15.9058 26.6664C13.978 24.7384 12.3689 21.8744 12.225 18.873C12.0707 15.7647 13.6849 10.9625 18.2551 9.20744C22.8253 7.45239 25.4162 8.64786 29.6522 10.408C33.8882 12.1681 33.4153 18.4202 33.2148 20.5365Z" fill="#994F26"/>
<path d="M29.5392 11.2628C26.7683 9.77736 20.4914 6.83192 15.7825 12.0411C11.0735 17.2503 12.9859 24.7284 18.6665 27.1346C18.6665 27.1346 22.193 28.8795 26.8403 27.1346C31.4876 25.3897 32.8036 22.5562 32.7265 19.7583C32.6494 16.9604 32.3153 12.7482 29.5392 11.2628ZM25.9407 26.8396C21.0672 28.2131 18.0341 26.1782 18.0341 26.1782C13.9472 23.8025 11.9629 18.6442 14.7338 14.1523C17.5046 9.66036 22.8305 9.09569 27.0716 10.6676C31.3128 12.2395 32.5466 17.1079 32.3512 19.8397C32.1559 22.5715 30.8141 25.4711 25.9407 26.8396Z" fill="#994F26"/>
<path d="M25.4884 15.7041C24.414 15.1293 21.9927 13.9898 20.1729 16.0043C19.7633 16.4217 19.4612 16.9304 19.2921 17.4876C19.123 18.0448 19.0918 18.6341 19.2012 19.2058C19.3106 19.7774 19.5573 20.3146 19.9206 20.772C20.2839 21.2295 20.753 21.5938 21.2884 21.8341C22.3001 22.2424 23.4331 22.2424 24.4449 21.8341C26.239 21.1626 26.9279 20.0841 26.897 19.0107C26.8662 17.9374 26.5577 16.279 25.4884 15.7041ZM24.0953 21.7222C23.5959 21.8909 23.0666 21.9549 22.5409 21.9102C22.0152 21.8656 21.5046 21.7132 21.0417 21.4627C20.6498 21.2427 20.3076 20.9457 20.0361 20.5898C19.7647 20.234 19.5698 19.8269 19.4633 19.3937C19.3569 18.9605 19.3412 18.5103 19.4173 18.0708C19.4933 17.6314 19.6595 17.212 19.9055 16.8385C20.9748 15.1089 22.8923 14.8647 24.5322 15.4701C26.1722 16.0755 26.6503 17.9628 26.5886 19.0311C26.5269 20.0994 25.9819 21.188 24.0953 21.7222Z" fill="#994F26"/>
<path d="M26.0484 15.0832C24.7375 14.3812 21.7764 12.9924 19.5556 15.4495C17.3347 17.9066 18.2344 21.437 20.9179 22.5715C22.1533 23.0718 23.538 23.0718 24.7735 22.5715C26.9686 21.7524 27.8579 20.4094 27.7962 19.097C27.7346 17.7845 27.3593 15.77 26.0484 15.0832ZM24.3519 22.4341C22.0488 23.0802 20.6146 22.1187 20.6146 22.1187C20.1284 21.8548 19.7013 21.4964 19.3587 21.0649C19.0162 20.6334 18.7653 20.1379 18.6213 19.6081C18.4772 19.0782 18.4429 18.525 18.5204 17.9817C18.5979 17.4384 18.7857 16.9162 19.0723 16.4466C20.3832 14.3303 22.8971 14.0607 24.8968 14.8034C26.8966 15.5462 27.4672 17.8557 27.3901 19.1275C27.313 20.3993 26.6499 21.788 24.3519 22.4341Z" fill="#994F26"/>
<path d="M27.5136 11.4107C24.3263 10.3933 19.6585 9.41655 15.9674 13.3743C12.2763 17.3321 14.3943 21.7986 15.9674 23.691C15.9674 23.691 18.2962 26.9162 23.8431 26.5449C29.39 26.1735 31.3383 22.4752 31.7907 20.0893C32.2431 17.7035 30.7009 12.4129 27.5136 11.4107ZM23.1593 26.0972C17.525 25.9446 16.1987 23.401 16.1987 23.401C15.3552 22.2699 14.8237 20.941 14.6565 19.545C14.4714 17.8764 14.3737 14.8038 18.2191 12.423C22.0644 10.0423 25.8685 11.309 28.3413 12.5706C30.814 13.8322 31.3589 17.2354 31.4874 19.7943C31.6159 22.3531 28.7885 26.2396 23.1593 26.0972Z" fill="#994F26"/>
<path d="M25.7042 12.7681C22.8254 12.0355 19.2474 12.5798 17.2477 15.7135C16.5288 16.7334 16.1901 17.9687 16.2895 19.2083C16.3888 20.4479 16.9201 21.6149 17.7926 22.5099C17.7926 22.5099 19.3348 24.7075 23.4886 24.6923C27.6423 24.677 29.7449 21.6909 29.822 19.1371C29.8991 16.5834 28.5985 13.5006 25.7042 12.7681ZM22.9436 24.3718C19.4788 24.2599 18.3683 22.5964 18.3683 22.5964C17.2579 21.6756 16.1013 19.2898 16.9238 17.1226C17.7463 14.9555 19.4325 12.9003 22.9282 12.7172C26.424 12.5341 27.6629 14.0907 28.6396 15.5914C29.146 16.4053 29.4415 17.3303 29.4998 18.2843C29.558 19.2383 29.3774 20.1918 28.9738 21.0601C28.1204 22.8914 26.4137 24.4837 22.9436 24.3718Z" fill="#994F26"/>
<path d="M28.3617 27.17C27.7687 27.4939 27.1477 27.7646 26.5059 27.9788C25.3441 28.2792 24.1423 28.3993 22.9433 28.3349C21.6684 28.2586 20.6146 28.2078 19.7046 28.0653C18.7947 27.9229 20.8973 28.4825 22.9074 28.574C24.2718 28.6672 25.6404 28.4641 26.9172 27.9788C27.7769 27.7216 28.5842 27.317 29.3025 26.7834C30.0171 26.2747 30.3306 25.7965 30.2484 25.7354C30.1661 25.6744 29.9914 26.178 28.3617 27.17Z" fill="#994F26"/>
<path d="M28.876 18.3137C28.7526 16.8791 27.7296 14.01 25.627 13.4402C23.5244 12.8705 19.859 12.9926 18.0803 16.0601C16.3016 19.1276 17.8593 21.4525 19.3038 22.4953C19.3038 22.4953 20.589 23.9502 24.2287 23.5534C25.523 23.4082 26.7162 22.7909 27.5754 21.8221C28.4347 20.8533 28.8984 19.6025 28.876 18.3137ZM23.5399 23.294C19.3604 23.294 18.8823 21.5593 18.8823 21.5593C17.7102 19.9009 17.4069 18.9903 18.1317 16.9351C18.8566 14.8799 20.2909 13.3232 24.2544 13.6946C28.218 14.066 28.6447 17.1437 28.6498 18.4053C28.6549 19.6669 27.7245 23.294 23.5399 23.294Z" fill="#994F26"/>
<path d="M36.1243 14.8951C36.3095 15.8172 36.4145 16.7532 36.4379 17.693C36.489 19.0648 36.333 20.4365 35.9752 21.7627C35.6941 22.7287 35.308 23.6618 34.8237 24.5454C34.5769 24.9778 35.5485 23.879 36.0266 22.2358C36.4492 20.8586 36.6843 19.4319 36.7258 17.9932C36.7566 16.6572 36.5655 15.3254 36.1603 14.0507C35.8855 13.2577 35.5308 12.4942 35.1013 11.7716C34.9573 11.7564 35.6873 12.9417 36.1243 14.8951Z" fill="#994F26"/>
<path d="M24.676 17.3835C23.9871 16.7985 23.1903 16.478 21.8023 17.1241C20.4143 17.7701 20.7742 19.337 21.5504 20.0899C21.5504 20.0899 22.2239 20.8326 23.7867 20.563C25.3495 20.2934 25.3649 17.9635 24.676 17.3835ZM23.4474 20.3493C21.6584 20.39 21.6327 19.7796 21.6327 19.7796C21.1443 18.7163 21.206 17.8007 22.4398 17.3428C23.6736 16.885 24.6657 17.5005 24.8045 17.8515C24.9433 18.2025 25.2364 20.3188 23.4474 20.3493Z" fill="#994F26"/>
<path d="M24.1619 18.0026C23.4525 17.4634 21.6583 18.0331 22.229 19.254C22.3335 19.4406 22.4811 19.6001 22.6598 19.7194C22.8385 19.8388 23.0432 19.9146 23.2571 19.9408C23.9665 19.9866 24.8816 18.5418 24.1619 18.0026ZM23.2623 19.6152C23.0845 19.6357 22.905 19.5967 22.7522 19.5045C22.5994 19.4123 22.4822 19.2722 22.4192 19.1065C22.3763 19.0164 22.3533 18.9184 22.3516 18.8188C22.3499 18.7193 22.3697 18.6205 22.4096 18.5291C22.4494 18.4377 22.5085 18.3557 22.5828 18.2886C22.6572 18.2215 22.7451 18.1709 22.8407 18.14C23.4113 17.9466 23.9717 17.9772 24.2236 18.4757C24.4755 18.9742 23.9665 19.5898 23.2828 19.6152H23.2623Z" fill="#994F26"/>
<path d="M12.472 9.79213C11.9501 10.5844 11.5059 11.4242 11.1456 12.3001C10.7444 13.3772 10.4551 14.4919 10.282 15.6271C10.1535 16.502 10.0661 17.2855 10.1792 17.3058C10.2923 17.3262 10.5185 14.7368 10.9194 13.4854C11.2134 12.5038 11.6296 11.5623 12.1584 10.6824C12.6724 9.82774 12.9706 9.5683 13.022 9.42077C13.0734 9.27324 12.693 9.44112 12.472 9.79213Z" fill="#994F26"/>
<g style="mix-blend-mode:screen">
<path d="M24.1309 0.508712C27.2873 0.508712 31.8112 1.01742 35.6719 3.4745L35.3583 4.02391L35.2195 4.26809L34.9574 4.69032L34.8186 4.93959L34.6283 5.26517L34.4947 5.50426L34.3507 5.75353L34.2171 5.99262L34.104 6.18593L32.9884 8.13939L34.87 6.832L35.055 6.69973L35.3018 6.53695L35.5588 6.3589L35.7902 6.2012L36.1654 5.94684L36.4225 5.77388L36.7823 5.5297L37.0085 5.37708L37.6511 4.93959C38.8515 6.01028 39.8734 7.26187 40.6791 8.6481C42.125 11.1518 43.0394 13.9212 43.3665 16.7867C43.6935 19.6523 43.4263 22.5537 42.5811 25.3135C41.9069 27.6216 40.7542 29.7653 39.1964 31.6081C37.6387 33.4509 35.71 34.9524 33.5334 36.0168L33.1992 35.8489L33.0141 35.7523L32.8136 35.8133L32.5823 35.8845L32.387 35.6098L32.207 35.3504L31.842 34.8417L31.657 34.5771L31.4462 34.2719L31.2251 33.9514L30.8601 34.0786L30.418 34.2261L29.9759 34.3736L30.0787 34.8213L30.1713 35.2028L30.2433 35.5081L30.3975 36.1287L30.4694 36.4339L30.6597 37.136C28.9711 37.6472 27.2291 37.9664 25.4675 38.0872C24.8146 38.1381 24.1566 38.1636 23.514 38.1636C14.6255 38.1636 7.03774 33.3918 4.0715 25.9799L4.9403 25.3135L5.02255 25.2524L5.44409 24.9218L5.54177 24.8506L6.00444 24.4945L7.36675 23.4414L5.65487 23.5991L5.08424 23.65H4.98142L4.51875 23.6907H4.4365L3.35693 23.7823C2.94932 22.1786 2.7762 20.5255 2.84286 18.8732C2.86076 18.4871 2.75646 18.1051 2.54451 17.7805C2.33256 17.4558 2.02352 17.2047 1.66047 17.0622L0.514079 16.5738V16.3042C1.22351 16.1872 2.48814 15.8718 2.99194 15.0324C3.47613 14.273 3.88091 13.4668 4.20002 12.6262L4.28742 12.4126C5.14496 10.1607 6.45166 8.10254 8.12969 6.36075C9.80773 4.61895 11.8228 3.2291 14.0549 2.27394C14.4559 2.10607 14.9186 1.94328 15.4326 1.76523L15.9467 2.58426L16.1215 2.86405L16.3426 3.22014L16.5225 3.50502L16.6819 3.75938L16.8618 4.04935L18.1727 6.13506L17.8077 3.70342L17.7614 3.38293L17.7152 3.08279L17.6689 2.76739L17.6123 2.36551L17.5609 2.04502L17.4375 1.23108C19.635 0.747293 21.8797 0.505035 24.1309 0.508712ZM24.1309 0C21.6752 0.000842952 19.2283 0.289426 16.8412 0.859723L17.0366 2.1315L17.088 2.45708L17.1445 2.85387L17.1908 3.17436L17.2371 3.46941L17.2833 3.79499L17.1034 3.50502L16.9646 3.25067L16.795 2.97088L16.5688 2.60969L16.394 2.3299L15.6434 1.17512C14.9648 1.37861 14.3582 1.58718 13.8339 1.80084C11.5443 2.78305 9.47764 4.21053 7.75646 5.9985C6.03529 7.78647 4.69476 9.89847 3.81446 12.2091C3.49488 13.0993 3.0777 13.9523 2.57039 14.7526C2.01519 15.6836 0 15.8362 0 15.8362V16.8892L1.43942 17.52C1.70735 17.6223 1.93644 17.8047 2.09489 18.0417C2.25334 18.2787 2.33329 18.5587 2.32364 18.8427C2.2457 20.6947 2.46431 22.5473 2.97138 24.3317L4.47763 24.2045H4.54446L5.01227 24.1638H5.12022L5.69085 24.118L5.22304 24.4741L5.13565 24.5403L4.70382 24.876L4.62671 24.9269L3.45975 25.8222C6.19465 33.1019 13.6642 38.6875 23.5088 38.6875C24.1617 38.6875 24.83 38.6875 25.5034 38.6112C27.4625 38.4783 29.3969 38.1023 31.2611 37.4921L30.9732 36.2915L30.9013 35.9863L30.7522 35.3656L30.6751 35.0553L30.5877 34.684L31.0298 34.5313L31.2406 34.8417L31.4205 35.1011L31.7906 35.6098L31.9654 35.8693L32.387 36.4797L32.9782 36.3017L33.5385 36.5865C44.6066 31.3316 46.4676 17.403 41.1263 8.38357C40.2204 6.84455 39.0575 5.46852 37.6871 4.31387L36.7155 4.9752L36.4893 5.12781L36.1295 5.37708L35.8776 5.55004L35.5023 5.8044L35.2658 5.9621L35.0088 6.14015L34.7671 6.29785L34.5718 6.4352L34.6849 6.24189L34.8186 6.0028L34.9625 5.75353L35.0962 5.51443L35.2812 5.18886L35.4252 4.93959L35.6668 4.51736L35.8056 4.27827L36.3556 3.31171C32.7006 0.839374 28.2383 0 24.1309 0Z" fill="#BA774A"/>
</g>
<path d="M26.6549 21.3104C25.8323 20.5829 24.9019 19.7842 23.9611 18.9499C24.6088 18.2632 25.2 17.6222 25.5959 17.1847C26.4801 16.1673 29.7496 13.054 29.6262 12.9472C29.0505 12.4639 27.755 11.4871 25.7347 9.83384C24.5883 8.89781 23.1643 7.69725 21.8945 6.65439C21.8945 6.61369 21.8636 6.60352 21.8328 6.60352C21.802 6.60352 18.9283 7.2038 18.6507 7.52428C18.3731 7.84477 18.6044 7.43272 18.9797 11.9959C19.3549 16.559 19.3241 29.6939 18.9797 32.1001C18.9797 32.1307 19.1647 32.3087 19.2316 32.3698C19.5168 32.559 19.8362 32.692 20.1723 32.7615C20.9846 33.0107 22.7427 33.5551 22.8867 33.4279C24.1256 32.0188 25.7295 30.2077 26.5366 29.2412C27.4208 28.1678 30.6904 24.7798 30.567 24.6628C29.9758 24.149 28.6752 23.0959 26.6549 21.3104ZM26.002 12.9166C25.2695 13.9835 24.4251 14.9708 23.483 15.8621L22.0436 17.3475C21.9665 15.6586 21.9099 14.2444 21.8894 13.3999C21.8431 11.7873 21.8379 10.5562 21.8431 9.60491C22.6965 10.2662 23.6372 10.9937 24.3518 11.5329C24.9327 11.9704 25.4982 12.4588 26.002 12.9166ZM24.4032 27.8168C24.0485 28.2085 23.2671 28.8902 22.6399 29.4905C22.5114 27.0436 22.3469 23.8387 22.2081 20.8729C23.2876 21.5952 24.5163 22.5211 25.2926 23.1417C25.8735 23.6148 26.4441 24.1592 26.9479 24.6373C26.2124 25.7809 25.3597 26.8464 24.4032 27.8168Z" fill="#FFD894"/>
<path d="M26.4031 21.0406L23.7093 18.6853C24.357 17.9934 24.9482 17.3575 25.3441 16.92C26.2283 15.9281 29.4927 12.7842 29.3693 12.6825C28.7884 12.2094 27.498 11.2225 25.4829 9.56916C24.3365 8.63313 22.9125 7.42749 21.6427 6.38463C21.6427 6.34902 21.6118 6.33376 21.581 6.33884C21.5502 6.34393 18.6765 6.93404 18.3988 7.25961C18.1212 7.58519 18.3526 7.16804 18.7227 11.7312C19.0929 16.2943 19.2368 29.938 18.9592 32.0797C19.2426 32.2721 19.5627 32.4054 19.9 32.4714C20.7122 32.7257 22.4704 33.27 22.6143 33.1429C23.8532 31.7337 25.4571 29.9176 26.2643 28.9511C27.1485 27.8828 30.418 24.4948 30.2946 24.3727C29.724 23.9097 28.4234 22.8313 26.4031 21.0406ZM25.7502 12.652C25.0177 13.7188 24.1733 14.7061 23.2312 15.5974L21.7918 17.0828C21.7147 15.3888 21.6581 13.9797 21.6375 13.1352C21.5913 11.5226 21.5913 10.2864 21.5913 9.34024C22.4446 10.0016 23.3854 10.729 24.1 11.2632C24.6758 11.7007 25.2464 12.2094 25.7502 12.652ZM24.1617 27.547C23.807 27.9387 23.0256 28.6204 22.3984 29.2258C22.2699 26.7789 22.1054 23.5689 21.9614 20.5777C23.0461 21.3001 24.2748 22.231 25.0459 22.8465C25.6268 23.3247 26.1923 23.864 26.7012 24.3472C25.9667 25.4964 25.1158 26.5685 24.1617 27.547Z" fill="#562C0F"/>
</svg>
